{
.appVersion = "1141";
DisplayStrings = (
"/IJ/ij",
"/ha-ethiopic",
"i/la-ethiopic",
"/la-ethiopic",
"/la-ethiopic/hha-ethiopic",
"/la-ethiopic/hha-ethiopic",
"/hha-ethiopic",

glyphs = (
{
glyphname = .notdef;
lastChange = "2018-11-25 04:46:33 +0000";
layers = (
{
layerId = "0D8C0684-5C80-438C-A1B9-8A29192E7ABE";
paths = (
{
closed = 1;
nodes = (
"442 504 LINE",
"58 504 LINE",
"58 8 LINE",
"442 8 LINE"
);
},
{
closed = 1;
nodes = (
"450 512 LINE",
"450 0 LINE",
"50 0 LINE",
"50 512 LINE"
);
}
);
userData = {
assembly = "SVTCA[0]\011/* SetFreedomAndProjectionVectorToAxis */
PUSHW[ ]\011/* 1 value pushed */
5 
MDAP[1]\011/* MoveDirectAbsPt */
PUSHW[ ]\011/* 1 value pushed */
4 
MDAP[1]\011/* MoveDirectAbsPt */
IUP[0]\011/* InterpolateUntPts */
IUP[1]\011/* InterpolateUntPts */";
};
width = 500;
}
);
note = .notdef;
},
{
glyphname = exclam;
lastChange = "2018-11-25 04:46:33 +0000";
layers = (
{
layerId = "0D8C0684-5C80-438C-A1B9-8A29192E7ABE";
paths = (
{
closed = 1;
nodes = (
"106 58.021 OFFCURVE",
"144.247 104 OFFCURVE",
"160 104 CURVE SMOOTH",
"176.421 104 OFFCURVE",
"216 73.918 OFFCURVE",
"216 56 CURVE SMOOTH",
"216 34.013 OFFCURVE",
"188.233 0 OFFCURVE",
"160 0 CURVE SMOOTH",
"138.826 0 OFFCURVE",
"106 29.177 OFFCURVE",
"106 39 CURVE SMOOTH"
);
},
{
closed = 1;
nodes = (
"120 410 OFFCURVE",
"120.167 422 OFFCURVE",
"120.5 434 CURVE SMOOTH",
"120.833 446 OFFCURVE",
"121 458 OFFCURVE",
"121 470 CURVE SMOOTH",
"121 490.667 OFFCURVE",
"117.333 507.333 OFFCURVE",
"110 520 CURVE SMOOTH",
"102.667 532.667 OFFCURVE",
"99 542.333 OFFCURVE",
"99 549 CURVE SMOOTH",
"99 555.667 OFFCURVE",
"109 565.667 OFFCURVE",
"117 571 CURVE SMOOTH",
"145 589 LINE",
"149.667 592.333 OFFCURVE",
"154.667 594 OFFCURVE",
"160 594 CURVE SMOOTH",
"169.298 594 OFFCURVE",
"203 568.685 OFFCURVE",
"203 557 CURVE SMOOTH",
"203 542.66 OFFCURVE",
"195.593 500.985 OFFCURVE",
"192.5 470.5 CURVE SMOOTH",
"187.833 424.5 OFFCURVE",
"182 354.333 OFFCURVE",
"182 237 CURVE SMOOTH",
"182 231.667 OFFCURVE",
"182.167 225.833 OFFCURVE",
"182.5 219.5 CURVE SMOOTH",
"182.833 213.167 OFFCURVE",
"183 206.333 OFFCURVE",
"183 199 CURVE SMOOTH",
"183 191 OFFCURVE",
"179 187 OFFCURVE",
"171 187 CURVE SMOOTH",
"159.046 187 OFFCURVE",
"124 215.173 OFFCURVE",
"124 226 CURVE SMOOTH",
"124 254.667 OFFCURVE",
"123.333 283.333 OFFCURVE",
"122 312 CURVE SMOOTH",
"120.667 340.667 OFFCURVE",
"120 369.333 OFFCURVE",
"120 398 CURVE SMOOTH"
);
}
);
userData = {
assembly = "PUSHW[ ]\011/* 3 values pushed */
33 20 3 
CALL[ ]\011/* CallFunction */
PUSHW[ ]\011/* 1 value pushed */
33 
SRP0[ ]\011/* SetRefPoint0 */
PUSHW[ ]\011/* 1 value pushed */
20 
SRP0[ ]\011/* SetRefPoint0 */
PUSHW[ ]\011/* 1 value pushed */
23 
MDRP[10000]\011/* MoveDirectRelPt */
PUSHW[ ]\011/* 1 value pushed */
23 
MDAP[1]\011/* MoveDirectAbsPt */
NPUSHW[ ]\011/* 27 values pushed */
6 33 22 33 38 33 54 33 70 33 86 33 102 33 118 33 134 33 150 33 166 33 182 33 198 33 13 
DELTAP1[ ]\011/* DeltaExceptionP1 */
NPUSHW[ ]\011/* 5 values pushed */
213 33 229 33 2 
DELTAP1[ ]\011/* DeltaExceptionP1 */
PUSHW[ ]\011/* 1 value pushed */
33 
SRP0[ ]\011/* SetRefPoint0 */
PUSHW[ ]\011/* 1 value pushed */
30 
MDRP[10000]\011/* MoveDirectRelPt */
PUSHW[ ]\011/* 1 value pushed */
30 
MDAP[1]\011/* MoveDirectAbsPt */
PUSHW[ ]\011/* 1 value pushed */
20 
SRP0[ ]\011/* SetRefPoint0 */
PUSHW[ ]\011/* 1 value pushed */
52 
MDRP[10000]\011/* MoveDirectRelPt */
PUSHW[ ]\011/* 1 value pushed */
52 
MDAP[1]\011/* MoveDirectAbsPt */
SVTCA[0]\011/* SetFreedomAndProjectionVectorToAxis */
PUSHW[ ]\011/* 1 value pushed */
43 
MDAP[1]\011/* MoveDirectAbsPt */
PUSHW[ ]\011/* 1 value pushed */
45 
MDAP[1]\011/* MoveDirectAbsPt */
PUSHW[ ]\011/* 1 value pushed */
5 
MDAP[1]\011/* MoveDirectAbsPt */
IUP[0]\011/* InterpolateUntPts */
IUP[1]\011/* InterpolateUntPts */";
};
width = 315;
}
);
note = exclam;
unicode = 0021;
},
{
glyphname = quotedbl;
lastChange = "2018-11-25 04:46:33 +0000";
layers = (
{
layerId = "0D8C0684-5C80-438C-A1B9-8A29192E7ABE";
paths = (
{
closed = 1;
nodes = (
"110 664 OFFCURVE",
"117 664.667 OFFCURVE",
"117 658 CURVE SMOOTH",
"117 511 LINE SMOOTH",
"117 491.498 OFFCURVE",
"90.049 470 OFFCURVE",
"70 470 CURVE SMOOTH",
"63.333 470 OFFCURVE",
"60 473 OFFCURVE",
"60 479 CURVE SMOOTH",
"60 621 LINE SMOOTH",
"60 639.208 OFFCURVE",
"89.829 664 OFFCURVE",
"106 664 CURVE SMOOTH"
);
},
{
closed = 1;
nodes = (
"230.667 664 OFFCURVE",
"239 664.667 OFFCURVE",
"239 658 CURVE SMOOTH",
"239 511 LINE SMOOTH",
"239 491.185 OFFCURVE",
"211.903 470 OFFCURVE",
"192 470 CURVE SMOOTH",
"188 470 OFFCURVE",
"182 472.333 OFFCURVE",
"182 479 CURVE SMOOTH",
"182 621 LINE SMOOTH",
"182 639.208 OFFCURVE",
"211.829 664 OFFCURVE",
"228 664 CURVE SMOOTH"
);
}
);
userData = {
assembly = "PUSHW[ ]\011/* 3 values pushed */
14 5 3 
CALL[ ]\011/* CallFunction */
PUSHW[ ]\011/* 1 value pushed */
14 
SRP0[ ]\011/* SetRefPoint0 */
PUSHW[ ]\011/* 3 values pushed */
32 22 3 
CALL[ ]\011/* CallFunction */
PUSHW[ ]\011/* 1 value pushed */
32 
SRP0[ ]\011/* SetRefPoint0 */
SVTCA[0]\011/* SetFreedomAndProjectionVectorToAxis */
PUSHW[ ]\011/* 1 value pushed */
8 
MDAP[1]\011/* MoveDirectAbsPt */
PUSHW[ ]\011/* 1 value pushed */
26 
MDAP[1]\011/* MoveDirectAbsPt */
PUSHW[ ]\011/* 1 value pushed */
0 
MDAP[1]\011/* MoveDirectAbsPt */
PUSHW[ ]\011/* 1 value pushed */
14 
MDAP[1]\011/* MoveDirectAbsPt */
PUSHW[ ]\011/* 1 value pushed */
17 
MDAP[1]\011/* MoveDirectAbsPt */
PUSHW[ ]\011/* 1 value pushed */
32 
MDAP[1]\011/* MoveDirectAbsPt */
IUP[0]\011/* InterpolateUntPts */
IUP[1]\011/* InterpolateUntPts */";
};
width = 299;
}
);
note = quotedbl;
unicode = 0022;
},
{
glyphname = numbersign;
lastChange = "2018-11-25 04:46:33 +0000";
layers = (
{
layerId = "0D8C0684-5C80-438C-A1B9-8A29192E7ABE";
paths = (
{
closed = 1;
nodes = (
"92 15 LINE",
"148 201 LINE",
"24 201 LINE",
"20 205 OFFCURVE",
"18 209.667 OFFCURVE",
"18 215 CURVE SMOOTH",
"18 228.607 OFFCURVE",
"45.85 260 OFFCURVE",
"59 260 CURVE SMOOTH",
"167 260 LINE",
"210 404 LINE",
"99 404 LINE SMOOTH",
"96.333 404 OFFCURVE",
"92 414.333 OFFCURVE",
"92 417 CURVE SMOOTH",
"92 431.839 OFFCURVE",
"119.892 463 OFFCURVE",
"134 463 CURVE SMOOTH",
"228 463 LINE",
"277 622 LINE",
"283.667 640.667 OFFCURVE",
"301.333 664 OFFCURVE",
"324 664 CURVE SMOOTH",
"330.667 664 OFFCURVE",
"334 660.667 OFFCURVE",
"334 654 CURVE SMOOTH",
"334 652.667 OFFCURVE",
"333.833 651.5 OFFCURVE",
"333.5 650.5 CURVE SMOOTH",
"333.167 649.5 OFFCURVE",
"333 648.667 OFFCURVE",
"333 648 CURVE",
"278 464 LINE",
"413 464 LINE",
"461 622 LINE",
"467.667 640.667 OFFCURVE",
"487 664 OFFCURVE",
"507 664 CURVE SMOOTH",
"514.333 664 OFFCURVE",
"518 660.667 OFFCURVE",
"518 654 CURVE SMOOTH",
"518 648 LINE",
"462 463 LINE",
"586 463 LINE SMOOTH",
"592.667 463 OFFCURVE",
"592 455 OFFCURVE",
"592 451 CURVE SMOOTH",
"592 433.594 OFFCURVE",
"567.812 404 OFFCURVE",
"551 404 CURVE SMOOTH",
"443 404 LINE",
"400 260 LINE",
"512 260 LINE SMOOTH",
"518.667 260 OFFCURVE",
"518 251.667 OFFCURVE",
"518 249 CURVE SMOOTH",
"518 230.635 OFFCURVE",
"494.287 201 OFFCURVE",
"476 201 CURVE SMOOTH",
"383 201 LINE",
"331 33 LINE SMOOTH",
"325.667 17 OFFCURVE",
"305.667 0 OFFCURVE",
"287 0 CURVE SMOOTH",
"280.333 0 OFFCURVE",
"277 4 OFFCURVE",
"277 12 CURVE SMOOTH",
"277 15 LINE",
"332 199 LINE",
"197 199 LINE",
"146 33 LINE SMOOTH",
"140.667 17 OFFCURVE",
"121.667 0 OFFCURVE",
"103 0 CURVE SMOOTH",
"95.667 0 OFFCURVE",
"92 4 OFFCURVE",
"92 12 CURVE SMOOTH"
);
},
{
closed = 1;
nodes = (
"352 262 LINE",
"394 402 LINE",
"259 402 LINE",
"217 262 LINE"
);
}
);
userData = {
assembly = "SVTCA[0]\011/* SetFreedomAndProjectionVectorToAxis */
PUSHW[ ]\011/* 1 value pushed */
40 
MDAP[1]\011/* MoveDirectAbsPt */
PUSHW[ ]\011/* 1 value pushed */
51 
MDAP[1]\011/* MoveDirectAbsPt */
PUSHW[ ]\011/* 1 value pushed */
2 
MDAP[1]\011/* MoveDirectAbsPt */
PUSHW[ ]\011/* 1 value pushed */
11 
MDAP[1]\011/* MoveDirectAbsPt */
PUSHW[ ]\011/* 3 values pushed */
66 6 3 
CALL[ ]\011/* CallFunction */
PUSHW[ ]\011/* 1 value pushed */
66 
SRP0[ ]\011/* SetRefPoint0 */
PUSHW[ ]\011/* 3 values pushed */
44 26 3 
CALL[ ]\011/* CallFunction */
PUSHW[ ]\011/* 1 value pushed */
44 
SRP0[ ]\011/* SetRefPoint0 */
PUSHW[ ]\011/* 1 value pushed */
6 
SRP0[ ]\011/* SetRefPoint0 */
PUSHW[ ]\011/* 1 value pushed */
15 
MDRP[10000]\011/* MoveDirectRelPt */
PUSHW[ ]\011/* 1 value pushed */
15 
MDAP[1]\011/* MoveDirectAbsPt */
PUSHW[ ]\011/* 1 value pushed */
66 
SRP0[ ]\011/* SetRefPoint0 */
PUSHW[ ]\011/* 1 value pushed */
24 
MDRP[10000]\011/* MoveDirectRelPt */
PUSHW[ ]\011/* 1 value pushed */
44 
SRP0[ ]\011/* SetRefPoint0 */
PUSHW[ ]\011/* 1 value pushed */
35 
MDRP[10000]\011/* MoveDirectRelPt */
PUSHW[ ]\011/* 1 value pushed */
35 
MDAP[1]\011/* MoveDirectAbsPt */
PUSHW[ ]\011/* 3 values pushed */
36 26 44 
SRP1[ ]\011/* SetRefPoint1 */
SRP2[ ]\011/* SetRefPoint2 */
IP[ ]\011/* InterpolatePts */
PUSHW[ ]\011/* 1 value pushed */
44 
SRP0[ ]\011/* SetRefPoint0 */
PUSHW[ ]\011/* 1 value pushed */
55 
MDRP[10000]\011/* MoveDirectRelPt */
PUSHW[ ]\011/* 1 value pushed */
55 
MDAP[1]\011/* MoveDirectAbsPt */
PUSHW[ ]\011/* 1 value pushed */
26 
SRP0[ ]\011/* SetRefPoint0 */
PUSHW[ ]\011/* 1 value pushed */
64 
MDRP[10000]\011/* MoveDirectRelPt */
PUSHW[ ]\011/* 1 value pushed */
6 
SRP0[ ]\011/* SetRefPoint0 */
PUSHW[ ]\011/* 1 value pushed */
74 
MDRP[10000]\011/* MoveDirectRelPt */
PUSHW[ ]\011/* 1 value pushed */
74 
MDAP[1]\011/* MoveDirectAbsPt */
PUSHW[ ]\011/* 3 values pushed */
75 6 66 
SRP1[ ]\011/* SetRefPoint1 */
SRP2[ ]\011/* SetRefPoint2 */
IP[ ]\011/* InterpolatePts */
PUSHW[ ]\011/* 1 value pushed */
66 
SRP0[ ]\011/* SetRefPoint0 */
PUSHW[ ]\011/* 1 value pushed */
77 
MDRP[10000]\011/* MoveDirectRelPt */
PUSHW[ ]\011/* 1 value pushed */
77 
MDAP[1]\011/* MoveDirectAbsPt */
PUSHW[ ]\011/* 1 value pushed */
26 
SRP0[ ]\011/* SetRefPoint0 */
PUSHW[ ]\011/* 1 value pushed */
78 
MDRP[10000]\011/* MoveDirectRelPt */
PUSHW[ ]\011/* 1 value pushed */
78 
MDAP[1]\011/* MoveDirectAbsPt */
PUSHW[ ]\011/* 3 values pushed */
79 2 40 
SRP1[ ]\011/* SetRefPoint1 */
SRP2[ ]\011/* SetRefPoint2 */
IP[ ]\011/* InterpolatePts */
IUP[0]\011/* InterpolateUntPts */
IUP[1]\011/* InterpolateUntPts */";
};
width = 611;
}
);
note = numbersign;
unicode = 0023;
},
{
glyphname = dollar;
lastChange = "2018-11-25 04:46:33 +0000";
layers = (
{
layerId = "0D8C0684-5C80-438C-A1B9-8A29192E7ABE";
paths = (
{
closed = 1;
nodes = (
"355.392 86.209 OFFCURVE",
"375 102.901 OFFCURVE",
"375 161 CURVE SMOOTH",
"375 203.667 OFFCURVE",
"334 226.667 OFFCURVE",
"274 252 CURVE",
"272 60 LINE"
);
},
{
closed = 1;
nodes = (
"199.146 531 OFFCURVE",
"142 474.342 OFFCURVE",
"142 433 CURVE SMOOTH",
"142 405 OFFCURVE",
"186 370 OFFCURVE",
"242 338 CURVE",
"240 531 LINE"
);
},
{
closed = 1;
nodes = (
"131 322 LINE SMOOTH",
"108.333 332.667 OFFCURVE",
"80 365.333 OFFCURVE",
"80 412 CURVE SMOOTH",
"80 469.764 OFFCURVE",
"84.051 485.057 OFFCURVE",
"108 512 CURVE SMOOTH",
"146.667 554.667 OFFCURVE",
"190.333 566.667 OFFCURVE",
"241 576 CURVE",
"241 643 LINE SMOOTH",
"241 653.667 OFFCURVE",
"257 666 OFFCURVE",
"277 666 CURVE SMOOTH",
"283.667 666 OFFCURVE",
"287 662.667 OFFCURVE",
"287 656 CURVE SMOOTH",
"287 650.667 OFFCURVE",
"286.167 641.667 OFFCURVE",
"284.5 629 CURVE SMOOTH",
"282.833 616.333 OFFCURVE",
"282 600 OFFCURVE",
"282 580 CURVE",
"302 580 LINE SMOOTH",
"330.651 580 OFFCURVE",
"422 562.772 OFFCURVE",
"422 539 CURVE SMOOTH",
"422 516.45 OFFCURVE",
"398.707 479 OFFCURVE",
"382 479 CURVE SMOOTH",
"376.667 479 OFFCURVE",
"371.667 481.5 OFFCURVE",
"367 486.5 CURVE SMOOTH",
"362.333 491.5 OFFCURVE",
"354.667 501.333 OFFCURVE",
"344 516 CURVE SMOOTH",
"333.333 530.667 OFFCURVE",
"305.333 534 OFFCURVE",
"284 534 CURVE",
"281.333 527.333 OFFCURVE",
"281 515.667 OFFCURVE",
"281 505 CURVE SMOOTH",
"279 319 LINE",
"305.667 304.333 OFFCURVE",
"329.333 294 OFFCURVE",
"372 278 CURVE SMOOTH",
"418.223 260.024 OFFCURVE",
"441 203.603 OFFCURVE",
"441 159 CURVE SMOOTH",
"441 132.431 OFFCURVE",
"407.113 62.196 OFFCURVE",
"386 49 CURVE SMOOTH",
"351.333 26.333 OFFCURVE",
"315.667 17 OFFCURVE",
"273 9 CURVE",
"273 -0.333 OFFCURVE",
"271.333 -29.333 OFFCURVE",
"266 -52 CURVE",
"263.333 -61.333 OFFCURVE",
"253.667 -74 OFFCURVE",
"239 -74 CURVE SMOOTH",
"236.333 -74 OFFCURVE",
"235 -72.333 OFFCURVE",
"235 -69 CURVE SMOOTH",
"235 -65.667 OFFCURVE",
"235.333 -58.833 OFFCURVE",
"236 -48.5 CURVE SMOOTH",
"236.667 -38.167 OFFCURVE",
"237 -20.333 OFFCURVE",
"237 5 CURVE",
"182.333 5 OFFCURVE",
"124.667 19 OFFCURVE",
"98 31 CURVE",
"87.315 36.342 OFFCURVE",
"78 70.619 OFFCURVE",
"78 88 CURVE SMOOTH",
"78 97.333 OFFCURVE",
"83.333 107 OFFCURVE",
"94 107 CURVE SMOOTH",
"97.333 107 OFFCURVE",
"101.333 106 OFFCURVE",
"106 104 CURVE SMOOTH",
"110.667 102 OFFCURVE",
"120.333 97 OFFCURVE",
"135 89 CURVE SMOOTH",
"165.667 71.667 OFFCURVE",
"206.667 56 OFFCURVE",
"224 56 CURVE SMOOTH",
"226.667 56 OFFCURVE",
"231.333 56.667 OFFCURVE",
"238 58 CURVE",
"240 270 LINE"
);
}
);
userData = {
assembly = "PUSHW[ ]\011/* 3 values pushed */
13 103 3 
CALL[ ]\011/* CallFunction */
PUSHW[ ]\011/* 1 value pushed */
13 
SRP0[ ]\011/* SetRefPoint0 */
PUSHW[ ]\011/* 3 values pushed */
49 43 3 
CALL[ ]\011/* CallFunction */
PUSHW[ ]\011/* 1 value pushed */
49 
SRP0[ ]\011/* SetRefPoint0 */
PUSHW[ ]\011/* 3 values pushed */
57 4 3 
CALL[ ]\011/* CallFunction */
PUSHW[ ]\011/* 1 value pushed */
57 
SRP0[ ]\011/* SetRefPoint0 */
NPUSHW[ ]\011/* 27 values pushed */
6 49 22 49 38 49 54 49 70 49 86 49 102 49 118 49 134 49 150 49 166 49 182 49 198 49 13 
DELTAP1[ ]\011/* DeltaExceptionP1 */
NPUSHW[ ]\011/* 5 values pushed */
213 49 229 49 2 
DELTAP1[ ]\011/* DeltaExceptionP1 */
PUSHW[ ]\011/* 1 value pushed */
49 
SRP0[ ]\011/* SetRefPoint0 */
PUSHW[ ]\011/* 1 value pushed */
0 
MDRP[10000]\011/* MoveDirectRelPt */
PUSHW[ ]\011/* 1 value pushed */
0 
MDAP[1]\011/* MoveDirectAbsPt */
PUSHW[ ]\011/* 1 value pushed */
49 
SRP0[ ]\011/* SetRefPoint0 */
PUSHW[ ]\011/* 1 value pushed */
65 
MDRP[10000]\011/* MoveDirectRelPt */
PUSHW[ ]\011/* 1 value pushed */
65 
MDAP[1]\011/* MoveDirectAbsPt */
PUSHW[ ]\011/* 3 values pushed */
1 49 65 
SRP1[ ]\011/* SetRefPoint1 */
SRP2[ ]\011/* SetRefPoint2 */
IP[ ]\011/* InterpolatePts */
NPUSHW[ ]\011/* 5 values pushed */
218 4 234 4 2 
DELTAP1[ ]\011/* DeltaExceptionP1 */
NPUSHW[ ]\011/* 27 values pushed */
9 4 25 4 41 4 57 4 73 4 89 4 105 4 121 4 137 4 153 4 169 4 185 4 201 4 13 
DELTAP1[ ]\011/* DeltaExceptionP1 */
PUSHW[ ]\011/* 1 value pushed */
43 
SRP0[ ]\011/* SetRefPoint0 */
PUSHW[ ]\011/* 1 value pushed */
9 
MDRP[10000]\011/* MoveDirectRelPt */
PUSHW[ ]\011/* 1 value pushed */
9 
MDAP[1]\011/* MoveDirectAbsPt */
PUSHW[ ]\011/* 3 values pushed */
10 43 49 
SRP1[ ]\011/* SetRefPoint1 */
SRP2[ ]\011/* SetRefPoint2 */
IP[ ]\011/* InterpolatePts */
NPUSHW[ ]\011/* 27 values pushed */
6 13 22 13 38 13 54 13 70 13 86 13 102 13 118 13 134 13 150 13 166 13 182 13 198 13 13 
DELTAP1[ ]\011/* DeltaExceptionP1 */
NPUSHW[ ]\011/* 5 values pushed */
213 13 229 13 2 
DELTAP1[ ]\011/* DeltaExceptionP1 */
PUSHW[ ]\011/* 1 value pushed */
43 
SRP0[ ]\011/* SetRefPoint0 */
PUSHW[ ]\011/* 1 value pushed */
18 
MDRP[10000]\011/* MoveDirectRelPt */
PUSHW[ ]\011/* 1 value pushed */
18 
MDAP[1]\011/* MoveDirectAbsPt */
PUSHW[ ]\011/* 1 value pushed */
103 
SRP0[ ]\011/* SetRefPoint0 */
PUSHW[ ]\011/* 1 value pushed */
30 
MDRP[10000]\011/* MoveDirectRelPt */
PUSHW[ ]\011/* 1 value pushed */
30 
MDAP[1]\011/* MoveDirectAbsPt */
PUSHW[ ]\011/* 1 value pushed */
43 
SRP0[ ]\011/* SetRefPoint0 */
PUSHW[ ]\011/* 1 value pushed */
38 
MDRP[10000]\011/* MoveDirectRelPt */
PUSHW[ ]\011/* 1 value pushed */
38 
MDAP[1]\011/* MoveDirectAbsPt */
PUSHW[ ]\011/* 1 value pushed */
43 
SRP0[ ]\011/* SetRefPoint0 */
PUSHW[ ]\011/* 1 value pushed */
41 
MDRP[10000]\011/* MoveDirectRelPt */
PUSHW[ ]\011/* 1 value pushed */
41 
MDAP[1]\011/* MoveDirectAbsPt */
PUSHW[ ]\011/* 1 value pushed */
43 
SRP0[ ]\011/* SetRefPoint0 */
PUSHW[ ]\011/* 1 value pushed */
94 
MDRP[10000]\011/* MoveDirectRelPt */
PUSHW[ ]\011/* 1 value pushed */
94 
MDAP[1]\011/* MoveDirectAbsPt */
PUSHW[ ]\011/* 1 value pushed */
57 
SRP0[ ]\011/* SetRefPoint0 */
PUSHW[ ]\011/* 1 value pushed */
108 
MDRP[11100]\011/* MoveDirectRelPt */
SVTCA[0]\011/* SetFreedomAndProjectionVectorToAxis */
PUSHW[ ]\011/* 1 value pushed */
91 
MDAP[1]\011/* MoveDirectAbsPt */
PUSHW[ ]\011/* 1 value pushed */
41 
MDAP[1]\011/* MoveDirectAbsPt */
PUSHW[ ]\011/* 1 value pushed */
43 
MDAP[1]\011/* MoveDirectAbsPt */
PUSHW[ ]\011/* 3 values pushed */
0 43 91 
SRP1[ ]\011/* SetRefPoint1 */
SRP2[ ]\011/* SetRefPoint2 */
IP[ ]\011/* InterpolatePts */
PUSHW[ ]\011/* 3 values pushed */
1 43 91 
SRP1[ ]\011/* SetRefPoint1 */
SRP2[ ]\011/* SetRefPoint2 */
IP[ ]\011/* InterpolatePts */
PUSHW[ ]\011/* 3 values pushed */
10 43 91 
SRP1[ ]\011/* SetRefPoint1 */
SRP2[ ]\011/* SetRefPoint2 */
IP[ ]\011/* InterpolatePts */
IUP[0]\011/* InterpolateUntPts */
IUP[1]\011/* InterpolateUntPts */";
};
width = 519;
}
);
note = dollar;
unicode = 0024;
},
{
glyphname = percent;
lastChange = "2018-11-25 04:46:33 +0000";
layers = (
{
layerId = "0D8C0684-5C80-438C-A1B9-8A29192E7ABE";
paths = (
{
closed = 1;
nodes = (
"492 185 OFFCURVE",
"508.333 213 OFFCURVE",
"527 229 CURVE SMOOTH",
"580.273 276.126 OFFCURVE",
"606.515 297 OFFCURVE",
"628 297 CURVE SMOOTH",
"661.333 297 OFFCURVE",
"704 290.667 OFFCURVE",
"720 280 CURVE",
"750.728 256.954 OFFCURVE",
"774 202.169 OFFCURVE",
"774 167 CURVE SMOOTH",
"774 144.105 OFFCURVE",
"747.102 87.877 OFFCURVE",
"720 54 CURVE",
"702.801 34.344 OFFCURVE",
"633.673 0 OFFCURVE",
"619 0 CURVE SMOOTH",
"601.667 0 OFFCURVE",
"564.333 16.333 OFFCURVE",
"519 51 CURVE SMOOTH",
"501.667 64.333 OFFCURVE",
"492 98.333 OFFCURVE",
"492 141 CURVE SMOOTH"
);
},
{
closed = 1;
nodes = (
"558 119.667 OFFCURVE",
"558.833 106 OFFCURVE",
"560.5 98 CURVE SMOOTH",
"562.167 90 OFFCURVE",
"564.667 83.667 OFFCURVE",
"568 79 CURVE SMOOTH",
"578.667 64.333 OFFCURVE",
"598.333 58 OFFCURVE",
"617 58 CURVE SMOOTH",
"691.633 58 OFFCURVE",
"722 109.992 OFFCURVE",
"722 153 CURVE SMOOTH",
"722 170.333 OFFCURVE",
"714.667 187.667 OFFCURVE",
"688 213 CURVE SMOOTH",
"665.333 235.667 OFFCURVE",
"639.333 245 OFFCURVE",
"614 245 CURVE SMOOTH",
"568.667 245 OFFCURVE",
"558 220.333 OFFCURVE",
"558 139 CURVE SMOOTH"
);
},
{
closed = 1;
nodes = (
"121 426.667 OFFCURVE",
"123.333 412.333 OFFCURVE",
"128 403 CURVE SMOOTH",
"130.667 397.667 OFFCURVE",
"134 394.167 OFFCURVE",
"138 392.5 CURVE SMOOTH",
"142 390.833 OFFCURVE",
"151 390 OFFCURVE",
"165 390 CURVE SMOOTH",
"212.425 390 OFFCURVE",
"235.05 407.415 OFFCURVE",
"254 446.5 CURVE SMOOTH",
"267.459 474.259 OFFCURVE",
"276 511.771 OFFCURVE",
"276 530 CURVE SMOOTH",
"276 562.885 OFFCURVE",
"237.604 589 OFFCURVE",
"219 589 CURVE SMOOTH",
"206.988 589 OFFCURVE",
"158.011 545.584 OFFCURVE",
"147 533 CURVE",
"132.377 518.377 OFFCURVE",
"121 468.148 OFFCURVE",
"121 446 CURVE SMOOTH"
);
},
{
closed = 1;
nodes = (
"59 521.337 OFFCURVE",
"90.175 564.782 OFFCURVE",
"169 603 CURVE SMOOTH",
"196.31 616.655 OFFCURVE",
"202.06 647 OFFCURVE",
"235 647 CURVE SMOOTH",
"281.943 647 OFFCURVE",
"299.01 583 OFFCURVE",
"395 583 CURVE SMOOTH",
"451.21 583 OFFCURVE",
"533.888 580.333 OFFCURVE",
"555 593 CURVE",
"566.333 601 OFFCURVE",
"574.5 606.5 OFFCURVE",
"579.5 609.5 CURVE SMOOTH",
"584.5 612.5 OFFCURVE",
"588.667 614 OFFCURVE",
"592 614 CURVE SMOOTH",
"596 614 OFFCURVE",
"600.667 613.167 OFFCURVE",
"606 611.5 CURVE SMOOTH",
"611.333 609.833 OFFCURVE",
"620 606.333 OFFCURVE",
"632 601 CURVE SMOOTH",
"638 598.333 OFFCURVE",
"641 593.667 OFFCURVE",
"641 587 CURVE SMOOTH",
"641 583.478 OFFCURVE",
"584.548 525.239 OFFCURVE",
"566 494 CURVE",
"553.823 471.675 OFFCURVE",
"507.207 398.821 OFFCURVE",
"477 352 CURVE SMOOTH",
"447.47 306.229 OFFCURVE",
"396.563 230.454 OFFCURVE",
"381 211 CURVE SMOOTH",
"332.108 149.241 OFFCURVE",
"307.221 101.313 OFFCURVE",
"275 22 CURVE SMOOTH",
"261.667 -8.667 OFFCURVE",
"255.333 -14 OFFCURVE",
"234 -14 CURVE SMOOTH",
"224.407 -14 OFFCURVE",
"183 -10.44 OFFCURVE",
"183 -1 CURVE SMOOTH",
"183 4.333 OFFCURVE",
"185.167 11.333 OFFCURVE",
"189.5 20 CURVE SMOOTH",
"193.833 28.667 OFFCURVE",
"205 44 OFFCURVE",
"223 66 CURVE SMOOTH",
"255 106 OFFCURVE",
"281.5 139.167 OFFCURVE",
"311.5 182.5 CURVE SMOOTH",
"341.5 225.833 OFFCURVE",
"375.333 279.667 OFFCURVE",
"426 361 CURVE SMOOTH",
"460 416.333 OFFCURVE",
"487.167 457.667 OFFCURVE",
"507.5 485 CURVE SMOOTH",
"527.833 512.333 OFFCURVE",
"538 529 OFFCURVE",
"538 535 CURVE SMOOTH",
"538 540.333 OFFCURVE",
"534.667 543 OFFCURVE",
"528 543 CURVE SMOOTH",
"519.333 543 OFFCURVE",
"505 541 OFFCURVE",
"485 537 CURVE SMOOTH",
"465 533 OFFCURVE",
"435 531 OFFCURVE",
"395 531 CURVE SMOOTH",
"353.667 531 OFFCURVE",
"340.667 533.333 OFFCURVE",
"314 544 CURVE",
"312 542 LINE",
"314.667 539.333 OFFCURVE",
"316 531 OFFCURVE",
"316 523 CURVE SMOOTH",
"316 463.23 OFFCURVE",
"305.941 390.435 OFFCURVE",
"262 367 CURVE SMOOTH",
"226 349 OFFCURVE",
"199.167 337.667 OFFCURVE",
"181.5 333 CURVE SMOOTH",
"163.833 328.333 OFFCURVE",
"152 326 OFFCURVE",
"146 326 CURVE SMOOTH",
"133.887 326 OFFCURVE",
"96.139 352.148 OFFCURVE",
"88 363 CURVE",
"59.699 396.962 OFFCURVE",
"59 417.827 OFFCURVE",
"59 471 CURVE SMOOTH"
);
}
);
userData = {
assembly = "PUSHW[ ]\011/* 3 values pushed */
32 0 3 
CALL[ ]\011/* CallFunction */
PUSHW[ ]\011/* 1 value pushed */
32 
SRP0[ ]\011/* SetRefPoint0 */
NPUSHW[ ]\011/* 5 values pushed */
218 0 234 0 2 
DELTAP1[ ]\011/* DeltaExceptionP1 */
NPUSHW[ ]\011/* 27 values pushed */
9 0 25 0 41 0 57 0 73 0 89 0 105 0 121 0 137 0 153 0 169 0 185 0 201 0 13 
DELTAP1[ ]\011/* DeltaExceptionP1 */
SVTCA[0]\011/* SetFreedomAndProjectionVectorToAxis */
PUSHW[ ]\011/* 1 value pushed */
163 
MDAP[1]\011/* MoveDirectAbsPt */
PUSHW[ ]\011/* 1 value pushed */
125 
MDAP[1]\011/* MoveDirectAbsPt */
PUSHW[ ]\011/* 3 values pushed */
35 46 3 
CALL[ ]\011/* CallFunction */
PUSHW[ ]\011/* 1 value pushed */
35 
SRP0[ ]\011/* SetRefPoint0 */
PUSHW[ ]\011/* 3 values pushed */
101 125 163 
SRP1[ ]\011/* SetRefPoint1 */
SRP2[ ]\011/* SetRefPoint2 */
IP[ ]\011/* InterpolatePts */
IUP[0]\011/* InterpolateUntPts */
IUP[1]\011/* InterpolateUntPts */";
};
width = 833;
}
);
note = percent;
unicode = 0025;
},
{
glyphname = ampersand;
lastChange = "2018-11-25 04:46:33 +0000";
layers = (
{
layerId = "0D8C0684-5C80-438C-A1B9-8A29192E7ABE";
paths = (
{
closed = 1;
nodes = (
"156 110.323 OFFCURVE",
"234.532 44 OFFCURVE",
"286 44 CURVE SMOOTH",
"339.333 44 OFFCURVE",
"390.333 84 OFFCURVE",
"439 164 CURVE",
"375 208 LINE SMOOTH",
"336.333 234.667 OFFCURVE",
"277 278.667 OFFCURVE",
"233 316 CURVE",
"181 269.333 OFFCURVE",
"156 216.333 OFFCURVE",
"156 171 CURVE SMOOTH"
);
},
{
closed = 1;
nodes = (
"183 468 OFFCURVE",
"187.833 455.167 OFFCURVE",
"197.5 441.5 CURVE SMOOTH",
"207.167 427.833 OFFCURVE",
"225.333 408.333 OFFCURVE",
"252 383 CURVE",
"294 417 LINE SMOOTH",
"328.667 445 OFFCURVE",
"344 480 OFFCURVE",
"344 504 CURVE SMOOTH",
"344 528.376 OFFCURVE",
"304.873 565 OFFCURVE",
"275 565 CURVE SMOOTH",
"231.895 565 OFFCURVE",
"183 528.952 OFFCURVE",
"183 480 CURVE SMOOTH"
);
},
{
closed = 1;
nodes = (
"84 241.292 OFFCURVE",
"154.603 321.855 OFFCURVE",
"198 345 CURVE",
"146 394 LINE SMOOTH",
"124.667 414 OFFCURVE",
"117 447.667 OFFCURVE",
"117 485 CURVE SMOOTH",
"117 553.063 OFFCURVE",
"216.309 617 OFFCURVE",
"273 617 CURVE SMOOTH",
"323.321 617 OFFCURVE",
"410 573.89 OFFCURVE",
"410 515 CURVE SMOOTH",
"410 459 OFFCURVE",
"369 412 OFFCURVE",
"293 352 CURVE",
"321.527 326.325 OFFCURVE",
"426.035 251.266 OFFCURVE",
"465 229 CURVE",
"472.895 244.79 OFFCURVE",
"483 301.406 OFFCURVE",
"483 320 CURVE SMOOTH",
"483 333.333 OFFCURVE",
"479 344.333 OFFCURVE",
"475 355 CURVE",
"473 359.667 OFFCURVE",
"468.5 363.167 OFFCURVE",
"461.5 365.5 CURVE SMOOTH",
"454.5 367.833 OFFCURVE",
"451 372.333 OFFCURVE",
"451 379 CURVE SMOOTH",
"451 386.333 OFFCURVE",
"457.333 391.333 OFFCURVE",
"470 394 CURVE SMOOTH",
"482.667 396.667 OFFCURVE",
"497.333 398 OFFCURVE",
"514 398 CURVE SMOOTH",
"543.333 398 OFFCURVE",
"549 396.667 OFFCURVE",
"549 378 CURVE SMOOTH",
"549 303.085 OFFCURVE",
"537.592 262.578 OFFCURVE",
"513 197 CURVE",
"557.566 168.738 OFFCURVE",
"623.119 126.847 OFFCURVE",
"658 106.5 CURVE SMOOTH",
"688.901 88.474 OFFCURVE",
"725.083 69 OFFCURVE",
"735 69 CURVE SMOOTH",
"742.333 69 OFFCURVE",
"749 71 OFFCURVE",
"755 75 CURVE SMOOTH",
"761 79 OFFCURVE",
"767 81 OFFCURVE",
"773 81 CURVE SMOOTH",
"782.333 81 OFFCURVE",
"787 77.333 OFFCURVE",
"787 70 CURVE SMOOTH",
"787 50.838 OFFCURVE",
"737.852 -6 OFFCURVE",
"722 -6 CURVE SMOOTH",
"717.333 -6 OFFCURVE",
"709.833 -3 OFFCURVE",
"699.5 3 CURVE SMOOTH",
"689.167 9 OFFCURVE",
"672 19.667 OFFCURVE",
"648 35 CURVE SMOOTH",
"485 137 LINE",
"452.704 72.407 OFFCURVE",
"373.326 19.663 OFFCURVE",
"338 2 CURVE SMOOTH",
"320.667 -6 OFFCURVE",
"293 -7 OFFCURVE",
"277 -7 CURVE SMOOTH",
"258.333 -7 OFFCURVE",
"227.667 -6.333 OFFCURVE",
"213 -1 CURVE",
"173.68 7.738 OFFCURVE",
"84 87.192 OFFCURVE",
"84 182 CURVE SMOOTH"
);
}
);
userData = {
assembly = "PUSHW[ ]\011/* 3 values pushed */
0 31 3 
CALL[ ]\011/* CallFunction */
NPUSHW[ ]\011/* 27 values pushed */
6 0 22 0 38 0 54 0 70 0 86 0 102 0 118 0 134 0 150 0 166 0 182 0 198 0 13 
DELTAP1[ ]\011/* DeltaExceptionP1 */
NPUSHW[ ]\011/* 5 values pushed */
213 0 229 0 2 
DELTAP1[ ]\011/* DeltaExceptionP1 */
PUSHW[ ]\011/* 3 values pushed */
106 31 0 
SRP1[ ]\011/* SetRefPoint1 */
SRP2[ ]\011/* SetRefPoint2 */
IP[ ]\011/* InterpolatePts */
PUSHW[ ]\011/* 1 value pushed */
106 
MDAP[1]\011/* MoveDirectAbsPt */
PUSHW[ ]\011/* 1 value pushed */
14 
MDRP[11100]\011/* MoveDirectRelPt */
SVTCA[0]\011/* SetFreedomAndProjectionVectorToAxis */
PUSHW[ ]\011/* 1 value pushed */
36 
MDAP[1]\011/* MoveDirectAbsPt */
PUSHW[ ]\011/* 1 value pushed */
39 
MDAP[1]\011/* MoveDirectAbsPt */
PUSHW[ ]\011/* 1 value pushed */
51 
MDAP[1]\011/* MoveDirectAbsPt */
PUSHW[ ]\011/* 3 values pushed */
101 19 3 
CALL[ ]\011/* CallFunction */
PUSHW[ ]\011/* 1 value pushed */
101 
SRP0[ ]\011/* SetRefPoint0 */
PUSHW[ ]\011/* 1 value pushed */
39 
SRP0[ ]\011/* SetRefPoint0 */
PUSHW[ ]\011/* 1 value pushed */
9 
MDRP[11100]\011/* MoveDirectRelPt */
IUP[0]\011/* InterpolateUntPts */
IUP[1]\011/* InterpolateUntPts */";
};
width = 832;
}
);
note = ampersand;
unicode = 0026;
},
{
glyphname = quotesingle;
lastChange = "2018-11-25 04:46:33 +0000";
layers = (
{
layerId = "0D8C0684-5C80-438C-A1B9-8A29192E7ABE";
paths = (
{
closed = 1;
nodes = (
"59.667 664 OFFCURVE",
"67 663.667 OFFCURVE",
"67 657 CURVE SMOOTH",
"67 511 LINE SMOOTH",
"67 492.333 OFFCURVE",
"41 470 OFFCURVE",
"21 470 CURVE SMOOTH",
"15.667 470 OFFCURVE",
"10 472.333 OFFCURVE",
"10 479 CURVE SMOOTH",
"10 621 LINE SMOOTH",
"10 639.561 OFFCURVE",
"40.107 664 OFFCURVE",
"57 664 CURVE SMOOTH"
);
}
);
userData = {
assembly = "PUSHW[ ]\011/* 3 values pushed */
13 5 3 
CALL[ ]\011/* CallFunction */
PUSHW[ ]\011/* 1 value pushed */
13 
SRP0[ ]\011/* SetRefPoint0 */
PUSHW[ ]\011/* 1 value pushed */
17 
MDRP[11100]\011/* MoveDirectRelPt */
SVTCA[0]\011/* SetFreedomAndProjectionVectorToAxis */
PUSHW[ ]\011/* 1 value pushed */
9 
MDAP[1]\011/* MoveDirectAbsPt */
PUSHW[ ]\011/* 1 value pushed */
0 
MDAP[1]\011/* MoveDirectAbsPt */
PUSHW[ ]\011/* 1 value pushed */
13 
MDAP[1]\011/* MoveDirectAbsPt */
IUP[0]\011/* InterpolateUntPts */
IUP[1]\011/* InterpolateUntPts */";
};
width = 79;
}
);
note = quotesingle;
unicode = 0027;
},
{
glyphname = parenleft;
lastChange = "2018-11-25 04:46:33 +0000";
layers = (
{
layerId = "0D8C0684-5C80-438C-A1B9-8A29192E7ABE";
paths = (
{
closed = 1;
nodes = (
"66 327.667 OFFCURVE",
"72.333 353.333 OFFCURVE",
"83 376 CURVE",
"108.012 435.404 OFFCURVE",
"157.61 511.674 OFFCURVE",
"244 618 CURVE",
"248 623.333 OFFCURVE",
"251.667 627.333 OFFCURVE",
"253 634 CURVE",
"253.667 640.667 OFFCURVE",
"259.333 644 OFFCURVE",
"270 644 CURVE SMOOTH",
"281.775 644 OFFCURVE",
"311 641.549 OFFCURVE",
"311 629 CURVE SMOOTH",
"311 623 OFFCURVE",
"306.833 617.5 OFFCURVE",
"298.5 612.5 CURVE SMOOTH",
"290.167 607.5 OFFCURVE",
"281.667 598.333 OFFCURVE",
"273 585 CURVE SMOOTH",
"215.667 497 OFFCURVE",
"185.333 442.833 OFFCURVE",
"168 399.5 CURVE SMOOTH",
"150.667 356.167 OFFCURVE",
"148 326.667 OFFCURVE",
"148 288 CURVE SMOOTH",
"148 171.291 OFFCURVE",
"174.476 86.456 OFFCURVE",
"279 -33 CURVE SMOOTH",
"289.758 -45.91 OFFCURVE",
"313 -48.016 OFFCURVE",
"313 -58 CURVE SMOOTH",
"313 -64.667 OFFCURVE",
"299 -83 OFFCURVE",
"291 -83 CURVE SMOOTH",
"280.333 -83 OFFCURVE",
"254.333 -78.667 OFFCURVE",
"245 -68 CURVE SMOOTH",
"188.455 -4.67 OFFCURVE",
"121.424 89.176 OFFCURVE",
"92 140 CURVE SMOOTH",
"70.531 176.803 OFFCURVE",
"66 208.973 OFFCURVE",
"66 289 CURVE SMOOTH"
);
}
);
userData = {
assembly = "PUSHW[ ]\011/* 3 values pushed */
26 0 3 
CALL[ ]\011/* CallFunction */
PUSHW[ ]\011/* 1 value pushed */
26 
SRP0[ ]\011/* SetRefPoint0 */
NPUSHW[ ]\011/* 27 values pushed */
6 26 22 26 38 26 54 26 70 26 86 26 102 26 118 26 134 26 150 26 166 26 182 26 198 26 13 
DELTAP1[ ]\011/* DeltaExceptionP1 */
NPUSHW[ ]\011/* 5 values pushed */
213 26 229 26 2 
DELTAP1[ ]\011/* DeltaExceptionP1 */
SVTCA[0]\011/* SetFreedomAndProjectionVectorToAxis */
PUSHW[ ]\011/* 1 value pushed */
39 
MDAP[1]\011/* MoveDirectAbsPt */
PUSHW[ ]\011/* 1 value pushed */
13 
MDAP[1]\011/* MoveDirectAbsPt */
IUP[0]\011/* InterpolateUntPts */
IUP[1]\011/* InterpolateUntPts */";
};
width = 333;
}
);
note = parenleft;
unicode = 0028;
},
{
glyphname = parenright;
lastChange = "2018-11-25 04:46:33 +0000";
layers = (
{
layerId = "0D8C0684-5C80-438C-A1B9-8A29192E7ABE";
paths = (
{
closed = 1;
nodes = (
"185 326.667 OFFCURVE",
"182.167 356.167 OFFCURVE",
"165.5 399.5 CURVE SMOOTH",
"148.833 442.833 OFFCURVE",
"117.333 497 OFFCURVE",
"60 585 CURVE SMOOTH",
"51.333 598.333 OFFCURVE",
"42.833 607.5 OFFCURVE",
"34.5 612.5 CURVE SMOOTH",
"26.167 617.5 OFFCURVE",
"22 623 OFFCURVE",
"22 629 CURVE SMOOTH",
"22 641.549 OFFCURVE",
"51.225 644 OFFCURVE",
"63 644 CURVE SMOOTH",
"73.667 644 OFFCURVE",
"79.333 640.667 OFFCURVE",
"80 634 CURVE",
"81.333 627.333 OFFCURVE",
"85 623.333 OFFCURVE",
"89 618 CURVE",
"175.39 511.674 OFFCURVE",
"224.988 435.404 OFFCURVE",
"250 376 CURVE",
"260.667 353.333 OFFCURVE",
"267 327.667 OFFCURVE",
"267 289 CURVE SMOOTH",
"267 208.973 OFFCURVE",
"262.469 176.803 OFFCURVE",
"241 140 CURVE SMOOTH",
"211.576 89.176 OFFCURVE",
"144.545 -4.67 OFFCURVE",
"88 -68 CURVE SMOOTH",
"78.667 -78.667 OFFCURVE",
"52.667 -83 OFFCURVE",
"42 -83 CURVE SMOOTH",
"34 -83 OFFCURVE",
"20 -64.667 OFFCURVE",
"20 -58 CURVE SMOOTH",
"20 -48.016 OFFCURVE",
"43.242 -45.91 OFFCURVE",
"54 -33 CURVE SMOOTH",
"158.524 86.456 OFFCURVE",
"185 171.291 OFFCURVE",
"185 288 CURVE SMOOTH"
);
}
);
userData = {
assembly = "PUSHW[ ]\011/* 3 values pushed */
26 0 3 
CALL[ ]\011/* CallFunction */
PUSHW[ ]\011/* 1 value pushed */
26 
SRP0[ ]\011/* SetRefPoint0 */
NPUSHW[ ]\011/* 5 values pushed */
218 0 234 0 2 
DELTAP1[ ]\011/* DeltaExceptionP1 */
NPUSHW[ ]\011/* 27 values pushed */
9 0 25 0 41 0 57 0 73 0 89 0 105 0 121 0 137 0 153 0 169 0 185 0 201 0 13 
DELTAP1[ ]\011/* DeltaExceptionP1 */
PUSHW[ ]\011/* 1 value pushed */
53 
MDRP[11100]\011/* MoveDirectRelPt */
SVTCA[0]\011/* SetFreedomAndProjectionVectorToAxis */
PUSHW[ ]\011/* 1 value pushed */
39 
MDAP[1]\011/* MoveDirectAbsPt */
PUSHW[ ]\011/* 1 value pushed */
13 
MDAP[1]\011/* MoveDirectAbsPt */
IUP[0]\011/* InterpolateUntPts */
IUP[1]\011/* InterpolateUntPts */";
};
width = 333;
}
);
note = parenright;
unicode = 0029;
},
{
glyphname = asterisk;
lastChange = "2018-11-25 04:46:33 +0000";
layers = (
{
layerId = "0D8C0684-5C80-438C-A1B9-8A29192E7ABE";
paths = (
{
closed = 1;
nodes = (
"294.333 287 OFFCURVE",
"286.667 292.333 OFFCURVE",
"278 303 CURVE",
"243.333 340.333 OFFCURVE",
"214.667 380.333 OFFCURVE",
"196 407 CURVE",
"166.913 379.624 OFFCURVE",
"111.216 314.954 OFFCURVE",
"100 300 CURVE",
"96 294 OFFCURVE",
"90 291 OFFCURVE",
"82 291 CURVE SMOOTH",
"76.667 291 OFFCURVE",
"72.333 294 OFFCURVE",
"69 300 CURVE",
"65.304 305.544 OFFCURVE",
"57 332.798 OFFCURVE",
"57 339 CURVE SMOOTH",
"57 343 OFFCURVE",
"60 347.333 OFFCURVE",
"66 352 CURVE SMOOTH",
"161 427 LINE",
"143.347 433.79 OFFCURVE",
"53 473.765 OFFCURVE",
"53 488 CURVE SMOOTH",
"53 493.804 OFFCURVE",
"61.789 521 OFFCURVE",
"67 521 CURVE SMOOTH",
"77.235 521 OFFCURVE",
"111.962 504.013 OFFCURVE",
"133 497 CURVE",
"149 490.333 OFFCURVE",
"171.333 481 OFFCURVE",
"190 477 CURVE",
"192 595 LINE SMOOTH",
"192 605.261 OFFCURVE",
"219.96 617 OFFCURVE",
"229 617 CURVE SMOOTH",
"234.333 617 OFFCURVE",
"238.167 609.833 OFFCURVE",
"240.5 595.5 CURVE SMOOTH",
"242.833 581.167 OFFCURVE",
"244 563 OFFCURVE",
"244 541 CURVE SMOOTH",
"244 523 OFFCURVE",
"243 509.167 OFFCURVE",
"241 499.5 CURVE SMOOTH",
"239 489.833 OFFCURVE",
"238 483.333 OFFCURVE",
"238 480 CURVE SMOOTH",
"238 478 OFFCURVE",
"239 477 OFFCURVE",
"241 477 CURVE SMOOTH",
"243.667 477 OFFCURVE",
"247.333 480 OFFCURVE",
"252 486 CURVE",
"255.307 489.307 OFFCURVE",
"346.397 548 OFFCURVE",
"355 548 CURVE SMOOTH",
"360.333 548 OFFCURVE",
"376 540.333 OFFCURVE",
"376 535 CURVE SMOOTH",
"376 526.73 OFFCURVE",
"354.052 494.052 OFFCURVE",
"347 487 CURVE",
"339 477 OFFCURVE",
"332 470.667 OFFCURVE",
"326 468 CURVE",
"306 457.333 OFFCURVE",
"273 444.667 OFFCURVE",
"241 434 CURVE",
"254.53 413.705 OFFCURVE",
"310.077 341.923 OFFCURVE",
"323 329 CURVE",
"331.667 321 OFFCURVE",
"336 314.333 OFFCURVE",
"336 309 CURVE SMOOTH",
"336 301.313 OFFCURVE",
"308.687 287 OFFCURVE",
"301 287 CURVE SMOOTH"
);
}
);
userData = {
assembly = "PUSHW[ ]\011/* 3 values pushed */
37 45 3 
CALL[ ]\011/* CallFunction */
PUSHW[ ]\011/* 1 value pushed */
37 
SRP0[ ]\011/* SetRefPoint0 */
PUSHW[ ]\011/* 3 values pushed */
12 45 37 
SRP1[ ]\011/* SetRefPoint1 */
SRP2[ ]\011/* SetRefPoint2 */
IP[ ]\011/* InterpolatePts */
PUSHW[ ]\011/* 1 value pushed */
34 
MDRP[10000]\011/* MoveDirectRelPt */
PUSHW[ ]\011/* 1 value pushed */
34 
MDAP[1]\011/* MoveDirectAbsPt */
SVTCA[0]\011/* SetFreedomAndProjectionVectorToAxis */
PUSHW[ ]\011/* 1 value pushed */
40 
MDAP[1]\011/* MoveDirectAbsPt */
PUSHW[ ]\011/* 1 value pushed */
0 
MDAP[1]\011/* MoveDirectAbsPt */
PUSHW[ ]\011/* 1 value pushed */
74 
MDAP[1]\011/* MoveDirectAbsPt */
PUSHW[ ]\011/* 3 values pushed */
12 0 40 
SRP1[ ]\011/* SetRefPoint1 */
SRP2[ ]\011/* SetRefPoint2 */
IP[ ]\011/* InterpolatePts */
PUSHW[ ]\011/* 3 values pushed */
64 0 40 
SRP1[ ]\011/* SetRefPoint1 */
SRP2[ ]\011/* SetRefPoint2 */
IP[ ]\011/* InterpolatePts */
IUP[0]\011/* InterpolateUntPts */
IUP[1]\011/* InterpolateUntPts */";
};
width = 407;
}
);
note = asterisk;
unicode = 002A;
},
{
glyphname = plus;
lastChange = "2018-11-25 04:46:33 +0000";
layers = (
{
layerId = "0D8C0684-5C80-438C-A1B9-8A29192E7ABE";
paths = (
{
closed = 1;
nodes = (
"226 305 LINE",
"10 305 LINE",
"6 310.333 OFFCURVE",
"4 314.667 OFFCURVE",
"4 318 CURVE SMOOTH",
"4 332.839 OFFCURVE",
"31.892 364 OFFCURVE",
"46 364 CURVE SMOOTH",
"226 364 LINE",
"226 541 LINE SMOOTH",
"226 556.704 OFFCURVE",
"259.316 586 OFFCURVE",
"277 586 CURVE SMOOTH",
"278 586 LINE",
"281 583 LINE",
"283.667 581.667 OFFCURVE",
"286 577 OFFCURVE",
"286 577 CURVE",
"286 364 LINE",
"499 364 LINE SMOOTH",
"504.333 364 OFFCURVE",
"504 355.667 OFFCURVE",
"504 353 CURVE SMOOTH",
"504 334.842 OFFCURVE",
"480.022 305 OFFCURVE",
"463 305 CURVE SMOOTH",
"286 305 LINE",
"286 125 LINE SMOOTH",
"286 111.657 OFFCURVE",
"257.455 85 OFFCURVE",
"238 85 CURVE SMOOTH",
"235.333 85 OFFCURVE",
"230 86 OFFCURVE",
"230 86 CURVE",
"226 92 LINE"
);
}
);
userData = {
assembly = "PUSHW[ ]\011/* 3 values pushed */
9 0 3 
CALL[ ]\011/* CallFunction */
PUSHW[ ]\011/* 1 value pushed */
9 
SRP0[ ]\011/* SetRefPoint0 */
PUSHW[ ]\011/* 1 value pushed */
20 
MDRP[10000]\011/* MoveDirectRelPt */
PUSHW[ ]\011/* 1 value pushed */
0 
SRP0[ ]\011/* SetRefPoint0 */
PUSHW[ ]\011/* 1 value pushed */
31 
MDRP[10000]\011/* MoveDirectRelPt */
SVTCA[0]\011/* SetFreedomAndProjectionVectorToAxis */
PUSHW[ ]\011/* 1 value pushed */
25 
MDAP[1]\011/* MoveDirectAbsPt */
PUSHW[ ]\011/* 1 value pushed */
0 
MDAP[1]\011/* MoveDirectAbsPt */
PUSHW[ ]\011/* 1 value pushed */
4 
MDAP[1]\011/* MoveDirectAbsPt */
PUSHW[ ]\011/* 3 values pushed */
20 10 3 
CALL[ ]\011/* CallFunction */
PUSHW[ ]\011/* 1 value pushed */
20 
SRP0[ ]\011/* SetRefPoint0 */
PUSHW[ ]\011/* 1 value pushed */
32 
MDRP[10000]\011/* MoveDirectRelPt */
PUSHW[ ]\011/* 1 value pushed */
10 
SRP0[ ]\011/* SetRefPoint0 */
PUSHW[ ]\011/* 1 value pushed */
40 
MDRP[10000]\011/* MoveDirectRelPt */
IUP[0]\011/* InterpolateUntPts */
IUP[1]\011/* InterpolateUntPts */";
};
width = 510;
}
);
note = plus;
unicode = 002B;
},
{
glyphname = comma;
lastChange = "2018-11-25 04:46:33 +0000";
layers = (
{
layerId = "0D8C0684-5C80-438C-A1B9-8A29192E7ABE";
paths = (
{
closed = 1;
nodes = (
"100 138.951 OFFCURVE",
"148.511 161 OFFCURVE",
"157 161 CURVE SMOOTH",
"166.285 161 OFFCURVE",
"197 145.459 OFFCURVE",
"197 133 CURVE SMOOTH",
"197 120.864 OFFCURVE",
"162.867 45.801 OFFCURVE",
"147 13.5 CURVE SMOOTH",
"130.394 -20.305 OFFCURVE",
"92.775 -95 OFFCURVE",
"77 -95 CURVE SMOOTH",
"66.333 -95 OFFCURVE",
"50 -93 OFFCURVE",
"50 -81 CURVE SMOOTH",
"50 -74.747 OFFCURVE",
"69.183 -18.701 OFFCURVE",
"76.5 5.5 CURVE SMOOTH",
"84.002 30.316 OFFCURVE",
"103 88.511 OFFCURVE",
"103 96 CURVE SMOOTH",
"103 101.333 OFFCURVE",
"102.5 106.667 OFFCURVE",
"101.5 112 CURVE SMOOTH",
"100.5 117.333 OFFCURVE",
"100 122.667 OFFCURVE",
"100 128 CURVE SMOOTH"
);
}
);
userData = {
assembly = "SVTCA[0]\011/* SetFreedomAndProjectionVectorToAxis */
PUSHW[ ]\011/* 1 value pushed */
25 
MDAP[1]\011/* MoveDirectAbsPt */
PUSHW[ ]\011/* 1 value pushed */
13 
MDAP[1]\011/* MoveDirectAbsPt */
IUP[0]\011/* InterpolateUntPts */
IUP[1]\011/* InterpolateUntPts */";
};
width = 278;
}
);
note = comma;
unicode = 002C;
},
{
glyphname = hyphen;
lastChange = "2018-11-25 04:46:33 +0000";
layers = (
{
layerId = "0D8C0684-5C80-438C-A1B9-8A29192E7ABE";
paths = (
{
closed = 1;
nodes = (
"63 270.716 OFFCURVE",
"86.533 315 OFFCURVE",
"108 315 CURVE SMOOTH",
"115.793 315 OFFCURVE",
"159.723 301 OFFCURVE",
"192 301 CURVE SMOOTH",
"212 301 OFFCURVE",
"230.167 302.167 OFFCURVE",
"246.5 304.5 CURVE SMOOTH",
"262.833 306.833 OFFCURVE",
"275 308 OFFCURVE",
"283 308 CURVE SMOOTH",
"294.44 308 OFFCURVE",
"299 284.681 OFFCURVE",
"299 277 CURVE SMOOTH",
"299 270.354 OFFCURVE",
"276.185 249 OFFCURVE",
"266 249 CURVE SMOOTH",
"253.333 249 OFFCURVE",
"233.5 248 OFFCURVE",
"206.5 246 CURVE SMOOTH",
"179.5 244 OFFCURVE",
"142.667 243 OFFCURVE",
"96 243 CURVE SMOOTH",
"77.333 243 OFFCURVE",
"63 246.333 OFFCURVE",
"63 257 CURVE SMOOTH"
);
}
);
userData = {
assembly = "SVTCA[0]\011/* SetFreedomAndProjectionVectorToAxis */
PUSHW[ ]\011/* 1 value pushed */
16 
MDAP[1]\011/* MoveDirectAbsPt */
PUSHW[ ]\011/* 1 value pushed */
24 
MDAP[1]\011/* MoveDirectAbsPt */
PUSHW[ ]\011/* 3 values pushed */
19 3 3 
CALL[ ]\011/* CallFunction */
PUSHW[ ]\011/* 1 value pushed */
19 
SRP0[ ]\011/* SetRefPoint0 */
PUSHW[ ]\011/* 1 value pushed */
3 
SRP0[ ]\011/* SetRefPoint0 */
PUSHW[ ]\011/* 1 value pushed */
6 
MDRP[10000]\011/* MoveDirectRelPt */
PUSHW[ ]\011/* 1 value pushed */
6 
MDAP[1]\011/* MoveDirectAbsPt */
IUP[0]\011/* InterpolateUntPts */
IUP[1]\011/* InterpolateUntPts */";
};
width = 333;
}
);
note = hyphen;
unicode = 002D;
},
{
glyphname = period;
lastChange = "2018-11-25 04:46:33 +0000";
layers = (
{
layerId = "0D8C0684-5C80-438C-A1B9-8A29192E7ABE";
paths = (
{
closed = 1;
nodes = (
"78 57.946 OFFCURVE",
"123.394 104 OFFCURVE",
"137 104 CURVE SMOOTH",
"143.667 104 OFFCURVE",
"154.333 102 OFFCURVE",
"161 98 CURVE SMOOTH",
"177.667 88.667 OFFCURVE",
"188.333 80.833 OFFCURVE",
"193 74.5 CURVE SMOOTH",
"197.667 68.167 OFFCURVE",
"200 63.667 OFFCURVE",
"200 61 CURVE SMOOTH",
"200 39.76 OFFCURVE",
"157.569 0 OFFCURVE",
"143 0 CURVE SMOOTH",
"139.667 0 OFFCURVE",
"134.667 1.167 OFFCURVE",
"128 3.5 CURVE SMOOTH",
"121.333 5.833 OFFCURVE",
"108.333 12.667 OFFCURVE",
"89 24 CURVE SMOOTH",
"81.667 28 OFFCURVE",
"78 35 OFFCURVE",
"78 45 CURVE SMOOTH"
);
}
);
userData = {
assembly = "SVTCA[0]\011/* SetFreedomAndProjectionVectorToAxis */
PUSHW[ ]\011/* 1 value pushed */
13 
MDAP[1]\011/* MoveDirectAbsPt */
PUSHW[ ]\011/* 1 value pushed */
16 
MDAP[1]\011/* MoveDirectAbsPt */
PUSHW[ ]\011/* 1 value pushed */
5 
MDAP[1]\011/* MoveDirectAbsPt */
IUP[0]\011/* InterpolateUntPts */
IUP[1]\011/* InterpolateUntPts */";
};
width = 278;
}
);
note = period;
unicode = 002E;
},
{
glyphname = slash;
lastChange = "2018-11-25 04:46:33 +0000";
layers = (
{
layerId = "0D8C0684-5C80-438C-A1B9-8A29192E7ABE";
paths = (
{
closed = 1;
nodes = (
"-3 -59 OFFCURVE",
"2.333 -50.667 OFFCURVE",
"9 -40 CURVE",
"23.91 -10.179 OFFCURVE",
"82.942 110.881 OFFCURVE",
"108 162.5 CURVE SMOOTH",
"141.333 231.167 OFFCURVE",
"174.333 303 OFFCURVE",
"205 371 CURVE SMOOTH",
"220.333 405 OFFCURVE",
"233.667 435.667 OFFCURVE",
"245 463 CURVE SMOOTH",
"271.213 525.134 OFFCURVE",
"303.635 599.465 OFFCURVE",
"315.5 621.5 CURVE SMOOTH",
"325.949 640.905 OFFCURVE",
"335.596 652 OFFCURVE",
"345 652 CURVE SMOOTH",
"357 652 OFFCURVE",
"374 633.667 OFFCURVE",
"374 623 CURVE SMOOTH",
"374 619.667 OFFCURVE",
"372 615.5 OFFCURVE",
"368 610.5 CURVE SMOOTH",
"364 605.5 OFFCURVE",
"358.333 595.333 OFFCURVE",
"351 580 CURVE SMOOTH",
"287 450.667 OFFCURVE",
"225.833 323.167 OFFCURVE",
"174.5 210.5 CURVE SMOOTH",
"123.167 97.833 OFFCURVE",
"80.667 1 OFFCURVE",
"54 -67 CURVE",
"52.095 -70.811 OFFCURVE",
"29.735 -83 OFFCURVE",
"26 -83 CURVE SMOOTH",
"19.333 -83 OFFCURVE",
"8 -77.667 OFFCURVE",
"4 -75 CURVE",
"-0.667 -72.333 OFFCURVE",
"-3 -68.333 OFFCURVE",
"-3 -63 CURVE SMOOTH"
);
}
);
userData = {
assembly = "SVTCA[0]\011/* SetFreedomAndProjectionVectorToAxis */
PUSHW[ ]\011/* 1 value pushed */
21 
MDAP[1]\011/* MoveDirectAbsPt */
PUSHW[ ]\011/* 1 value pushed */
5 
MDAP[1]\011/* MoveDirectAbsPt */
IUP[0]\011/* InterpolateUntPts */
IUP[1]\011/* InterpolateUntPts */";
};
width = 370;
}
);
note = slash;
unicode = 002F;
},
{
glyphname = zero;
lastChange = "2018-11-25 04:46:33 +0000";
layers = (
{
layerId = "0D8C0684-5C80-438C-A1B9-8A29192E7ABE";
paths = (
{
closed = 1;
nodes = (
"162 262.563 OFFCURVE",
"168.023 212.103 OFFCURVE",
"181.5 168.5 CURVE SMOOTH",
"198.66 112.981 OFFCURVE",
"235.206 64 OFFCURVE",
"296 64 CURVE SMOOTH",
"398.616 64 OFFCURVE",
"431 187.398 OFFCURVE",
"431 299 CURVE SMOOTH",
"431 379.323 OFFCURVE",
"387.459 520 OFFCURVE",
"289 520 CURVE SMOOTH",
"207.638 520 OFFCURVE",
"162 407.821 OFFCURVE",
"162 288 CURVE SMOOTH"
);
},
{
closed = 1;
nodes = (
"90 380.667 OFFCURVE",
"124.5 462.5 OFFCURVE",
"166.5 512.5 CURVE SMOOTH",
"208.5 562.5 OFFCURVE",
"260.667 578 OFFCURVE",
"294 578 CURVE SMOOTH",
"425.155 578 OFFCURVE",
"503 442.625 OFFCURVE",
"503 289 CURVE SMOOTH",
"503 242.699 OFFCURVE",
"484.917 170.741 OFFCURVE",
"453 114 CURVE SMOOTH",
"423.363 61.312 OFFCURVE",
"333.305 0 OFFCURVE",
"271 0 CURVE SMOOTH",
"171.791 0 OFFCURVE",
"90 142.396 OFFCURVE",
"90 246 CURVE SMOOTH"
);
}
);
userData = {
assembly = "PUSHW[ ]\011/* 1 value pushed */
44 
MDAP[1]\011/* MoveDirectAbsPt */
PUSHW[ ]\011/* 1 value pushed */
45 
MDAP[1]\011/* MoveDirectAbsPt */
PUSHW[ ]\011/* 1 value pushed */
44 
SRP0[ ]\011/* SetRefPoint0 */
PUSHW[ ]\011/* 1 value pushed */
22 
MDRP[10000]\011/* MoveDirectRelPt */
PUSHW[ ]\011/* 1 value pushed */
22 
MDAP[1]\011/* MoveDirectAbsPt */
PUSHW[ ]\011/* 1 value pushed */
0 
MDRP[11100]\011/* MoveDirectRelPt */
NPUSHW[ ]\011/* 27 values pushed */
6 0 22 0 38 0 54 0 70 0 86 0 102 0 118 0 134 0 150 0 166 0 182 0 198 0 13 
DELTAP1[ ]\011/* DeltaExceptionP1 */
NPUSHW[ ]\011/* 5 values pushed */
213 0 229 0 2 
DELTAP1[ ]\011/* DeltaExceptionP1 */
PUSHW[ ]\011/* 1 value pushed */
45 
SRP0[ ]\011/* SetRefPoint0 */
PUSHW[ ]\011/* 1 value pushed */
34 
MDRP[11100]\011/* MoveDirectRelPt */
PUSHW[ ]\011/* 1 value pushed */
10 
MDRP[11100]\011/* MoveDirectRelPt */
NPUSHW[ ]\011/* 5 values pushed */
218 10 234 10 2 
DELTAP1[ ]\011/* DeltaExceptionP1 */
NPUSHW[ ]\011/* 27 values pushed */
9 10 25 10 41 10 57 10 73 10 89 10 105 10 121 10 137 10 153 10 169 10 185 10 201 10 13 
DELTAP1[ ]\011/* DeltaExceptionP1 */
SVTCA[0]\011/* SetFreedomAndProjectionVectorToAxis */
PUSHW[ ]\011/* 3 values pushed */
15 27 3 
CALL[ ]\011/* CallFunction */
PUSHW[ ]\011/* 1 value pushed */
15 
SRP0[ ]\011/* SetRefPoint0 */
PUSHW[ ]\011/* 3 values pushed */
39 5 3 
CALL[ ]\011/* CallFunction */
PUSHW[ ]\011/* 1 value pushed */
39 
SRP0[ ]\011/* SetRefPoint0 */
IUP[0]\011/* InterpolateUntPts */
IUP[1]\011/* InterpolateUntPts */";
};
width = 593;
}
);
note = zero;
unicode = 0030;
},
{
glyphname = one;
lastChange = "2018-11-25 04:46:33 +0000";
layers = (
{
layerId = "0D8C0684-5C80-438C-A1B9-8A29192E7ABE";
paths = (
{
closed = 1;
nodes = (
"139 334 OFFCURVE",
"135.667 401.833 OFFCURVE",
"129 442.5 CURVE SMOOTH",
"123.683 474.936 OFFCURVE",
"114.545 494.227 OFFCURVE",
"99 502 CURVE SMOOTH",
"83.667 509.333 OFFCURVE",
"76 518 OFFCURVE",
"76 528 CURVE SMOOTH",
"76 534 OFFCURVE",
"79 538.333 OFFCURVE",
"85 541 CURVE SMOOTH",
"145.178 566.236 OFFCURVE",
"174.566 590 OFFCURVE",
"189 590 CURVE SMOOTH",
"199.667 590 OFFCURVE",
"220 583 OFFCURVE",
"220 575 CURVE SMOOTH",
"220 569.936 OFFCURVE",
"214.715 544.09 OFFCURVE",
"212.5 521.5 CURVE SMOOTH",
"209.716 493.101 OFFCURVE",
"205 399.08 OFFCURVE",
"205 321 CURVE SMOOTH",
"205 203.667 OFFCURVE",
"207.333 126 OFFCURVE",
"210 70 CURVE",
"210 46.756 OFFCURVE",
"235 31.325 OFFCURVE",
"235 21 CURVE SMOOTH",
"235 14.333 OFFCURVE",
"229 9.167 OFFCURVE",
"217 5.5 CURVE SMOOTH",
"205 1.833 OFFCURVE",
"189.333 0 OFFCURVE",
"170 0 CURVE SMOOTH",
"146 0 OFFCURVE",
"130.667 1.333 OFFCURVE",
"124 4 CURVE SMOOTH",
"117.333 6.667 OFFCURVE",
"114 10.667 OFFCURVE",
"114 16 CURVE SMOOTH",
"114 18 OFFCURVE",
"115 20.833 OFFCURVE",
"117 24.5 CURVE SMOOTH",
"119 28.167 OFFCURVE",
"123 33.667 OFFCURVE",
"129 41 CURVE",
"132.956 44.956 OFFCURVE",
"135.158 56.842 OFFCURVE",
"136.5 72.5 CURVE SMOOTH",
"138.224 92.612 OFFCURVE",
"139 158.471 OFFCURVE",
"139 214 CURVE SMOOTH"
);
}
);
userData = {
assembly = "PUSHW[ ]\011/* 3 values pushed */
22 0 3 
CALL[ ]\011/* CallFunction */
PUSHW[ ]\011/* 1 value pushed */
22 
SRP0[ ]\011/* SetRefPoint0 */
NPUSHW[ ]\011/* 5 values pushed */
218 0 234 0 2 
DELTAP1[ ]\011/* DeltaExceptionP1 */
NPUSHW[ ]\011/* 27 values pushed */
9 0 25 0 41 0 57 0 73 0 89 0 105 0 121 0 137 0 153 0 169 0 185 0 201 0 13 
DELTAP1[ ]\011/* DeltaExceptionP1 */
PUSHW[ ]\011/* 1 value pushed */
19 
MDRP[10000]\011/* MoveDirectRelPt */
PUSHW[ ]\011/* 1 value pushed */
19 
MDAP[1]\011/* MoveDirectAbsPt */
SVTCA[0]\011/* SetFreedomAndProjectionVectorToAxis */
PUSHW[ ]\011/* 1 value pushed */
30 
MDAP[1]\011/* MoveDirectAbsPt */
PUSHW[ ]\011/* 1 value pushed */
11 
MDAP[1]\011/* MoveDirectAbsPt */
IUP[0]\011/* InterpolateUntPts */
IUP[1]\011/* InterpolateUntPts */";
};
width = 333;
}
);
note = one;
unicode = 0031;
},
{
glyphname = two;
lastChange = "2018-11-25 04:46:33 +0000";
layers = (
{
layerId = "0D8C0684-5C80-438C-A1B9-8A29192E7ABE";
paths = (
{
closed = 1;
nodes = (
"66 96.541 OFFCURVE",
"104.742 127.32 OFFCURVE",
"149 167 CURVE SMOOTH",
"226.333 235 OFFCURVE",
"272.5 288 OFFCURVE",
"298.5 332 CURVE SMOOTH",
"324.5 376 OFFCURVE",
"331 409.667 OFFCURVE",
"331 439 CURVE SMOOTH",
"331 487 OFFCURVE",
"300.333 531 OFFCURVE",
"231 531 CURVE SMOOTH",
"175 531 OFFCURVE",
"143.667 518 OFFCURVE",
"129 482 CURVE SMOOTH",
"127.667 478.667 OFFCURVE",
"124.667 475.833 OFFCURVE",
"120 473.5 CURVE SMOOTH",
"115.333 471.167 OFFCURVE",
"106.333 470 OFFCURVE",
"93 470 CURVE SMOOTH",
"73.071 470 OFFCURVE",
"64 520.23 OFFCURVE",
"64 537 CURVE SMOOTH",
"64 565.735 OFFCURVE",
"199.779 583 OFFCURVE",
"228 583 CURVE SMOOTH",
"273.493 583 OFFCURVE",
"300.05 577.265 OFFCURVE",
"349 543 CURVE SMOOTH",
"393 512.333 OFFCURVE",
"407 485.333 OFFCURVE",
"407 432 CURVE SMOOTH",
"407 385.899 OFFCURVE",
"381.854 314.14 OFFCURVE",
"330 267 CURVE SMOOTH",
"134 84 LINE SMOOTH",
"130 80 OFFCURVE",
"128 77.333 OFFCURVE",
"128 76 CURVE SMOOTH",
"128 74 OFFCURVE",
"130.333 73 OFFCURVE",
"135 73 CURVE SMOOTH",
"175 73 OFFCURVE",
"214.333 73.5 OFFCURVE",
"253 74.5 CURVE SMOOTH",
"291.667 75.5 OFFCURVE",
"331 76.333 OFFCURVE",
"371 77 CURVE SMOOTH",
"408.634 77 OFFCURVE",
"455.803 98 OFFCURVE",
"463 98 CURVE SMOOTH",
"469.667 98 OFFCURVE",
"477 90.667 OFFCURVE",
"477 80 CURVE SMOOTH",
"477 62.128 OFFCURVE",
"468.189 0 OFFCURVE",
"449 0 CURVE SMOOTH",
"444.333 0 OFFCURVE",
"435 2.667 OFFCURVE",
"421 8 CURVE SMOOTH",
"410.228 12.309 OFFCURVE",
"380.07 15 OFFCURVE",
"348 15 CURVE SMOOTH",
"332.667 15 OFFCURVE",
"312.667 15 OFFCURVE",
"288 15 CURVE SMOOTH",
"182.113 15 OFFCURVE",
"135.22 15.952 OFFCURVE",
"112 6 CURVE",
"108 4.667 OFFCURVE",
"104.333 3.333 OFFCURVE",
"101 2 CURVE SMOOTH",
"97.667 0.667 OFFCURVE",
"94 0 OFFCURVE",
"90 0 CURVE SMOOTH",
"82 0 OFFCURVE",
"66 11.333 OFFCURVE",
"66 22 CURVE SMOOTH",
"66 76 LINE SMOOTH"
);
}
);
userData = {
assembly = "PUSHW[ ]\011/* 3 values pushed */
46 73 3 
CALL[ ]\011/* CallFunction */
PUSHW[ ]\011/* 1 value pushed */
46 
SRP0[ ]\011/* SetRefPoint0 */
NPUSHW[ ]\011/* 5 values pushed */
218 73 234 73 2 
DELTAP1[ ]\011/* DeltaExceptionP1 */
NPUSHW[ ]\011/* 27 values pushed */
9 73 25 73 41 73 57 73 73 73 89 73 105 73 121 73 137 73 153 73 169 73 185 73 201 73 13 
DELTAP1[ ]\011/* DeltaExceptionP1 */
PUSHW[ ]\011/* 1 value pushed */
84 
MDRP[11100]\011/* MoveDirectRelPt */
SVTCA[0]\011/* SetFreedomAndProjectionVectorToAxis */
PUSHW[ ]\011/* 1 value pushed */
4 
MDAP[1]\011/* MoveDirectAbsPt */
PUSHW[ ]\011/* 1 value pushed */
7 
MDAP[1]\011/* MoveDirectAbsPt */
PUSHW[ ]\011/* 1 value pushed */
20 
MDAP[1]\011/* MoveDirectAbsPt */
PUSHW[ ]\011/* 3 values pushed */
33 14 3 
CALL[ ]\011/* CallFunction */
PUSHW[ ]\011/* 1 value pushed */
33 
SRP0[ ]\011/* SetRefPoint0 */
PUSHW[ ]\011/* 3 values pushed */
54 70 3 
CALL[ ]\011/* CallFunction */
PUSHW[ ]\011/* 1 value pushed */
54 
SRP0[ ]\011/* SetRefPoint0 */
PUSHW[ ]\011/* 1 value pushed */
14 
SRP0[ ]\011/* SetRefPoint0 */
PUSHW[ ]\011/* 1 value pushed */
12 
MDRP[10000]\011/* MoveDirectRelPt */
PUSHW[ ]\011/* 1 value pushed */
33 
SRP0[ ]\011/* SetRefPoint0 */
PUSHW[ ]\011/* 1 value pushed */
36 
MDRP[10000]\011/* MoveDirectRelPt */
PUSHW[ ]\011/* 1 value pushed */
36 
MDAP[1]\011/* MoveDirectAbsPt */
IUP[0]\011/* InterpolateUntPts */
IUP[1]\011/* InterpolateUntPts */";
};
width = 519;
}
);
note = two;
unicode = 0032;
},
{
glyphname = three;
lastChange = "2018-11-25 04:46:33 +0000";
layers = (
{
layerId = "0D8C0684-5C80-438C-A1B9-8A29192E7ABE";
paths = (
{
closed = 1;
nodes = (
"265 336.333 OFFCURVE",
"259 323.333 OFFCURVE",
"259 312 CURVE SMOOTH",
"259 300 OFFCURVE",
"268.667 286 OFFCURVE",
"288 270 CURVE SMOOTH",
"344 223 LINE SMOOTH",
"360 209.667 OFFCURVE",
"371 191.667 OFFCURVE",
"371 169 CURVE SMOOTH",
"371 118.333 OFFCURVE",
"348 87.667 OFFCURVE",
"284 37 CURVE",
"261.193 16.727 OFFCURVE",
"141.066 -48 OFFCURVE",
"113 -48 CURVE SMOOTH",
"101.667 -48 OFFCURVE",
"92.667 -44.667 OFFCURVE",
"86 -38 CURVE",
"55 -12 LINE",
"48.333 -6 OFFCURVE",
"45 -1 OFFCURVE",
"45 3 CURVE SMOOTH",
"45 6.333 OFFCURVE",
"47 8.833 OFFCURVE",
"51 10.5 CURVE SMOOTH",
"55 12.167 OFFCURVE",
"64.667 13.667 OFFCURVE",
"80 15 CURVE SMOOTH",
"202.397 26.769 OFFCURVE",
"289 87.75 OFFCURVE",
"289 157 CURVE SMOOTH",
"289 179.667 OFFCURVE",
"276.667 199.333 OFFCURVE",
"234 234 CURVE SMOOTH",
"182 277 LINE SMOOTH",
"170.667 286.333 OFFCURVE",
"165 294 OFFCURVE",
"165 300 CURVE SMOOTH",
"165 302.667 OFFCURVE",
"169 307.833 OFFCURVE",
"177 315.5 CURVE SMOOTH",
"185 323.167 OFFCURVE",
"199.667 339 OFFCURVE",
"221 363 CURVE SMOOTH",
"271.469 419.525 OFFCURVE",
"293 450.995 OFFCURVE",
"293 471 CURVE SMOOTH",
"293 483.695 OFFCURVE",
"244.822 497.545 OFFCURVE",
"219 504 CURVE SMOOTH",
"195.01 509.997 OFFCURVE",
"145.244 520 OFFCURVE",
"133 520 CURVE SMOOTH",
"117.667 520 OFFCURVE",
"107 517.5 OFFCURVE",
"101 512.5 CURVE SMOOTH",
"95 507.5 OFFCURVE",
"89.667 505 OFFCURVE",
"85 505 CURVE SMOOTH",
"72.333 505 OFFCURVE",
"66 513.333 OFFCURVE",
"66 530 CURVE SMOOTH",
"66 549.109 OFFCURVE",
"77.39 602 OFFCURVE",
"96 602 CURVE SMOOTH",
"106.392 602 OFFCURVE",
"142.631 595.353 OFFCURVE",
"177 586.5 CURVE SMOOTH",
"221 575.167 OFFCURVE",
"279.667 558.333 OFFCURVE",
"345 533 CURVE SMOOTH",
"365 525 OFFCURVE",
"375 510.667 OFFCURVE",
"375 490 CURVE SMOOTH",
"375 475.333 OFFCURVE",
"371.667 468.333 OFFCURVE",
"361 455 CURVE SMOOTH",
"277 351 LINE SMOOTH"
);
}
);
userData = {
assembly = "PUSHW[ ]\011/* 3 values pushed */
63 28 3 
CALL[ ]\011/* CallFunction */
PUSHW[ ]\011/* 1 value pushed */
63 
SRP0[ ]\011/* SetRefPoint0 */
PUSHW[ ]\011/* 1 value pushed */
4 
MDRP[10000]\011/* MoveDirectRelPt */
PUSHW[ ]\011/* 1 value pushed */
4 
MDAP[1]\011/* MoveDirectAbsPt */
NPUSHW[ ]\011/* 5 values pushed */
218 28 234 28 2 
DELTAP1[ ]\011/* DeltaExceptionP1 */
NPUSHW[ ]\011/* 27 values pushed */
9 28 25 28 41 28 57 28 73 28 89 28 105 28 121 28 137 28 153 28 169 28 185 28 201 28 13 
DELTAP1[ ]\011/* DeltaExceptionP1 */
PUSHW[ ]\011/* 1 value pushed */
28 
SRP0[ ]\011/* SetRefPoint0 */
PUSHW[ ]\011/* 1 value pushed */
42 
MDRP[10000]\011/* MoveDirectRelPt */
PUSHW[ ]\011/* 1 value pushed */
42 
MDAP[1]\011/* MoveDirectAbsPt */
PUSHW[ ]\011/* 1 value pushed */
63 
SRP0[ ]\011/* SetRefPoint0 */
PUSHW[ ]\011/* 1 value pushed */
72 
MDRP[11100]\011/* MoveDirectRelPt */
SVTCA[0]\011/* SetFreedomAndProjectionVectorToAxis */
PUSHW[ ]\011/* 1 value pushed */
55 
MDAP[1]\011/* MoveDirectAbsPt */
PUSHW[ ]\011/* 1 value pushed */
11 
MDAP[1]\011/* MoveDirectAbsPt */
IUP[0]\011/* InterpolateUntPts */
IUP[1]\011/* InterpolateUntPts */";
};
width = 463;
}
);
note = three;
unicode = 0033;
},
{
glyphname = four;
lastChange = "2018-11-25 04:46:33 +0000";
layers = (
{
layerId = "0D8C0684-5C80-438C-A1B9-8A29192E7ABE";
paths = (
{
closed = 1;
nodes = (
"127 193.667 OFFCURVE",
"132.5 189.333 OFFCURVE",
"143.5 186 CURVE SMOOTH",
"154.5 182.667 OFFCURVE",
"175 181 OFFCURVE",
"205 181 CURVE SMOOTH",
"225 181 OFFCURVE",
"245.167 181.167 OFFCURVE",
"265.5 181.5 CURVE SMOOTH",
"285.833 181.833 OFFCURVE",
"305.667 182 OFFCURVE",
"325 182 CURVE",
"325.667 199.333 OFFCURVE",
"326.333 216.667 OFFCURVE",
"327 234 CURVE SMOOTH",
"327.667 251.333 OFFCURVE",
"328 268.667 OFFCURVE",
"328 286 CURVE SMOOTH",
"328 314 OFFCURVE",
"327.833 342 OFFCURVE",
"327.5 370 CURVE SMOOTH",
"327.167 398 OFFCURVE",
"327 426.333 OFFCURVE",
"327 455 CURVE",
"285.667 417.667 OFFCURVE",
"236 359 OFFCURVE",
"196 307 CURVE SMOOTH",
"164.174 265.627 OFFCURVE",
"127 214.07 OFFCURVE",
"127 199 CURVE SMOOTH"
);
},
{
closed = 1;
nodes = (
"339.667 579.667 OFFCURVE",
"372.333 595 OFFCURVE",
"387 595 CURVE SMOOTH",
"395.667 595 OFFCURVE",
"400 589 OFFCURVE",
"400 577 CURVE SMOOTH",
"400 564.462 OFFCURVE",
"397.149 511.536 OFFCURVE",
"395 460.5 CURVE SMOOTH",
"392.333 397.167 OFFCURVE",
"390 314 OFFCURVE",
"390 230 CURVE SMOOTH",
"390 208 OFFCURVE",
"390.833 194.5 OFFCURVE",
"392.5 189.5 CURVE SMOOTH",
"394.167 184.5 OFFCURVE",
"397.667 182 OFFCURVE",
"403 182 CURVE SMOOTH",
"421.667 182 OFFCURVE",
"440.5 182.167 OFFCURVE",
"459.5 182.5 CURVE SMOOTH",
"478.5 182.833 OFFCURVE",
"497.667 183 OFFCURVE",
"517 183 CURVE SMOOTH",
"524.333 183 OFFCURVE",
"531.667 184.333 OFFCURVE",
"539 187 CURVE SMOOTH",
"546.333 189.667 OFFCURVE",
"551.667 191 OFFCURVE",
"555 191 CURVE SMOOTH",
"561.667 191 OFFCURVE",
"565 184.333 OFFCURVE",
"565 179 CURVE SMOOTH",
"565 163.206 OFFCURVE",
"547.369 115 OFFCURVE",
"527 115 CURVE SMOOTH",
"519.197 115 OFFCURVE",
"470.07 125 OFFCURVE",
"411 125 CURVE SMOOTH",
"388 125 LINE",
"389.179 75.482 OFFCURVE",
"396 -14.919 OFFCURVE",
"396 -18 CURVE SMOOTH",
"396 -30 OFFCURVE",
"385.333 -34 OFFCURVE",
"372 -34 CURVE SMOOTH",
"356.409 -34 OFFCURVE",
"310 -27.845 OFFCURVE",
"310 -8 CURVE SMOOTH",
"310 -5.333 OFFCURVE",
"310.833 -2.833 OFFCURVE",
"312.5 -0.5 CURVE SMOOTH",
"314.167 1.833 OFFCURVE",
"315.333 5.333 OFFCURVE",
"316 10 CURVE",
"318.051 34.614 OFFCURVE",
"325 104.653 OFFCURVE",
"325 117 CURVE SMOOTH",
"325 121 OFFCURVE",
"323.5 124 OFFCURVE",
"320.5 126 CURVE SMOOTH",
"317.5 128 OFFCURVE",
"310.333 129 OFFCURVE",
"299 129 CURVE SMOOTH",
"249.145 129 OFFCURVE",
"98.765 119 OFFCURVE",
"70 119 CURVE SMOOTH",
"59.364 119 OFFCURVE",
"37 144.1 OFFCURVE",
"37 156 CURVE SMOOTH",
"37 173.958 OFFCURVE",
"58.236 200.33 OFFCURVE",
"83 235 CURVE SMOOTH",
"329 565 LINE SMOOTH"
);
}
);
userData = {
assembly = "PUSHW[ ]\011/* 3 values pushed */
80 5 3 
CALL[ ]\011/* CallFunction */
PUSHW[ ]\011/* 1 value pushed */
80 
SRP0[ ]\011/* SetRefPoint0 */
NPUSHW[ ]\011/* 5 values pushed */
218 5 234 5 2 
DELTAP1[ ]\011/* DeltaExceptionP1 */
NPUSHW[ ]\011/* 27 values pushed */
9 5 25 5 41 5 57 5 73 5 89 5 105 5 121 5 137 5 153 5 169 5 185 5 201 5 13 
DELTAP1[ ]\011/* DeltaExceptionP1 */
PUSHW[ ]\011/* 1 value pushed */
5 
SRP0[ ]\011/* SetRefPoint0 */
PUSHW[ ]\011/* 1 value pushed */
8 
MDRP[10000]\011/* MoveDirectRelPt */
PUSHW[ ]\011/* 1 value pushed */
8 
MDAP[1]\011/* MoveDirectAbsPt */
PUSHW[ ]\011/* 1 value pushed */
5 
SRP0[ ]\011/* SetRefPoint0 */
PUSHW[ ]\011/* 1 value pushed */
11 
MDRP[10000]\011/* MoveDirectRelPt */
PUSHW[ ]\011/* 1 value pushed */
11 
MDAP[1]\011/* MoveDirectAbsPt */
PUSHW[ ]\011/* 1 value pushed */
5 
SRP0[ ]\011/* SetRefPoint0 */
PUSHW[ ]\011/* 1 value pushed */
36 
MDRP[10000]\011/* MoveDirectRelPt */
PUSHW[ ]\011/* 1 value pushed */
36 
MDAP[1]\011/* MoveDirectAbsPt */
PUSHW[ ]\011/* 1 value pushed */
80 
SRP0[ ]\011/* SetRefPoint0 */
PUSHW[ ]\011/* 1 value pushed */
52 
MDRP[10000]\011/* MoveDirectRelPt */
PUSHW[ ]\011/* 1 value pushed */
52 
MDAP[1]\011/* MoveDirectAbsPt */
PUSHW[ ]\011/* 1 value pushed */
80 
SRP0[ ]\011/* SetRefPoint0 */
PUSHW[ ]\011/* 1 value pushed */
57 
MDRP[10000]\011/* MoveDirectRelPt */
PUSHW[ ]\011/* 1 value pushed */
57 
MDAP[1]\011/* MoveDirectAbsPt */
SVTCA[0]\011/* SetFreedomAndProjectionVectorToAxis */
PUSHW[ ]\011/* 1 value pushed */
87 
MDAP[1]\011/* MoveDirectAbsPt */
PUSHW[ ]\011/* 1 value pushed */
49 
MDAP[1]\011/* MoveDirectAbsPt */
PUSHW[ ]\011/* 3 values pushed */
14 28 3 
CALL[ ]\011/* CallFunction */
PUSHW[ ]\011/* 1 value pushed */
14 
SRP0[ ]\011/* SetRefPoint0 */
PUSHW[ ]\011/* 3 values pushed */
5 49 87 
SRP1[ ]\011/* SetRefPoint1 */
SRP2[ ]\011/* SetRefPoint2 */
IP[ ]\011/* InterpolatePts */
PUSHW[ ]\011/* 1 value pushed */
11 
MDRP[10000]\011/* MoveDirectRelPt */
PUSHW[ ]\011/* 1 value pushed */
11 
MDAP[1]\011/* MoveDirectAbsPt */
PUSHW[ ]\011/* 1 value pushed */
14 
SRP0[ ]\011/* SetRefPoint0 */
PUSHW[ ]\011/* 1 value pushed */
33 
MDRP[11100]\011/* MoveDirectRelPt */
PUSHW[ ]\011/* 1 value pushed */
28 
SRP0[ ]\011/* SetRefPoint0 */
PUSHW[ ]\011/* 1 value pushed */
57 
MDRP[10000]\011/* MoveDirectRelPt */
PUSHW[ ]\011/* 1 value pushed */
57 
MDAP[1]\011/* MoveDirectAbsPt */
PUSHW[ ]\011/* 1 value pushed */
33 
SRP0[ ]\011/* SetRefPoint0 */
PUSHW[ ]\011/* 1 value pushed */
58 
MDRP[10000]\011/* MoveDirectRelPt */
PUSHW[ ]\011/* 1 value pushed */
58 
MDAP[1]\011/* MoveDirectAbsPt */
PUSHW[ ]\011/* 1 value pushed */
28 
SRP0[ ]\011/* SetRefPoint0 */
PUSHW[ ]\011/* 1 value pushed */
63 
MDRP[10000]\011/* MoveDirectRelPt */
PUSHW[ ]\011/* 1 value pushed */
63 
MDAP[1]\011/* MoveDirectAbsPt */
PUSHW[ ]\011/* 1 value pushed */
14 
SRP0[ ]\011/* SetRefPoint0 */
PUSHW[ ]\011/* 1 value pushed */
74 
MDRP[10000]\011/* MoveDirectRelPt */
PUSHW[ ]\011/* 1 value pushed */
74 
MDAP[1]\011/* MoveDirectAbsPt */
PUSHW[ ]\011/* 1 value pushed */
14 
SRP0[ ]\011/* SetRefPoint0 */
PUSHW[ ]\011/* 1 value pushed */
77 
MDRP[10000]\011/* MoveDirectRelPt */
PUSHW[ ]\011/* 1 value pushed */
77 
MDAP[1]\011/* MoveDirectAbsPt */
IUP[0]\011/* InterpolateUntPts */
IUP[1]\011/* InterpolateUntPts */";
};
width = 593;
}
);
note = four;
unicode = 0034;
},
{
glyphname = five;
lastChange = "2018-11-25 04:46:33 +0000";
layers = (
{
layerId = "0D8C0684-5C80-438C-A1B9-8A29192E7ABE";
paths = (
{
closed = 1;
nodes = (
"405.333 572 OFFCURVE",
"408.667 572.5 OFFCURVE",
"412 573.5 CURVE SMOOTH",
"415.333 574.5 OFFCURVE",
"419.333 575 OFFCURVE",
"424 575 CURVE SMOOTH",
"430.667 575 OFFCURVE",
"438 565.667 OFFCURVE",
"438 559 CURVE SMOOTH",
"438 545.199 OFFCURVE",
"406.636 508 OFFCURVE",
"392 508 CURVE SMOOTH",
"364 508 OFFCURVE",
"337 507.833 OFFCURVE",
"311 507.5 CURVE SMOOTH",
"285 507.167 OFFCURVE",
"261.333 507 OFFCURVE",
"240 507 CURVE SMOOTH",
"225.424 507 OFFCURVE",
"179.878 515 OFFCURVE",
"175 515 CURVE SMOOTH",
"163.308 515 OFFCURVE",
"139 470.741 OFFCURVE",
"139 452 CURVE SMOOTH",
"139 432.655 OFFCURVE",
"170.76 408.494 OFFCURVE",
"227 371 CURVE SMOOTH",
"287 332 LINE SMOOTH",
"354.779 289.325 OFFCURVE",
"370 260.651 OFFCURVE",
"370 191 CURVE SMOOTH",
"370 136.711 OFFCURVE",
"351 105 OFFCURVE",
"285 39 CURVE SMOOTH",
"270.557 24.557 OFFCURVE",
"222.735 -11.631 OFFCURVE",
"189.5 -32.5 CURVE SMOOTH",
"155.113 -54.092 OFFCURVE",
"103.594 -83 OFFCURVE",
"81 -83 CURVE SMOOTH",
"74.333 -83 OFFCURVE",
"69.333 -80 OFFCURVE",
"66 -74 CURVE SMOOTH",
"62.667 -68 OFFCURVE",
"61 -56.333 OFFCURVE",
"61 -39 CURVE SMOOTH",
"61 -7 OFFCURVE",
"65.667 -1 OFFCURVE",
"87 -1 CURVE SMOOTH",
"146.256 -1 OFFCURVE",
"167.261 2.462 OFFCURVE",
"211 38 CURVE SMOOTH",
"260.333 76.667 OFFCURVE",
"298 131.667 OFFCURVE",
"298 173 CURVE SMOOTH",
"298 239.764 OFFCURVE",
"270.983 259.457 OFFCURVE",
"188 324 CURVE SMOOTH",
"97 396 LINE SMOOTH",
"86.333 404.667 OFFCURVE",
"79.667 411.167 OFFCURVE",
"77 415.5 CURVE SMOOTH",
"74.333 419.833 OFFCURVE",
"73 424.333 OFFCURVE",
"73 429 CURVE SMOOTH",
"73 435.667 OFFCURVE",
"77.667 457.333 OFFCURVE",
"87 480 CURVE SMOOTH",
"107 531 LINE SMOOTH",
"116.333 554.333 OFFCURVE",
"123.167 569.333 OFFCURVE",
"127.5 576 CURVE SMOOTH",
"131.833 582.667 OFFCURVE",
"136.333 586 OFFCURVE",
"141 586 CURVE SMOOTH",
"152.918 586 OFFCURVE",
"164.257 572 OFFCURVE",
"193 572 CURVE SMOOTH",
"402 572 LINE SMOOTH"
);
}
);
userData = {
assembly = "PUSHW[ ]\011/* 3 values pushed */
48 22 3 
CALL[ ]\011/* CallFunction */
PUSHW[ ]\011/* 1 value pushed */
48 
SRP0[ ]\011/* SetRefPoint0 */
NPUSHW[ ]\011/* 5 values pushed */
218 22 234 22 2 
DELTAP1[ ]\011/* DeltaExceptionP1 */
NPUSHW[ ]\011/* 27 values pushed */
9 22 25 22 41 22 57 22 73 22 89 22 105 22 121 22 137 22 153 22 169 22 185 22 201 22 13 
DELTAP1[ ]\011/* DeltaExceptionP1 */
PUSHW[ ]\011/* 1 value pushed */
84 
MDRP[11100]\011/* MoveDirectRelPt */
SVTCA[0]\011/* SetFreedomAndProjectionVectorToAxis */
PUSHW[ ]\011/* 1 value pushed */
6 
MDAP[1]\011/* MoveDirectAbsPt */
PUSHW[ ]\011/* 3 values pushed */
30 36 3 
CALL[ ]\011/* CallFunction */
PUSHW[ ]\011/* 1 value pushed */
30 
SRP0[ ]\011/* SetRefPoint0 */
PUSHW[ ]\011/* 3 values pushed */
1 69 3 
CALL[ ]\011/* CallFunction */
PUSHW[ ]\011/* 1 value pushed */
1 
SRP0[ ]\011/* SetRefPoint0 */
PUSHW[ ]\011/* 1 value pushed */
69 
SRP0[ ]\011/* SetRefPoint0 */
PUSHW[ ]\011/* 1 value pushed */
72 
MDRP[10000]\011/* MoveDirectRelPt */
PUSHW[ ]\011/* 1 value pushed */
72 
MDAP[1]\011/* MoveDirectAbsPt */
PUSHW[ ]\011/* 1 value pushed */
1 
SRP0[ ]\011/* SetRefPoint0 */
PUSHW[ ]\011/* 1 value pushed */
80 
MDRP[10000]\011/* MoveDirectRelPt */
PUSHW[ ]\011/* 1 value pushed */
80 
MDAP[1]\011/* MoveDirectAbsPt */
IUP[0]\011/* InterpolateUntPts */
IUP[1]\011/* InterpolateUntPts */";
};
width = 481;
}
);
note = five;
unicode = 0035;
},
{
glyphname = six;
lastChange = "2018-11-25 04:46:33 +0000";
layers = (
{
layerId = "0D8C0684-5C80-438C-A1B9-8A29192E7ABE";
paths = (
{
closed = 1;
nodes = (
"84 311.333 OFFCURVE",
"110.5 371.167 OFFCURVE",
"148.5 426.5 CURVE SMOOTH",
"167.5 454.167 OFFCURVE",
"188.5 480.167 OFFCURVE",
"211.5 504.5 CURVE SMOOTH",
"244.182 539.076 OFFCURVE",
"340.171 627 OFFCURVE",
"374 627 CURVE SMOOTH",
"396.582 627 OFFCURVE",
"455 622.202 OFFCURVE",
"455 604 CURVE SMOOTH",
"455 592.308 OFFCURVE",
"306.387 528.484 OFFCURVE",
"290 508 CURVE SMOOTH",
"202.678 403.699 OFFCURVE",
"160 321.013 OFFCURVE",
"160 220 CURVE SMOOTH",
"160 135.742 OFFCURVE",
"207.444 52 OFFCURVE",
"295 52 CURVE SMOOTH",
"380.685 52 OFFCURVE",
"414 105.072 OFFCURVE",
"414 168 CURVE SMOOTH",
"414 254.667 OFFCURVE",
"377.667 298 OFFCURVE",
"305 298 CURVE SMOOTH",
"297 298 OFFCURVE",
"286.833 296.5 OFFCURVE",
"274.5 293.5 CURVE SMOOTH",
"262.167 290.5 OFFCURVE",
"252.333 289 OFFCURVE",
"245 289 CURVE SMOOTH",
"238.333 289 OFFCURVE",
"229 294.333 OFFCURVE",
"229 305 CURVE SMOOTH",
"229 321.365 OFFCURVE",
"287.573 350 OFFCURVE",
"306 350 CURVE SMOOTH",
"447.378 350 OFFCURVE",
"490 260.883 OFFCURVE",
"490 170 CURVE SMOOTH",
"490 79.177 OFFCURVE",
"390.449 0 OFFCURVE",
"300 0 CURVE SMOOTH",
"234.468 0 OFFCURVE",
"148.017 53.968 OFFCURVE",
"123 101.5 CURVE SMOOTH",
"94.931 154.832 OFFCURVE",
"84 210.839 OFFCURVE",
"84 254 CURVE SMOOTH"
);
}
);
userData = {
assembly = "PUSHW[ ]\011/* 1 value pushed */
62 
MDAP[1]\011/* MoveDirectAbsPt */
PUSHW[ ]\011/* 1 value pushed */
63 
MDAP[1]\011/* MoveDirectAbsPt */
PUSHW[ ]\011/* 1 value pushed */
62 
SRP0[ ]\011/* SetRefPoint0 */
PUSHW[ ]\011/* 1 value pushed */
0 
MDRP[10000]\011/* MoveDirectRelPt */
PUSHW[ ]\011/* 1 value pushed */
0 
MDAP[1]\011/* MoveDirectAbsPt */
PUSHW[ ]\011/* 1 value pushed */
63 
SRP0[ ]\011/* SetRefPoint0 */
PUSHW[ ]\011/* 1 value pushed */
12 
MDRP[11100]\011/* MoveDirectRelPt */
PUSHW[ ]\011/* 1 value pushed */
30 
MDRP[11100]\011/* MoveDirectRelPt */
NPUSHW[ ]\011/* 5 values pushed */
218 30 234 30 2 
DELTAP1[ ]\011/* DeltaExceptionP1 */
NPUSHW[ ]\011/* 27 values pushed */
9 30 25 30 41 30 57 30 73 30 89 30 105 30 121 30 137 30 153 30 169 30 185 30 201 30 13 
DELTAP1[ ]\011/* DeltaExceptionP1 */
PUSHW[ ]\011/* 1 value pushed */
0 
SRP0[ ]\011/* SetRefPoint0 */
PUSHW[ ]\011/* 1 value pushed */
40 
MDRP[11100]\011/* MoveDirectRelPt */
NPUSHW[ ]\011/* 27 values pushed */
6 40 22 40 38 40 54 40 70 40 86 40 102 40 118 40 134 40 150 40 166 40 182 40 198 40 13 
DELTAP1[ ]\011/* DeltaExceptionP1 */
NPUSHW[ ]\011/* 5 values pushed */
213 40 229 40 2 
DELTAP1[ ]\011/* DeltaExceptionP1 */
SVTCA[0]\011/* SetFreedomAndProjectionVectorToAxis */
PUSHW[ ]\011/* 1 value pushed */
55 
MDAP[1]\011/* MoveDirectAbsPt */
PUSHW[ ]\011/* 3 values pushed */
35 7 3 
CALL[ ]\011/* CallFunction */
PUSHW[ ]\011/* 1 value pushed */
35 
SRP0[ ]\011/* SetRefPoint0 */
PUSHW[ ]\011/* 3 values pushed */
17 28 3 
CALL[ ]\011/* CallFunction */
PUSHW[ ]\011/* 1 value pushed */
17 
SRP0[ ]\011/* SetRefPoint0 */
IUP[0]\011/* InterpolateUntPts */
IUP[1]\011/* InterpolateUntPts */";
};
width = 574;
}
);
note = six;
unicode = 0036;
},
{
glyphname = seven;
lastChange = "2018-11-25 04:46:33 +0000";
layers = (
{
layerId = "0D8C0684-5C80-438C-A1B9-8A29192E7ABE";
paths = (
{
closed = 1;
nodes = (
"356.667 572 OFFCURVE",
"367.5 573.167 OFFCURVE",
"376.5 575.5 CURVE SMOOTH",
"385.5 577.833 OFFCURVE",
"394.333 579 OFFCURVE",
"403 579 CURVE SMOOTH",
"414.922 579 OFFCURVE",
"432 547.565 OFFCURVE",
"432 537 CURVE SMOOTH",
"432 529 OFFCURVE",
"423.667 518 OFFCURVE",
"413 502 CURVE",
"391.667 472.667 OFFCURVE",
"360.833 421.833 OFFCURVE",
"329.5 362.5 CURVE SMOOTH",
"313.833 332.833 OFFCURVE",
"298.333 301.833 OFFCURVE",
"283 269.5 CURVE SMOOTH",
"250.58 201.135 OFFCURVE",
"201 76.024 OFFCURVE",
"201 25 CURVE SMOOTH",
"201 9.97 OFFCURVE",
"165.22 0 OFFCURVE",
"153 0 CURVE SMOOTH",
"141.16 0 OFFCURVE",
"91 11.506 OFFCURVE",
"91 28 CURVE SMOOTH",
"91 37.333 OFFCURVE",
"96.167 48.667 OFFCURVE",
"106.5 62 CURVE SMOOTH",
"116.833 75.333 OFFCURVE",
"129.667 96 OFFCURVE",
"145 124 CURVE SMOOTH",
"327 467 LINE SMOOTH",
"335.667 483 OFFCURVE",
"341.167 493.667 OFFCURVE",
"343.5 499 CURVE SMOOTH",
"345.833 504.333 OFFCURVE",
"347 508.333 OFFCURVE",
"347 511 CURVE SMOOTH",
"347 514.333 OFFCURVE",
"345.667 516 OFFCURVE",
"343 516 CURVE SMOOTH",
"340.333 516 OFFCURVE",
"334.333 514 OFFCURVE",
"325 510 CURVE",
"313.92 502.613 OFFCURVE",
"240.787 502 OFFCURVE",
"172 502 CURVE SMOOTH",
"104 502 OFFCURVE",
"71.667 504.333 OFFCURVE",
"41 507 CURVE",
"25.144 507 OFFCURVE",
"22 534.284 OFFCURVE",
"22 546 CURVE SMOOTH",
"22 556.237 OFFCURVE",
"34.491 596 OFFCURVE",
"45 596 CURVE SMOOTH",
"59.903 596 OFFCURVE",
"67.641 572 OFFCURVE",
"94 572 CURVE SMOOTH",
"344 572 LINE SMOOTH"
);
}
);
userData = {
assembly = "SVTCA[0]\011/* SetFreedomAndProjectionVectorToAxis */
PUSHW[ ]\011/* 1 value pushed */
6 
MDAP[1]\011/* MoveDirectAbsPt */
PUSHW[ ]\011/* 1 value pushed */
40 
MDAP[1]\011/* MoveDirectAbsPt */
PUSHW[ ]\011/* 3 values pushed */
1 19 3 
CALL[ ]\011/* CallFunction */
PUSHW[ ]\011/* 1 value pushed */
1 
SRP0[ ]\011/* SetRefPoint0 */
PUSHW[ ]\011/* 1 value pushed */
19 
SRP0[ ]\011/* SetRefPoint0 */
PUSHW[ ]\011/* 1 value pushed */
16 
MDRP[10000]\011/* MoveDirectRelPt */
PUSHW[ ]\011/* 1 value pushed */
16 
MDAP[1]\011/* MoveDirectAbsPt */
PUSHW[ ]\011/* 1 value pushed */
1 
SRP0[ ]\011/* SetRefPoint0 */
PUSHW[ ]\011/* 1 value pushed */
60 
MDRP[10000]\011/* MoveDirectRelPt */
PUSHW[ ]\011/* 1 value pushed */
60 
MDAP[1]\011/* MoveDirectAbsPt */
IUP[0]\011/* InterpolateUntPts */
IUP[1]\011/* InterpolateUntPts */";
};
width = 463;
}
);
note = seven;
unicode = 0037;
},
{
glyphname = eight;
lastChange = "2018-11-25 04:46:33 +0000";
layers = (
{
layerId = "0D8C0684-5C80-438C-A1B9-8A29192E7ABE";
paths = (
{
closed = 1;
nodes = (
"163 69.659 OFFCURVE",
"220.636 38 OFFCURVE",
"276 38 CURVE SMOOTH",
"326.717 38 OFFCURVE",
"377 97.733 OFFCURVE",
"377 149 CURVE SMOOTH",
"377 200.318 OFFCURVE",
"319.886 249.729 OFFCURVE",
"263 273 CURVE",
"192.333 218.333 OFFCURVE",
"163 176.667 OFFCURVE",
"163 126 CURVE SMOOTH"
);
},
{
closed = 1;
nodes = (
"144.339 344.691 OFFCURVE",
"113 381.361 OFFCURVE",
"113 427 CURVE SMOOTH",
"113 473.949 OFFCURVE",
"180.06 549 OFFCURVE",
"209 549 CURVE SMOOTH",
"215.93 549 OFFCURVE",
"238 539.689 OFFCURVE",
"238 533 CURVE SMOOTH",
"238 521 OFFCURVE",
"234.333 515 OFFCURVE",
"229 511 CURVE",
"198.333 485.667 OFFCURVE",
"185 465.667 OFFCURVE",
"185 443 CURVE SMOOTH",
"185 394.36 OFFCURVE",
"200.398 378.081 OFFCURVE",
"270 334 CURVE",
"305.333 366 OFFCURVE",
"329.5 392.333 OFFCURVE",
"342.5 413 CURVE SMOOTH",
"355.5 433.667 OFFCURVE",
"362 452.333 OFFCURVE",
"362 469 CURVE SMOOTH",
"362 499.667 OFFCURVE",
"356.333 524 OFFCURVE",
"339 540 CURVE",
"328.333 550.667 OFFCURVE",
"294 555.333 OFFCURVE",
"270 558 CURVE",
"263.333 558 OFFCURVE",
"259 563.667 OFFCURVE",
"259 569 CURVE SMOOTH",
"259 575.667 OFFCURVE",
"273 597 OFFCURVE",
"281 605 CURVE",
"290.333 613 OFFCURVE",
"301 617 OFFCURVE",
"313 617 CURVE SMOOTH",
"378.235 617 OFFCURVE",
"438 542.489 OFFCURVE",
"438 485 CURVE SMOOTH",
"438 442.333 OFFCURVE",
"397 381 OFFCURVE",
"313 317 CURVE",
"406.799 260.227 OFFCURVE",
"443 231.276 OFFCURVE",
"443 147 CURVE SMOOTH",
"443 70.248 OFFCURVE",
"351.357 -7 OFFCURVE",
"267 -7 CURVE SMOOTH",
"239.944 -7 OFFCURVE",
"166.607 -1.672 OFFCURVE",
"137 23 CURVE SMOOTH",
"107.667 47 OFFCURVE",
"87 90.333 OFFCURVE",
"87 121 CURVE SMOOTH",
"87 155.213 OFFCURVE",
"122.596 215.019 OFFCURVE",
"147 234 CURVE SMOOTH",
"223 293 LINE"
);
}
);
userData = {
assembly = "PUSHW[ ]\011/* 3 values pushed */
0 24 3 
CALL[ ]\011/* CallFunction */
PUSHW[ ]\011/* 3 values pushed */
37 64 3 
CALL[ ]\011/* CallFunction */
PUSHW[ ]\011/* 1 value pushed */
37 
SRP0[ ]\011/* SetRefPoint0 */
NPUSHW[ ]\011/* 27 values pushed */
6 0 22 0 38 0 54 0 70 0 86 0 102 0 118 0 134 0 150 0 166 0 182 0 198 0 13 
DELTAP1[ ]\011/* DeltaExceptionP1 */
NPUSHW[ ]\011/* 5 values pushed */
213 0 229 0 2 
DELTAP1[ ]\011/* DeltaExceptionP1 */
PUSHW[ ]\011/* 1 value pushed */
8 
MDRP[11100]\011/* MoveDirectRelPt */
PUSHW[ ]\011/* 3 values pushed */
18 24 37 
SRP1[ ]\011/* SetRefPoint1 */
SRP2[ ]\011/* SetRefPoint2 */
IP[ ]\011/* InterpolatePts */
PUSHW[ ]\011/* 3 values pushed */
42 24 37 
SRP1[ ]\011/* SetRefPoint1 */
SRP2[ ]\011/* SetRefPoint2 */
IP[ ]\011/* InterpolatePts */
PUSHW[ ]\011/* 1 value pushed */
37 
SRP0[ ]\011/* SetRefPoint0 */
PUSHW[ ]\011/* 1 value pushed */
45 
MDRP[10000]\011/* MoveDirectRelPt */
PUSHW[ ]\011/* 1 value pushed */
45 
MDAP[1]\011/* MoveDirectAbsPt */
NPUSHW[ ]\011/* 5 values pushed */
218 64 234 64 2 
DELTAP1[ ]\011/* DeltaExceptionP1 */
NPUSHW[ ]\011/* 27 values pushed */
9 64 25 64 41 64 57 64 73 64 89 64 105 64 121 64 137 64 153 64 169 64 185 64 201 64 13 
DELTAP1[ ]\011/* DeltaExceptionP1 */
PUSHW[ ]\011/* 3 values pushed */
88 24 0 
SRP1[ ]\011/* SetRefPoint1 */
SRP2[ ]\011/* SetRefPoint2 */
IP[ ]\011/* InterpolatePts */
PUSHW[ ]\011/* 1 value pushed */
88 
MDAP[1]\011/* MoveDirectAbsPt */
PUSHW[ ]\011/* 1 value pushed */
72 
MDRP[11100]\011/* MoveDirectRelPt */
PUSHW[ ]\011/* 1 value pushed */
37 
SRP0[ ]\011/* SetRefPoint0 */
PUSHW[ ]\011/* 1 value pushed */
94 
MDRP[11100]\011/* MoveDirectRelPt */
SVTCA[0]\011/* SetFreedomAndProjectionVectorToAxis */
PUSHW[ ]\011/* 1 value pushed */
50 
MDAP[1]\011/* MoveDirectAbsPt */
PUSHW[ ]\011/* 3 values pushed */
13 32 3 
CALL[ ]\011/* CallFunction */
PUSHW[ ]\011/* 1 value pushed */
13 
SRP0[ ]\011/* SetRefPoint0 */
IUP[0]\011/* InterpolateUntPts */
IUP[1]\011/* InterpolateUntPts */";
};
width = 556;
}
);
note = eight;
unicode = 0038;
},
{
glyphname = nine;
lastChange = "2018-11-25 04:46:33 +0000";
layers = (
{
layerId = "0D8C0684-5C80-438C-A1B9-8A29192E7ABE";
paths = (
{
closed = 1;
nodes = (
"76 464.667 OFFCURVE",
"92.333 508.333 OFFCURVE",
"151 555 CURVE SMOOTH",
"176.333 575 OFFCURVE",
"216 589 OFFCURVE",
"272 589 CURVE SMOOTH",
"339.051 589 OFFCURVE",
"374.93 584.07 OFFCURVE",
"413 546 CURVE SMOOTH",
"449.128 509.872 OFFCURVE",
"480 448.872 OFFCURVE",
"480 412 CURVE SMOOTH",
"480 373.301 OFFCURVE",
"465.251 310.376 OFFCURVE",
"435 265 CURVE SMOOTH",
"405.355 220.533 OFFCURVE",
"338.101 114.201 OFFCURVE",
"319 76 CURVE SMOOTH",
"308.595 55.19 OFFCURVE",
"276.067 -7.311 OFFCURVE",
"259 -13 CURVE",
"248.526 -18.237 OFFCURVE",
"203.537 -26 OFFCURVE",
"194 -26 CURVE SMOOTH",
"183.333 -26 OFFCURVE",
"178 -22.333 OFFCURVE",
"178 -15 CURVE SMOOTH",
"178 -12.333 OFFCURVE",
"179.833 -9.167 OFFCURVE",
"183.5 -5.5 CURVE SMOOTH",
"187.167 -1.833 OFFCURVE",
"191.667 3.333 OFFCURVE",
"197 10 CURVE",
"257 94 OFFCURVE",
"298.5 154.333 OFFCURVE",
"328.5 201 CURVE SMOOTH",
"343.5 224.333 OFFCURVE",
"355.5 245 OFFCURVE",
"364.5 263 CURVE SMOOTH",
"390.153 314.307 OFFCURVE",
"398 352.783 OFFCURVE",
"398 402 CURVE SMOOTH",
"398 454.129 OFFCURVE",
"364.628 537 OFFCURVE",
"275 537 CURVE SMOOTH",
"213.917 537 OFFCURVE",
"152 488.746 OFFCURVE",
"152 412 CURVE SMOOTH",
"152 355.657 OFFCURVE",
"183.964 317 OFFCURVE",
"266 317 CURVE SMOOTH",
"274.667 317 OFFCURVE",
"283.333 317.667 OFFCURVE",
"292 319 CURVE SMOOTH",
"300.667 320.333 OFFCURVE",
"309.667 321 OFFCURVE",
"319 321 CURVE SMOOTH",
"323 321 OFFCURVE",
"329 318.333 OFFCURVE",
"329 313 CURVE SMOOTH",
"329 309.667 OFFCURVE",
"327.333 305.333 OFFCURVE",
"324 300 CURVE SMOOTH",
"320.667 294.667 OFFCURVE",
"313.333 286.667 OFFCURVE",
"302 276 CURVE SMOOTH",
"278.104 252.104 OFFCURVE",
"257.259 247 OFFCURVE",
"211 247 CURVE SMOOTH",
"159.559 247 OFFCURVE",
"76 339.994 OFFCURVE",
"76 414 CURVE SMOOTH"
);
}
);
userData = {
assembly = "PUSHW[ ]\011/* 1 value pushed */
81 
MDAP[1]\011/* MoveDirectAbsPt */
PUSHW[ ]\011/* 1 value pushed */
82 
MDAP[1]\011/* MoveDirectAbsPt */
PUSHW[ ]\011/* 1 value pushed */
81 
SRP0[ ]\011/* SetRefPoint0 */
PUSHW[ ]\011/* 1 value pushed */
0 
MDRP[10000]\011/* MoveDirectRelPt */
PUSHW[ ]\011/* 1 value pushed */
0 
MDAP[1]\011/* MoveDirectAbsPt */
PUSHW[ ]\011/* 1 value pushed */
24 
MDRP[11100]\011/* MoveDirectRelPt */
NPUSHW[ ]\011/* 27 values pushed */
6 24 22 24 38 24 54 24 70 24 86 24 102 24 118 24 134 24 150 24 166 24 182 24 198 24 13 
DELTAP1[ ]\011/* DeltaExceptionP1 */
NPUSHW[ ]\011/* 5 values pushed */
213 24 229 24 2 
DELTAP1[ ]\011/* DeltaExceptionP1 */
PUSHW[ ]\011/* 1 value pushed */
82 
SRP0[ ]\011/* SetRefPoint0 */
PUSHW[ ]\011/* 1 value pushed */
65 
MDRP[11100]\011/* MoveDirectRelPt */
PUSHW[ ]\011/* 1 value pushed */
34 
MDRP[11100]\011/* MoveDirectRelPt */
NPUSHW[ ]\011/* 5 values pushed */
218 34 234 34 2 
DELTAP1[ ]\011/* DeltaExceptionP1 */
NPUSHW[ ]\011/* 27 values pushed */
9 34 25 34 41 34 57 34 73 34 89 34 105 34 121 34 137 34 153 34 169 34 185 34 201 34 13 
DELTAP1[ ]\011/* DeltaExceptionP1 */
PUSHW[ ]\011/* 1 value pushed */
24 
SRP0[ ]\011/* SetRefPoint0 */
PUSHW[ ]\011/* 1 value pushed */
78 
MDRP[10000]\011/* MoveDirectRelPt */
PUSHW[ ]\011/* 1 value pushed */
78 
MDAP[1]\011/* MoveDirectAbsPt */
SVTCA[0]\011/* SetFreedomAndProjectionVectorToAxis */
PUSHW[ ]\011/* 1 value pushed */
46 
MDAP[1]\011/* MoveDirectAbsPt */
PUSHW[ ]\011/* 3 values pushed */
75 29 3 
CALL[ ]\011/* CallFunction */
PUSHW[ ]\011/* 1 value pushed */
75 
SRP0[ ]\011/* SetRefPoint0 */
PUSHW[ ]\011/* 3 values pushed */
19 5 3 
CALL[ ]\011/* CallFunction */
PUSHW[ ]\011/* 1 value pushed */
19 
SRP0[ ]\011/* SetRefPoint0 */
PUSHW[ ]\011/* 1 value pushed */
16 
MDRP[10000]\011/* MoveDirectRelPt */
PUSHW[ ]\011/* 1 value pushed */
16 
MDAP[1]\011/* MoveDirectAbsPt */
IUP[0]\011/* InterpolateUntPts */
IUP[1]\011/* InterpolateUntPts */";
};
width = 556;
}
);
note = nine;
unicode = 0039;
},
{
glyphname = colon;
lastChange = "2018-11-25 04:46:33 +0000";
layers = (
{
layerId = "0D8C0684-5C80-438C-A1B9-8A29192E7ABE";
paths = (
{
closed = 1;
nodes = (
"72 68.078 OFFCURVE",
"127.383 112 OFFCURVE",
"141 112 CURVE SMOOTH",
"144.333 112 OFFCURVE",
"147.333 110.833 OFFCURVE",
"150 108.5 CURVE SMOOTH",
"152.667 106.167 OFFCURVE",
"156.667 101.333 OFFCURVE",
"162 94 CURVE SMOOTH",
"173.333 78.667 OFFCURVE",
"180.5 68.667 OFFCURVE",
"183.5 64 CURVE SMOOTH",
"186.5 59.333 OFFCURVE",
"188 55.333 OFFCURVE",
"188 52 CURVE SMOOTH",
"188 32.432 OFFCURVE",
"157.41 0 OFFCURVE",
"136 0 CURVE SMOOTH",
"130.667 0 OFFCURVE",
"124.167 2 OFFCURVE",
"116.5 6 CURVE SMOOTH",
"108.833 10 OFFCURVE",
"96.667 18.667 OFFCURVE",
"80 32 CURVE SMOOTH",
"74.667 36 OFFCURVE",
"72 43.667 OFFCURVE",
"72 49 CURVE SMOOTH"
);
},
{
closed = 1;
nodes = (
"84 323.333 OFFCURVE",
"88.667 331.667 OFFCURVE",
"98 337 CURVE SMOOTH",
"136 359 LINE",
"144 362.333 OFFCURVE",
"150.333 364 OFFCURVE",
"155 364 CURVE SMOOTH",
"171.624 364 OFFCURVE",
"206 336.363 OFFCURVE",
"206 321 CURVE SMOOTH",
"206 301.162 OFFCURVE",
"153.596 252 OFFCURVE",
"133 252 CURVE SMOOTH",
"120.847 252 OFFCURVE",
"84 304.075 OFFCURVE",
"84 312 CURVE SMOOTH"
);
}
);
userData = {
assembly = "SVTCA[0]\011/* SetFreedomAndProjectionVectorToAxis */
PUSHW[ ]\011/* 1 value pushed */
37 
MDAP[1]\011/* MoveDirectAbsPt */
PUSHW[ ]\011/* 1 value pushed */
39 
MDAP[1]\011/* MoveDirectAbsPt */
PUSHW[ ]\011/* 1 value pushed */
6 
MDAP[1]\011/* MoveDirectAbsPt */
IUP[0]\011/* InterpolateUntPts */
IUP[1]\011/* InterpolateUntPts */";
};
width = 278;
}
);
note = colon;
unicode = 003A;
},
{
glyphname = semicolon;
lastChange = "2018-11-25 04:46:33 +0000";
layers = (
{
layerId = "0D8C0684-5C80-438C-A1B9-8A29192E7ABE";
paths = (
{
closed = 1;
nodes = (
"109 338.141 OFFCURVE",
"158.255 364 OFFCURVE",
"173 364 CURVE SMOOTH",
"185.365 364 OFFCURVE",
"219 327.911 OFFCURVE",
"219 312 CURVE SMOOTH",
"219 299.749 OFFCURVE",
"174.676 252 OFFCURVE",
"157 252 CURVE SMOOTH",
"141.541 252 OFFCURVE",
"109 296.389 OFFCURVE",
"109 315 CURVE SMOOTH"
);
},
{
closed = 1;
nodes = (
"59 -82 OFFCURVE",
"64 -71.333 OFFCURVE",
"68 -62 CURVE",
"85.755 -14.653 OFFCURVE",
"94.393 16.244 OFFCURVE",
"113 93 CURVE SMOOTH",
"116.333 106.333 OFFCURVE",
"120 115.667 OFFCURVE",
"124 121 CURVE",
"134.667 133 OFFCURVE",
"152.667 145 OFFCURVE",
"166 145 CURVE SMOOTH",
"175.073 145 OFFCURVE",
"202 119.798 OFFCURVE",
"202 105 CURVE SMOOTH",
"202 100.333 OFFCURVE",
"200.333 95.5 OFFCURVE",
"197 90.5 CURVE SMOOTH",
"193.667 85.5 OFFCURVE",
"190.333 79.333 OFFCURVE",
"187 72 CURVE SMOOTH",
"122 -60 LINE SMOOTH",
"114 -76 OFFCURVE",
"107.333 -85.833 OFFCURVE",
"102 -89.5 CURVE SMOOTH",
"96.667 -93.167 OFFCURVE",
"90.333 -95 OFFCURVE",
"83 -95 CURVE SMOOTH",
"75 -95 OFFCURVE",
"69 -94 OFFCURVE",
"65 -92 CURVE SMOOTH",
"61 -90 OFFCURVE",
"59 -88 OFFCURVE",
"59 -86 CURVE SMOOTH"
);
}
);
userData = {
assembly = "SVTCA[0]\011/* SetFreedomAndProjectionVectorToAxis */
PUSHW[ ]\011/* 1 value pushed */
15 
MDAP[1]\011/* MoveDirectAbsPt */
PUSHW[ ]\011/* 1 value pushed */
23 
MDAP[1]\011/* MoveDirectAbsPt */
IUP[0]\011/* InterpolateUntPts */
IUP[1]\011/* InterpolateUntPts */";
};
width = 278;
}
);
note = semicolon;
unicode = 003B;
},
{
glyphname = less;
lastChange = "2018-11-25 04:46:33 +0000";
layers = (
{
layerId = "0D8C0684-5C80-438C-A1B9-8A29192E7ABE";
paths = (
{
closed = 1;
nodes = (
"12 343 LINE",
"12 383 LINE",
"536 605 LINE",
"536 555 LINE",
"72 363 LINE",
"536 170 LINE",
"536 120 LINE"
);
}
);
userData = {
assembly = "SVTCA[0]\011/* SetFreedomAndProjectionVectorToAxis */
PUSHW[ ]\011/* 1 value pushed */
4 
MDAP[1]\011/* MoveDirectAbsPt */
PUSHW[ ]\011/* 1 value pushed */
0 
MDAP[1]\011/* MoveDirectAbsPt */
PUSHW[ ]\011/* 3 values pushed */
2 0 4 
SRP1[ ]\011/* SetRefPoint1 */
SRP2[ ]\011/* SetRefPoint2 */
IP[ ]\011/* InterpolatePts */
IUP[0]\011/* InterpolateUntPts */
IUP[1]\011/* InterpolateUntPts */";
};
width = 549;
}
);
note = less;
unicode = 003C;
},
{
glyphname = equal;
lastChange = "2018-11-25 04:46:33 +0000";
layers = (
{
layerId = "0D8C0684-5C80-438C-A1B9-8A29192E7ABE";
paths = (
{
closed = 1;
nodes = (
"61 223.067 OFFCURVE",
"85.561 250 OFFCURVE",
"102 250 CURVE SMOOTH",
"551 250 LINE SMOOTH",
"557.667 250 OFFCURVE",
"557 243.667 OFFCURVE",
"557 241 CURVE SMOOTH",
"557 221 OFFCURVE",
"534.667 195 OFFCURVE",
"516 195 CURVE SMOOTH",
"66 195 LINE SMOOTH",
"63.333 195 OFFCURVE",
"61 204.333 OFFCURVE",
"61 207 CURVE SMOOTH"
);
},
{
closed = 1;
nodes = (
"61 441.698 OFFCURVE",
"85.157 469 OFFCURVE",
"102 469 CURVE SMOOTH",
"551 469 LINE SMOOTH",
"557.667 469 OFFCURVE",
"557 463 OFFCURVE",
"557 459 CURVE SMOOTH",
"557 440.31 OFFCURVE",
"535.794 414 OFFCURVE",
"516 414 CURVE SMOOTH",
"66 414 LINE SMOOTH",
"63.333 414 OFFCURVE",
"61 421.333 OFFCURVE",
"61 424 CURVE SMOOTH"
);
}
);
userData = {
assembly = "SVTCA[0]\011/* SetFreedomAndProjectionVectorToAxis */
PUSHW[ ]\011/* 3 values pushed */
11 3 3 
CALL[ ]\011/* CallFunction */
PUSHW[ ]\011/* 1 value pushed */
11 
SRP0[ ]\011/* SetRefPoint0 */
PUSHW[ ]\011/* 3 values pushed */
29 19 3 
CALL[ ]\011/* CallFunction */
PUSHW[ ]\011/* 1 value pushed */
29 
SRP0[ ]\011/* SetRefPoint0 */
IUP[0]\011/* InterpolateUntPts */
IUP[1]\011/* InterpolateUntPts */";
};
width = 617;
}
);
note = equal;
unicode = 003D;
},
{
glyphname = greater;
lastChange = "2018-11-25 04:46:33 +0000";
layers = (
{
layerId = "0D8C0684-5C80-438C-A1B9-8A29192E7ABE";
paths = (
{
closed = 1;
nodes = (
"536 382 LINE",
"536 342 LINE",
"12 120 LINE",
"12 170 LINE",
"476 362 LINE",
"12 555 LINE",
"12 605 LINE"
);
}
);
userData = {
assembly = "SVTCA[0]\011/* SetFreedomAndProjectionVectorToAxis */
PUSHW[ ]\011/* 1 value pushed */
0 
MDAP[1]\011/* MoveDirectAbsPt */
PUSHW[ ]\011/* 1 value pushed */
4 
MDAP[1]\011/* MoveDirectAbsPt */
PUSHW[ ]\011/* 3 values pushed */
2 4 0 
SRP1[ ]\011/* SetRefPoint1 */
SRP2[ ]\011/* SetRefPoint2 */
IP[ ]\011/* InterpolatePts */
IUP[0]\011/* InterpolateUntPts */
IUP[1]\011/* InterpolateUntPts */";
};
width = 549;
}
);
note = greater;
unicode = 003E;
},
{
glyphname = question;
lastChange = "2018-11-25 04:46:33 +0000";
layers = (
{
layerId = "0D8C0684-5C80-438C-A1B9-8A29192E7ABE";
paths = (
{
closed = 1;
nodes = (
"221.236 0 OFFCURVE",
"170 14.845 OFFCURVE",
"170 41 CURVE SMOOTH",
"170 53.979 OFFCURVE",
"201.539 112 OFFCURVE",
"216 112 CURVE SMOOTH",
"228.202 112 OFFCURVE",
"257.205 92.795 OFFCURVE",
"265 85 CURVE SMOOTH",
"279.179 70.821 OFFCURVE",
"280 62.286 OFFCURVE",
"280 31 CURVE SMOOTH",
"280 12.333 OFFCURVE",
"269.333 0 OFFCURVE",
"240 0 CURVE SMOOTH"
);
},
{
closed = 1;
nodes = (
"79 544.666 OFFCURVE",
"181.787 594 OFFCURVE",
"214 594 CURVE SMOOTH",
"256.428 594 OFFCURVE",
"334.242 578.143 OFFCURVE",
"363 552 CURVE SMOOTH",
"397.659 522.292 OFFCURVE",
"408 445.689 OFFCURVE",
"408 406 CURVE SMOOTH",
"408 364.667 OFFCURVE",
"381.333 316 OFFCURVE",
"348 292 CURVE SMOOTH",
"301.333 258.667 OFFCURVE",
"255.667 227 OFFCURVE",
"229 203 CURVE",
"221 196.333 OFFCURVE",
"216.667 194 OFFCURVE",
"202 194 CURVE SMOOTH",
"190 194 OFFCURVE",
"187 206.667 OFFCURVE",
"187 220 CURVE SMOOTH",
"187 233.333 OFFCURVE",
"190.667 241.667 OFFCURVE",
"198 245 CURVE",
"214.17 248.234 OFFCURVE",
"279.311 299.451 OFFCURVE",
"305 323 CURVE",
"330.333 348.333 OFFCURVE",
"346 394.333 OFFCURVE",
"346 425 CURVE SMOOTH",
"346 441 OFFCURVE",
"343.667 457.333 OFFCURVE",
"329 480 CURVE SMOOTH",
"322.333 490.667 OFFCURVE",
"306.667 511.667 OFFCURVE",
"296 521 CURVE SMOOTH",
"274 539 OFFCURVE",
"252 548 OFFCURVE",
"230 548 CURVE SMOOTH",
"206 548 OFFCURVE",
"171.667 536.667 OFFCURVE",
"161 502 CURVE SMOOTH",
"151.015 469.548 OFFCURVE",
"118.685 459 OFFCURVE",
"97 459 CURVE SMOOTH",
"84.203 459 OFFCURVE",
"79 491.968 OFFCURVE",
"79 508 CURVE SMOOTH"
);
}
);
userData = {
assembly = "SVTCA[0]\011/* SetFreedomAndProjectionVectorToAxis */
PUSHW[ ]\011/* 1 value pushed */
76 
MDAP[1]\011/* MoveDirectAbsPt */
PUSHW[ ]\011/* 1 value pushed */
0 
MDAP[1]\011/* MoveDirectAbsPt */
IUP[0]\011/* InterpolateUntPts */
IUP[1]\011/* InterpolateUntPts */";
};
width = 481;
}
);
note = question;
unicode = 003F;
},
{
glyphname = at;
lastChange = "2018-11-25 04:46:33 +0000";
layers = (
{
layerId = "0D8C0684-5C80-438C-A1B9-8A29192E7ABE";
paths = (
{
closed = 1;
nodes = (
"41 477.19 OFFCURVE",
"140.932 661 OFFCURVE",
"314 661 CURVE SMOOTH",
"458.91 661 OFFCURVE",
"566 475.666 OFFCURVE",
"566 336 CURVE SMOOTH",
"566 253.404 OFFCURVE",
"514.025 154 OFFCURVE",
"426 154 CURVE SMOOTH",
"380.667 154 OFFCURVE",
"371.333 186.667 OFFCURVE",
"370 228 CURVE",
"368 228 OFFCURVE",
"366 227 OFFCURVE",
"364 225 CURVE",
"333.333 206.333 OFFCURVE",
"306 192 OFFCURVE",
"270 192 CURVE SMOOTH",
"201.328 192 OFFCURVE",
"150 245.679 OFFCURVE",
"150 313 CURVE SMOOTH",
"150 396.203 OFFCURVE",
"230.247 469 OFFCURVE",
"311 469 CURVE SMOOTH",
"336.333 469 OFFCURVE",
"360.667 463 OFFCURVE",
"382 447 CURVE",
"391.333 456.333 OFFCURVE",
"405.667 469 OFFCURVE",
"419 469 CURVE SMOOTH",
"421.667 469 OFFCURVE",
"431 468.667 OFFCURVE",
"431 462 CURVE SMOOTH",
"431 228 LINE SMOOTH",
"431 218.058 OFFCURVE",
"459.832 213 OFFCURVE",
"468 213 CURVE SMOOTH",
"503.908 213 OFFCURVE",
"506 272.516 OFFCURVE",
"506 302 CURVE SMOOTH",
"506 431 OFFCURVE",
"406.542 602 OFFCURVE",
"272 602 CURVE SMOOTH",
"145.37 602 OFFCURVE",
"101 465.689 OFFCURVE",
"101 348 CURVE SMOOTH",
"101 240.458 OFFCURVE",
"140.494 110.6 OFFCURVE",
"246 72 CURVE",
"252.31 68.845 OFFCURVE",
"284.879 58 OFFCURVE",
"290 58 CURVE SMOOTH",
"533 58 LINE SMOOTH",
"539.667 58 OFFCURVE",
"539 50 OFFCURVE",
"539 46 CURVE SMOOTH",
"539 27.164 OFFCURVE",
"517.719 0 OFFCURVE",
"498 0 CURVE SMOOTH",
"243 0 LINE SMOOTH",
"235.124 0 OFFCURVE",
"206.124 9.625 OFFCURVE",
"199 12 CURVE",
"86.621 59.042 OFFCURVE",
"41 194.282 OFFCURVE",
"41 313 CURVE SMOOTH"
);
},
{
closed = 1;
nodes = (
"210 290.667 OFFCURVE",
"255 251 OFFCURVE",
"311 251 CURVE SMOOTH",
"349.667 251 OFFCURVE",
"371 274.333 OFFCURVE",
"371 313 CURVE SMOOTH",
"371 367.892 OFFCURVE",
"326.113 410 OFFCURVE",
"270 410 CURVE SMOOTH",
"230 410 OFFCURVE",
"210 385.333 OFFCURVE",
"210 348 CURVE SMOOTH"
);
}
);
userData = {
assembly = "PUSHW[ ]\011/* 3 values pushed */
30 0 3 
CALL[ ]\011/* CallFunction */
PUSHW[ ]\011/* 1 value pushed */
30 
SRP0[ ]\011/* SetRefPoint0 */
PUSHW[ ]\011/* 3 values pushed */
93 65 3 
CALL[ ]\011/* CallFunction */
PUSHW[ ]\011/* 1 value pushed */
93 
SRP0[ ]\011/* SetRefPoint0 */
PUSHW[ ]\011/* 3 values pushed */
83 40 3 
CALL[ ]\011/* CallFunction */
PUSHW[ ]\011/* 1 value pushed */
83 
SRP0[ ]\011/* SetRefPoint0 */
PUSHW[ ]\011/* 3 values pushed */
50 101 3 
CALL[ ]\011/* CallFunction */
PUSHW[ ]\011/* 1 value pushed */
50 
SRP0[ ]\011/* SetRefPoint0 */
NPUSHW[ ]\011/* 27 values pushed */
6 30 22 30 38 30 54 30 70 30 86 30 102 30 118 30 134 30 150 30 166 30 182 30 198 30 13 
DELTAP1[ ]\011/* DeltaExceptionP1 */
NPUSHW[ ]\011/* 5 values pushed */
213 30 229 30 2 
DELTAP1[ ]\011/* DeltaExceptionP1 */
NPUSHW[ ]\011/* 5 values pushed */
218 40 234 40 2 
DELTAP1[ ]\011/* DeltaExceptionP1 */
NPUSHW[ ]\011/* 27 values pushed */
9 40 25 40 41 40 57 40 73 40 89 40 105 40 121 40 137 40 153 40 169 40 185 40 201 40 13 
DELTAP1[ ]\011/* DeltaExceptionP1 */
PUSHW[ ]\011/* 1 value pushed */
101 
SRP0[ ]\011/* SetRefPoint0 */
PUSHW[ ]\011/* 1 value pushed */
75 
MDRP[10000]\011/* MoveDirectRelPt */
PUSHW[ ]\011/* 1 value pushed */
75 
MDAP[1]\011/* MoveDirectAbsPt */
NPUSHW[ ]\011/* 27 values pushed */
6 93 22 93 38 93 54 93 70 93 86 93 102 93 118 93 134 93 150 93 166 93 182 93 198 93 13 
DELTAP1[ ]\011/* DeltaExceptionP1 */
NPUSHW[ ]\011/* 5 values pushed */
213 93 229 93 2 
DELTAP1[ ]\011/* DeltaExceptionP1 */
PUSHW[ ]\011/* 1 value pushed */
83 
SRP0[ ]\011/* SetRefPoint0 */
PUSHW[ ]\011/* 1 value pushed */
108 
MDRP[11100]\011/* MoveDirectRelPt */
SVTCA[0]\011/* SetFreedomAndProjectionVectorToAxis */
PUSHW[ ]\011/* 3 values pushed */
20 10 3 
CALL[ ]\011/* CallFunction */
PUSHW[ ]\011/* 1 value pushed */
20 
SRP0[ ]\011/* SetRefPoint0 */
PUSHW[ ]\011/* 3 values pushed */
88 35 3 
CALL[ ]\011/* CallFunction */
PUSHW[ ]\011/* 1 value pushed */
88 
SRP0[ ]\011/* SetRefPoint0 */
PUSHW[ ]\011/* 3 values pushed */
104 70 3 
CALL[ ]\011/* CallFunction */
PUSHW[ ]\011/* 1 value pushed */
104 
SRP0[ ]\011/* SetRefPoint0 */
PUSHW[ ]\011/* 3 values pushed */
60 96 3 
CALL[ ]\011/* CallFunction */
PUSHW[ ]\011/* 1 value pushed */
60 
SRP0[ ]\011/* SetRefPoint0 */
PUSHW[ ]\011/* 1 value pushed */
54 
MDRP[10000]\011/* MoveDirectRelPt */
PUSHW[ ]\011/* 3 values pushed */
75 70 104 
SRP1[ ]\011/* SetRefPoint1 */
SRP2[ ]\011/* SetRefPoint2 */
IP[ ]\011/* InterpolatePts */
IUP[0]\011/* InterpolateUntPts */
IUP[1]\011/* InterpolateUntPts */";
};
width = 608;
}
);
note = at;
unicode = 0040;
},
{
glyphname = A;
lastChange = "2018-11-25 04:46:33 +0000";
layers = (
{
layerId = "0D8C0684-5C80-438C-A1B9-8A29192E7ABE";
paths = (
{
closed = 1;
nodes = (
"353 412 LINE SMOOTH",
"345 427.333 OFFCURVE",
"339.833 439.167 OFFCURVE",
"337.5 447.5 CURVE SMOOTH",
"335.167 455.833 OFFCURVE",
"331.667 460 OFFCURVE",
"327 460 CURVE SMOOTH",
"319.334 460 OFFCURVE",
"312.43 427.861 OFFCURVE",
"307 417 CURVE SMOOTH",
"255 311 LINE SMOOTH",
"247.667 295.667 OFFCURVE",
"242.333 284.833 OFFCURVE",
"239 278.5 CURVE SMOOTH",
"235.667 272.167 OFFCURVE",
"234 267.333 OFFCURVE",
"234 264 CURVE SMOOTH",
"234 259.333 OFFCURVE",
"239.667 257 OFFCURVE",
"251 257 CURVE SMOOTH",
"432 257 LINE"
);
},
{
closed = 1;
nodes = (
"220.201 211 OFFCURVE",
"202.439 213.318 OFFCURVE",
"191 179 CURVE SMOOTH",
"178.422 141.266 OFFCURVE",
"130.565 61.044 OFFCURVE",
"125 36 CURVE",
"123 24.667 OFFCURVE",
"120.5 17.167 OFFCURVE",
"117.5 13.5 CURVE SMOOTH",
"114.5 9.833 OFFCURVE",
"110.667 7.667 OFFCURVE",
"106 7 CURVE",
"89.686 5.369 OFFCURVE",
"28.177 0 OFFCURVE",
"21 0 CURVE SMOOTH",
"14.333 0 OFFCURVE",
"11 9.333 OFFCURVE",
"11 16 CURVE SMOOTH",
"11 34.667 OFFCURVE",
"13.667 38.333 OFFCURVE",
"23 41 CURVE SMOOTH",
"43 46.333 OFFCURVE",
"65.667 57 OFFCURVE",
"79 93 CURVE",
"87.636 123.227 OFFCURVE",
"157.361 240.535 OFFCURVE",
"181.5 285.5 CURVE SMOOTH",
"217.646 352.83 OFFCURVE",
"278 476.808 OFFCURVE",
"278 525 CURVE SMOOTH",
"278 532.419 OFFCURVE",
"265 559.581 OFFCURVE",
"265 567 CURVE SMOOTH",
"265 580.174 OFFCURVE",
"305.26 602 OFFCURVE",
"319 602 CURVE SMOOTH",
"327 602 OFFCURVE",
"347.333 582.667 OFFCURVE",
"358 560 CURVE SMOOTH",
"380.667 512 OFFCURVE",
"404.667 460.667 OFFCURVE",
"430 406 CURVE SMOOTH",
"455.333 351.333 OFFCURVE",
"487 290.667 OFFCURVE",
"525 224 CURVE SMOOTH",
"573 140 OFFCURVE",
"605 93.5 OFFCURVE",
"625 67.5 CURVE SMOOTH",
"637.808 50.85 OFFCURVE",
"653 34.223 OFFCURVE",
"653 31 CURVE SMOOTH",
"653 16.333 OFFCURVE",
"640.667 13 OFFCURVE",
"630 13 CURVE SMOOTH",
"613.909 13 OFFCURVE",
"565.985 19.406 OFFCURVE",
"552 25 CURVE",
"540 27.667 OFFCURVE",
"532.333 43.667 OFFCURVE",
"527 61 CURVE SMOOTH",
"523.482 71.555 OFFCURVE",
"473.557 187.777 OFFCURVE",
"458 194 CURVE",
"428.969 208.515 OFFCURVE",
"315.682 211 OFFCURVE",
"275 211 CURVE SMOOTH"
);
}
);
userData = {
assembly = "SVTCA[0]\011/* SetFreedomAndProjectionVectorToAxis */
PUSHW[ ]\011/* 1 value pushed */
48 
MDAP[1]\011/* MoveDirectAbsPt */
PUSHW[ ]\011/* 1 value pushed */
74 
MDAP[1]\011/* MoveDirectAbsPt */
PUSHW[ ]\011/* 1 value pushed */
79 
MDAP[1]\011/* MoveDirectAbsPt */
PUSHW[ ]\011/* 3 values pushed */
1 16 3 
CALL[ ]\011/* CallFunction */
PUSHW[ ]\011/* 1 value pushed */
1 
SRP0[ ]\011/* SetRefPoint0 */
IUP[0]\011/* InterpolateUntPts */
IUP[1]\011/* InterpolateUntPts */";
};
width = 667;
}
);
note = A;
unicode = 0041;
},
{
glyphname = B;
lastChange = "2018-11-25 04:46:33 +0000";
layers = (
{
layerId = "0D8C0684-5C80-438C-A1B9-8A29192E7ABE";
paths = (
{
closed = 1;
nodes = (
"197 104.162 OFFCURVE",
"192.641 70 OFFCURVE",
"215 70 CURVE SMOOTH",
"270.757 70 OFFCURVE",
"376 103.158 OFFCURVE",
"376 171 CURVE SMOOTH",
"376 219.222 OFFCURVE",
"293.678 284.932 OFFCURVE",
"241 305 CURVE",
"229 301 OFFCURVE",
"215.667 293.667 OFFCURVE",
"209 287 CURVE",
"204.333 281.667 OFFCURVE",
"201.167 269.5 OFFCURVE",
"199.5 250.5 CURVE SMOOTH",
"197.833 231.5 OFFCURVE",
"197 198.333 OFFCURVE",
"197 151 CURVE SMOOTH"
);
},
{
closed = 1;
nodes = (
"213.667 360.333 OFFCURVE",
"222.667 352 OFFCURVE",
"232 352 CURVE SMOOTH",
"263.731 352 OFFCURVE",
"346 440.452 OFFCURVE",
"346 487 CURVE SMOOTH",
"346 525.476 OFFCURVE",
"305.39 562 OFFCURVE",
"249 562 CURVE SMOOTH",
"226.333 562 OFFCURVE",
"207 553.333 OFFCURVE",
"207 524 CURVE SMOOTH",
"207 367 LINE"
);
},
{
closed = 1;
nodes = (
"145 400.761 OFFCURVE",
"149.942 473.033 OFFCURVE",
"122 489 CURVE SMOOTH",
"103.333 499.667 OFFCURVE",
"93 503 OFFCURVE",
"93 515 CURVE SMOOTH",
"93 533.636 OFFCURVE",
"174.009 570.004 OFFCURVE",
"226 596 CURVE SMOOTH",
"230 598 OFFCURVE",
"234.333 599.5 OFFCURVE",
"239 600.5 CURVE SMOOTH",
"243.667 601.5 OFFCURVE",
"251.667 602 OFFCURVE",
"263 602 CURVE SMOOTH",
"359 602 OFFCURVE",
"418 578 OFFCURVE",
"418 506 CURVE SMOOTH",
"418 429.493 OFFCURVE",
"392.925 404.495 OFFCURVE",
"294 349 CURVE",
"349.386 331.51 OFFCURVE",
"448 252.597 OFFCURVE",
"448 185 CURVE SMOOTH",
"448 125.973 OFFCURVE",
"383.259 75.613 OFFCURVE",
"322.5 47.5 CURVE SMOOTH",
"280.359 28.002 OFFCURVE",
"200.977 0 OFFCURVE",
"180 0 CURVE SMOOTH",
"149.333 0 OFFCURVE",
"129 1.5 OFFCURVE",
"119 4.5 CURVE SMOOTH",
"109 7.5 OFFCURVE",
"104 12.667 OFFCURVE",
"104 20 CURVE SMOOTH",
"104 25.333 OFFCURVE",
"107.5 31.167 OFFCURVE",
"114.5 37.5 CURVE SMOOTH",
"121.5 43.833 OFFCURVE",
"125.667 51.333 OFFCURVE",
"127 60 CURVE",
"135.361 99.019 OFFCURVE",
"145 232.595 OFFCURVE",
"145 313 CURVE SMOOTH"
);
}
);
userData = {
assembly = "PUSHW[ ]\011/* 3 values pushed */
0 38 3 
CALL[ ]\011/* CallFunction */
PUSHW[ ]\011/* 3 values pushed */
66 30 3 
CALL[ ]\011/* CallFunction */
PUSHW[ ]\011/* 1 value pushed */
66 
SRP0[ ]\011/* SetRefPoint0 */
NPUSHW[ ]\011/* 27 values pushed */
6 0 22 0 38 0 54 0 70 0 86 0 102 0 118 0 134 0 150 0 166 0 182 0 198 0 13 
DELTAP1[ ]\011/* DeltaExceptionP1 */
NPUSHW[ ]\011/* 5 values pushed */
213 0 229 0 2 
DELTAP1[ ]\011/* DeltaExceptionP1 */
NPUSHW[ ]\011/* 5 values pushed */
218 30 234 30 2 
DELTAP1[ ]\011/* DeltaExceptionP1 */
NPUSHW[ ]\011/* 27 values pushed */
9 30 25 30 41 30 57 30 73 30 89 30 105 30 121 30 137 30 153 30 169 30 185 30 201 30 13 
DELTAP1[ ]\011/* DeltaExceptionP1 */
PUSHW[ ]\011/* 3 values pushed */
11 30 66 
SRP1[ ]\011/* SetRefPoint1 */
SRP2[ ]\011/* SetRefPoint2 */
IP[ ]\011/* InterpolatePts */
PUSHW[ ]\011/* 1 value pushed */
11 
MDAP[1]\011/* MoveDirectAbsPt */
NPUSHW[ ]\011/* 5 values pushed */
218 11 234 11 2 
DELTAP1[ ]\011/* DeltaExceptionP1 */
NPUSHW[ ]\011/* 27 values pushed */
9 11 25 11 41 11 57 11 73 11 89 11 105 11 121 11 137 11 153 11 169 11 185 11 201 11 13 
DELTAP1[ ]\011/* DeltaExceptionP1 */
PUSHW[ ]\011/* 1 value pushed */
38 
SRP0[ ]\011/* SetRefPoint0 */
PUSHW[ ]\011/* 1 value pushed */
21 
MDRP[11100]\011/* MoveDirectRelPt */
PUSHW[ ]\011/* 1 value pushed */
11 
SRP0[ ]\011/* SetRefPoint0 */
PUSHW[ ]\011/* 1 value pushed */
56 
MDRP[11100]\011/* MoveDirectRelPt */
PUSHW[ ]\011/* 3 values pushed */
61 38 56 
SRP1[ ]\011/* SetRefPoint1 */
SRP2[ ]\011/* SetRefPoint2 */
IP[ ]\011/* InterpolatePts */
PUSHW[ ]\011/* 1 value pushed */
86 
MDRP[11100]\011/* MoveDirectRelPt */
SVTCA[0]\011/* SetFreedomAndProjectionVectorToAxis */
PUSHW[ ]\011/* 3 values pushed */
16 49 3 
CALL[ ]\011/* CallFunction */
PUSHW[ ]\011/* 1 value pushed */
16 
SRP0[ ]\011/* SetRefPoint0 */
PUSHW[ ]\011/* 3 values pushed */
69 25 3 
CALL[ ]\011/* CallFunction */
PUSHW[ ]\011/* 1 value pushed */
69 
SRP0[ ]\011/* SetRefPoint0 */
IUP[0]\011/* InterpolateUntPts */
IUP[1]\011/* InterpolateUntPts */";
};
width = 537;
}
);
note = B;
unicode = 0042;
},
{
glyphname = C;
lastChange = "2018-11-25 04:46:33 +0000";
layers = (
{
layerId = "0D8C0684-5C80-438C-A1B9-8A29192E7ABE";
paths = (
{
closed = 1;
nodes = (
"104 337.333 OFFCURVE",
"128 408.167 OFFCURVE",
"164 459.5 CURVE SMOOTH",
"182 485.167 OFFCURVE",
"202.5 506.167 OFFCURVE",
"225.5 522.5 CURVE SMOOTH",
"275.595 558.075 OFFCURVE",
"382.74 587 OFFCURVE",
"433 587 CURVE SMOOTH",
"461 587 OFFCURVE",
"482.667 581.667 OFFCURVE",
"498 571 CURVE SMOOTH",
"513.333 560.333 OFFCURVE",
"521 550 OFFCURVE",
"521 540 CURVE SMOOTH",
"521 523.825 OFFCURVE",
"483.748 490 OFFCURVE",
"467 490 CURVE SMOOTH",
"451.941 490 OFFCURVE",
"426.36 535 OFFCURVE",
"397 535 CURVE SMOOTH",
"329.016 535 OFFCURVE",
"237.644 472.287 OFFCURVE",
"211 419 CURVE SMOOTH",
"183.074 363.148 OFFCURVE",
"170 295.19 OFFCURVE",
"170 257 CURVE SMOOTH",
"170 171.165 OFFCURVE",
"245.002 48 OFFCURVE",
"345 48 CURVE SMOOTH",
"403.039 48 OFFCURVE",
"499.771 129 OFFCURVE",
"526 129 CURVE SMOOTH",
"539.333 129 OFFCURVE",
"547 120 OFFCURVE",
"547 108 CURVE SMOOTH",
"547 92.595 OFFCURVE",
"493.97 42.337 OFFCURVE",
"465 27 CURVE",
"437.583 10.55 OFFCURVE",
"364.023 -3 OFFCURVE",
"317 -3 CURVE SMOOTH",
"219.032 -3 OFFCURVE",
"104 75.968 OFFCURVE",
"104 240 CURVE SMOOTH"
);
}
);
userData = {
assembly = "PUSHW[ ]\011/* 3 values pushed */
28 0 3 
CALL[ ]\011/* CallFunction */
PUSHW[ ]\011/* 1 value pushed */
28 
SRP0[ ]\011/* SetRefPoint0 */
NPUSHW[ ]\011/* 27 values pushed */
6 28 22 28 38 28 54 28 70 28 86 28 102 28 118 28 134 28 150 28 166 28 182 28 198 28 13 
DELTAP1[ ]\011/* DeltaExceptionP1 */
NPUSHW[ ]\011/* 5 values pushed */
213 28 229 28 2 
DELTAP1[ ]\011/* DeltaExceptionP1 */
SVTCA[0]\011/* SetFreedomAndProjectionVectorToAxis */
PUSHW[ ]\011/* 3 values pushed */
23 5 3 
CALL[ ]\011/* CallFunction */
PUSHW[ ]\011/* 1 value pushed */
23 
SRP0[ ]\011/* SetRefPoint0 */
PUSHW[ ]\011/* 3 values pushed */
48 35 3 
CALL[ ]\011/* CallFunction */
PUSHW[ ]\011/* 1 value pushed */
48 
SRP0[ ]\011/* SetRefPoint0 */
IUP[0]\011/* InterpolateUntPts */
IUP[1]\011/* InterpolateUntPts */";
};
width = 593;
}
);
note = C;
unicode = 0043;
},
{
glyphname = D;
lastChange = "2018-11-25 04:46:33 +0000";
layers = (
{
layerId = "0D8C0684-5C80-438C-A1B9-8A29192E7ABE";
paths = (
{
closed = 1;
nodes = (
"212 220.667 OFFCURVE",
"211.833 195.833 OFFCURVE",
"211.5 171.5 CURVE SMOOTH",
"211.167 147.167 OFFCURVE",
"211 124.667 OFFCURVE",
"211 104 CURVE SMOOTH",
"211 78.667 OFFCURVE",
"213.667 62.667 OFFCURVE",
"219 56 CURVE SMOOTH",
"224.333 49.333 OFFCURVE",
"233 46 OFFCURVE",
"245 46 CURVE SMOOTH",
"307.667 46 OFFCURVE",
"359.667 59.333 OFFCURVE",
"397 102 CURVE SMOOTH",
"434.333 144.667 OFFCURVE",
"456 215.333 OFFCURVE",
"456 330 CURVE SMOOTH",
"456 472.274 OFFCURVE",
"344.013 550 OFFCURVE",
"281 550 CURVE SMOOTH",
"258.333 550 OFFCURVE",
"228 539.667 OFFCURVE",
"212 529 CURVE",
"212 246 LINE SMOOTH"
);
},
{
closed = 1;
nodes = (
"230.333 -11 OFFCURVE",
"223.833 -10.5 OFFCURVE",
"217.5 -9.5 CURVE SMOOTH",
"211.167 -8.5 OFFCURVE",
"205.333 -7.667 OFFCURVE",
"200 -7 CURVE SMOOTH",
"144 0 LINE SMOOTH",
"132.667 1.333 OFFCURVE",
"124.5 3.167 OFFCURVE",
"119.5 5.5 CURVE SMOOTH",
"114.5 7.833 OFFCURVE",
"112 11.667 OFFCURVE",
"112 17 CURVE SMOOTH",
"112 30.794 OFFCURVE",
"141.321 54.413 OFFCURVE",
"143 88 CURVE SMOOTH",
"147 168 OFFCURVE",
"150 256 OFFCURVE",
"150 328 CURVE SMOOTH",
"150 378.906 OFFCURVE",
"140.786 471.667 OFFCURVE",
"133 508 CURVE SMOOTH",
"127.755 531.604 OFFCURVE",
"94 510.036 OFFCURVE",
"94 538 CURVE SMOOTH",
"94 556.667 OFFCURVE",
"100.333 560.333 OFFCURVE",
"135 571 CURVE SMOOTH",
"205 591 LINE SMOOTH",
"219.667 595 OFFCURVE",
"231.5 597.833 OFFCURVE",
"240.5 599.5 CURVE SMOOTH",
"249.5 601.167 OFFCURVE",
"256.333 602 OFFCURVE",
"261 602 CURVE SMOOTH",
"288.632 602 OFFCURVE",
"346.163 590.587 OFFCURVE",
"399 566.5 CURVE SMOOTH",
"444.333 545.833 OFFCURVE",
"483.667 510.5 OFFCURVE",
"509 456.5 CURVE SMOOTH",
"521.667 429.5 OFFCURVE",
"528 397 OFFCURVE",
"528 359 CURVE SMOOTH",
"528 233.542 OFFCURVE",
"516.355 161.327 OFFCURVE",
"465 90 CURVE SMOOTH",
"442.839 59.781 OFFCURVE",
"386.906 32.806 OFFCURVE",
"343 17 CURVE SMOOTH",
"311.482 5.653 OFFCURVE",
"252.32 -11 OFFCURVE",
"237 -11 CURVE SMOOTH"
);
}
);
userData = {
assembly = "PUSHW[ ]\011/* 3 values pushed */
0 59 3 
CALL[ ]\011/* CallFunction */
PUSHW[ ]\011/* 3 values pushed */
32 9 3 
CALL[ ]\011/* CallFunction */
PUSHW[ ]\011/* 1 value pushed */
32 
SRP0[ ]\011/* SetRefPoint0 */
NPUSHW[ ]\011/* 5 values pushed */
218 9 234 9 2 
DELTAP1[ ]\011/* DeltaExceptionP1 */
NPUSHW[ ]\011/* 27 values pushed */
9 9 25 9 41 9 57 9 73 9 89 9 105 9 121 9 137 9 153 9 169 9 185 9 201 9 13 
DELTAP1[ ]\011/* DeltaExceptionP1 */
PUSHW[ ]\011/* 1 value pushed */
0 
SRP0[ ]\011/* SetRefPoint0 */
PUSHW[ ]\011/* 1 value pushed */
17 
MDRP[10000]\011/* MoveDirectRelPt */
PUSHW[ ]\011/* 1 value pushed */
17 
MDAP[1]\011/* MoveDirectAbsPt */
PUSHW[ ]\011/* 1 value pushed */
59 
SRP0[ ]\011/* SetRefPoint0 */
PUSHW[ ]\011/* 1 value pushed */
56 
MDRP[10000]\011/* MoveDirectRelPt */
PUSHW[ ]\011/* 1 value pushed */
56 
MDAP[1]\011/* MoveDirectAbsPt */
PUSHW[ ]\011/* 1 value pushed */
32 
SRP0[ ]\011/* SetRefPoint0 */
PUSHW[ ]\011/* 1 value pushed */
72 
MDRP[11100]\011/* MoveDirectRelPt */
SVTCA[0]\011/* SetFreedomAndProjectionVectorToAxis */
PUSHW[ ]\011/* 1 value pushed */
39 
MDAP[1]\011/* MoveDirectAbsPt */
PUSHW[ ]\011/* 1 value pushed */
20 
MDAP[1]\011/* MoveDirectAbsPt */
PUSHW[ ]\011/* 1 value pushed */
68 
MDAP[1]\011/* MoveDirectAbsPt */
IUP[0]\011/* InterpolateUntPts */
IUP[1]\011/* InterpolateUntPts */";
};
width = 648;
}
);
note = D;
unicode = 0044;
},
{
glyphname = E;
lastChange = "2018-11-25 04:46:33 +0000";
layers = (
{
layerId = "0D8C0684-5C80-438C-A1B9-8A29192E7ABE";
paths = (
{
closed = 1;
nodes = (
"376.667 320 OFFCURVE",
"383 316 OFFCURVE",
"383 308 CURVE SMOOTH",
"383 297.075 OFFCURVE",
"344.914 268 OFFCURVE",
"336 268 CURVE",
"306 265.333 OFFCURVE",
"278.167 263.833 OFFCURVE",
"252.5 263.5 CURVE SMOOTH",
"226.833 263.167 OFFCURVE",
"204 262.667 OFFCURVE",
"184 262 CURVE",
"184 102 OFFCURVE",
"243.667 21 OFFCURVE",
"381 21 CURVE SMOOTH",
"410.333 21 OFFCURVE",
"418 17.333 OFFCURVE",
"418 0 CURVE SMOOTH",
"418 -5.333 OFFCURVE",
"413 -10.667 OFFCURVE",
"403 -16 CURVE SMOOTH",
"393 -21.333 OFFCURVE",
"375.333 -24 OFFCURVE",
"350 -24 CURVE SMOOTH",
"269.576 -24 OFFCURVE",
"169.797 23.845 OFFCURVE",
"143.5 70.5 CURVE SMOOTH",
"112.621 125.285 OFFCURVE",
"108 190.119 OFFCURVE",
"108 249 CURVE SMOOTH",
"108 382.333 OFFCURVE",
"135 470.167 OFFCURVE",
"175 525.5 CURVE SMOOTH",
"215 580.833 OFFCURVE",
"270 602 OFFCURVE",
"326 602 CURVE SMOOTH",
"354 602 OFFCURVE",
"373 599.833 OFFCURVE",
"383 595.5 CURVE SMOOTH",
"393 591.167 OFFCURVE",
"398 583.333 OFFCURVE",
"398 572 CURVE SMOOTH",
"398 557.333 OFFCURVE",
"391.667 550 OFFCURVE",
"379 550 CURVE SMOOTH",
"320 550 LINE SMOOTH",
"288 550 OFFCURVE",
"257.167 539.167 OFFCURVE",
"232.5 502.5 CURVE SMOOTH",
"207.833 465.833 OFFCURVE",
"189.333 404 OFFCURVE",
"184 304 CURVE",
"194.667 313.333 OFFCURVE",
"209 320 OFFCURVE",
"229 320 CURVE SMOOTH",
"364 320 LINE SMOOTH"
);
}
);
userData = {
assembly = "PUSHW[ ]\011/* 3 values pushed */
36 20 3 
CALL[ ]\011/* CallFunction */
PUSHW[ ]\011/* 1 value pushed */
36 
SRP0[ ]\011/* SetRefPoint0 */
NPUSHW[ ]\011/* 27 values pushed */
6 36 22 36 38 36 54 36 70 36 86 36 102 36 118 36 134 36 150 36 166 36 182 36 198 36 13 
DELTAP1[ ]\011/* DeltaExceptionP1 */
NPUSHW[ ]\011/* 5 values pushed */
213 36 229 36 2 
DELTAP1[ ]\011/* DeltaExceptionP1 */
PUSHW[ ]\011/* 1 value pushed */
4 
MDRP[10000]\011/* MoveDirectRelPt */
SVTCA[0]\011/* SetFreedomAndProjectionVectorToAxis */
PUSHW[ ]\011/* 3 values pushed */
33 27 3 
CALL[ ]\011/* CallFunction */
PUSHW[ ]\011/* 1 value pushed */
33 
SRP0[ ]\011/* SetRefPoint0 */
PUSHW[ ]\011/* 3 values pushed */
15 9 3 
CALL[ ]\011/* CallFunction */
PUSHW[ ]\011/* 1 value pushed */
15 
SRP0[ ]\011/* SetRefPoint0 */
PUSHW[ ]\011/* 3 values pushed */
0 39 3 
CALL[ ]\011/* CallFunction */
PUSHW[ ]\011/* 1 value pushed */
0 
SRP0[ ]\011/* SetRefPoint0 */
PUSHW[ ]\011/* 3 values pushed */
4 39 0 
SRP1[ ]\011/* SetRefPoint1 */
SRP2[ ]\011/* SetRefPoint2 */
IP[ ]\011/* InterpolatePts */
PUSHW[ ]\011/* 1 value pushed */
39 
SRP0[ ]\011/* SetRefPoint0 */
PUSHW[ ]\011/* 1 value pushed */
36 
MDRP[10000]\011/* MoveDirectRelPt */
PUSHW[ ]\011/* 1 value pushed */
36 
MDAP[1]\011/* MoveDirectAbsPt */
IUP[0]\011/* InterpolateUntPts */
IUP[1]\011/* InterpolateUntPts */";
};
width = 481;
}
);
note = E;
unicode = 0045;
},
{
glyphname = F;
lastChange = "2018-11-25 04:46:33 +0000";
layers = (
{
layerId = "0D8C0684-5C80-438C-A1B9-8A29192E7ABE";
paths = (
{
closed = 1;
nodes = (
"205 7.246 OFFCURVE",
"201.123 -83 OFFCURVE",
"181 -83 CURVE SMOOTH",
"168.248 -83 OFFCURVE",
"141 -68.052 OFFCURVE",
"141 -56 CURVE SMOOTH",
"141 -46.639 OFFCURVE",
"143.142 -17.528 OFFCURVE",
"144 3.5 CURVE SMOOTH",
"145.333 36.167 OFFCURVE",
"147 89.667 OFFCURVE",
"147 183 CURVE SMOOTH",
"147 223.121 OFFCURVE",
"133 231.828 OFFCURVE",
"133 261 CURVE SMOOTH",
"133 271.667 OFFCURVE",
"134.5 281.667 OFFCURVE",
"137.5 291 CURVE SMOOTH",
"140.5 300.333 OFFCURVE",
"142 310.667 OFFCURVE",
"142 322 CURVE SMOOTH",
"142 333.938 OFFCURVE",
"132.731 440.039 OFFCURVE",
"131 466 CURVE",
"115 488.667 OFFCURVE",
"103 513.333 OFFCURVE",
"103 528 CURVE SMOOTH",
"103 542.697 OFFCURVE",
"143.659 583 OFFCURVE",
"162 583 CURVE SMOOTH",
"170.667 583 OFFCURVE",
"180.167 582.167 OFFCURVE",
"190.5 580.5 CURVE SMOOTH",
"200.833 578.833 OFFCURVE",
"215.667 578 OFFCURVE",
"235 578 CURVE SMOOTH",
"283.724 578 OFFCURVE",
"441.963 587 OFFCURVE",
"472 587 CURVE SMOOTH",
"476 587 OFFCURVE",
"483 585 OFFCURVE",
"483 577 CURVE SMOOTH",
"483 567.218 OFFCURVE",
"468.374 543.275 OFFCURVE",
"457 541 CURVE SMOOTH",
"414.329 533.579 OFFCURVE",
"273.561 522.746 OFFCURVE",
"224 514 CURVE SMOOTH",
"220.667 513.333 OFFCURVE",
"218.167 511.667 OFFCURVE",
"216.5 509 CURVE SMOOTH",
"214.833 506.333 OFFCURVE",
"213.333 499.333 OFFCURVE",
"212 488 CURVE SMOOTH",
"208 449.333 OFFCURVE",
"208 395 OFFCURVE",
"208 343 CURVE SMOOTH",
"208 334.333 OFFCURVE",
"208.167 325.833 OFFCURVE",
"208.5 317.5 CURVE SMOOTH",
"208.833 309.167 OFFCURVE",
"209 300.667 OFFCURVE",
"209 292 CURVE",
"288 292 LINE SMOOTH",
"322.667 292 OFFCURVE",
"353.5 293.833 OFFCURVE",
"380.5 297.5 CURVE SMOOTH",
"407.5 301.167 OFFCURVE",
"429 303 OFFCURVE",
"445 303 CURVE SMOOTH",
"457.667 303 OFFCURVE",
"464 297 OFFCURVE",
"464 285 CURVE SMOOTH",
"464 263.667 OFFCURVE",
"453.333 251 OFFCURVE",
"440 251 CURVE SMOOTH",
"394.455 251 OFFCURVE",
"250.317 235.997 OFFCURVE",
"205 228 CURVE",
"205 19 LINE SMOOTH"
);
}
);
userData = {
assembly = "PUSHW[ ]\011/* 3 values pushed */
1 66 3 
CALL[ ]\011/* CallFunction */
PUSHW[ ]\011/* 1 value pushed */
1 
SRP0[ ]\011/* SetRefPoint0 */
PUSHW[ ]\011/* 1 value pushed */
15 
MDRP[10000]\011/* MoveDirectRelPt */
PUSHW[ ]\011/* 1 value pushed */
15 
MDAP[1]\011/* MoveDirectAbsPt */
PUSHW[ ]\011/* 1 value pushed */
1 
SRP0[ ]\011/* SetRefPoint0 */
PUSHW[ ]\011/* 1 value pushed */
18 
MDRP[10000]\011/* MoveDirectRelPt */
PUSHW[ ]\011/* 1 value pushed */
18 
MDAP[1]\011/* MoveDirectAbsPt */
PUSHW[ ]\011/* 1 value pushed */
1 
SRP0[ ]\011/* SetRefPoint0 */
PUSHW[ ]\011/* 1 value pushed */
21 
MDRP[10000]\011/* MoveDirectRelPt */
PUSHW[ ]\011/* 1 value pushed */
21 
MDAP[1]\011/* MoveDirectAbsPt */
PUSHW[ ]\011/* 1 value pushed */
66 
SRP0[ ]\011/* SetRefPoint0 */
PUSHW[ ]\011/* 1 value pushed */
58 
MDRP[10000]\011/* MoveDirectRelPt */
PUSHW[ ]\011/* 1 value pushed */
58 
MDAP[1]\011/* MoveDirectAbsPt */
PUSHW[ ]\011/* 1 value pushed */
66 
SRP0[ ]\011/* SetRefPoint0 */
PUSHW[ ]\011/* 1 value pushed */
71 
MDRP[10000]\011/* MoveDirectRelPt */
PUSHW[ ]\011/* 1 value pushed */
71 
MDAP[1]\011/* MoveDirectAbsPt */
SVTCA[0]\011/* SetFreedomAndProjectionVectorToAxis */
PUSHW[ ]\011/* 1 value pushed */
76 
MDAP[1]\011/* MoveDirectAbsPt */
PUSHW[ ]\011/* 1 value pushed */
37 
MDAP[1]\011/* MoveDirectAbsPt */
PUSHW[ ]\011/* 1 value pushed */
45 
MDAP[1]\011/* MoveDirectAbsPt */
IUP[0]\011/* InterpolateUntPts */
IUP[1]\011/* InterpolateUntPts */";
};
width = 537;
}
);
note = F;
unicode = 0046;
},
{
glyphname = G;
lastChange = "2018-11-25 04:46:33 +0000";
layers = (
{
layerId = "0D8C0684-5C80-438C-A1B9-8A29192E7ABE";
paths = (
{
closed = 1;
nodes = (
"460.333 199 OFFCURVE",
"463.333 203.333 OFFCURVE",
"468 206 CURVE SMOOTH",
"472.667 208.667 OFFCURVE",
"482.333 210 OFFCURVE",
"497 210 CURVE SMOOTH",
"521.665 210 OFFCURVE",
"517 173.216 OFFCURVE",
"517 122 CURVE SMOOTH",
"517 77.333 OFFCURVE",
"518.5 41.167 OFFCURVE",
"521.5 13.5 CURVE SMOOTH",
"524.5 -14.167 OFFCURVE",
"526 -37.667 OFFCURVE",
"526 -57 CURVE SMOOTH",
"526 -75.667 OFFCURVE",
"521 -83 OFFCURVE",
"497 -83 CURVE SMOOTH",
"489 -83 OFFCURVE",
"484.333 -79.833 OFFCURVE",
"479 -68.5 CURVE SMOOTH",
"476.333 -62.833 OFFCURVE",
"473.833 -54.667 OFFCURVE",
"471.5 -44 CURVE SMOOTH",
"469.167 -33.333 OFFCURVE",
"456.667 -10.667 OFFCURVE",
"434 24 CURVE",
"423.842 24 OFFCURVE",
"357.681 12 OFFCURVE",
"335 12 CURVE SMOOTH",
"170.736 12 OFFCURVE",
"104 145.772 OFFCURVE",
"104 252 CURVE SMOOTH",
"104 334.667 OFFCURVE",
"128.5 418.333 OFFCURVE",
"182.5 481 CURVE SMOOTH",
"236.5 543.667 OFFCURVE",
"318.333 587 OFFCURVE",
"433 587 CURVE SMOOTH",
"471 587 OFFCURVE",
"500 582.833 OFFCURVE",
"520 574.5 CURVE SMOOTH",
"540 566.167 OFFCURVE",
"550 553 OFFCURVE",
"550 535 CURVE SMOOTH",
"550 517.013 OFFCURVE",
"515.155 495 OFFCURVE",
"501 495 CURVE SMOOTH",
"496.333 495 OFFCURVE",
"491.5 497 OFFCURVE",
"486.5 501 CURVE SMOOTH",
"481.5 505 OFFCURVE",
"471.667 513.667 OFFCURVE",
"457 527 CURVE SMOOTH",
"443.667 539 OFFCURVE",
"433.333 541 OFFCURVE",
"416 541 CURVE SMOOTH",
"287.056 541 OFFCURVE",
"176 367.385 OFFCURVE",
"176 237 CURVE SMOOTH",
"176 106.825 OFFCURVE",
"229.132 64 OFFCURVE",
"325 64 CURVE SMOOTH",
"389.144 64 OFFCURVE",
"445.042 97.25 OFFCURVE",
"451 133 CURVE SMOOTH",
"459 193 LINE"
);
}
);
userData = {
assembly = "PUSHW[ ]\011/* 3 values pushed */
11 35 3 
CALL[ ]\011/* CallFunction */
PUSHW[ ]\011/* 1 value pushed */
11 
SRP0[ ]\011/* SetRefPoint0 */
NPUSHW[ ]\011/* 27 values pushed */
6 11 22 11 38 11 54 11 70 11 86 11 102 11 118 11 134 11 150 11 166 11 182 11 198 11 13 
DELTAP1[ ]\011/* DeltaExceptionP1 */
NPUSHW[ ]\011/* 5 values pushed */
213 11 229 11 2 
DELTAP1[ ]\011/* DeltaExceptionP1 */
SVTCA[0]\011/* SetFreedomAndProjectionVectorToAxis */
PUSHW[ ]\011/* 1 value pushed */
51 
MDAP[1]\011/* MoveDirectAbsPt */
PUSHW[ ]\011/* 3 values pushed */
30 16 3 
CALL[ ]\011/* CallFunction */
PUSHW[ ]\011/* 1 value pushed */
30 
SRP0[ ]\011/* SetRefPoint0 */
PUSHW[ ]\011/* 3 values pushed */
6 40 3 
CALL[ ]\011/* CallFunction */
PUSHW[ ]\011/* 1 value pushed */
6 
SRP0[ ]\011/* SetRefPoint0 */
IUP[0]\011/* InterpolateUntPts */
IUP[1]\011/* InterpolateUntPts */";
};
width = 630;
}
);
note = G;
unicode = 0047;
},
{
glyphname = H;
lastChange = "2018-11-25 04:46:33 +0000";
layers = (
{
layerId = "0D8C0684-5C80-438C-A1B9-8A29192E7ABE";
paths = (
{
closed = 1;
nodes = (
"200 15.667 OFFCURVE",
"185 0 OFFCURVE",
"155 0 CURVE SMOOTH",
"140.333 0 OFFCURVE",
"136 9 OFFCURVE",
"136 25 CURVE SMOOTH",
"136 59.667 OFFCURVE",
"137 95.667 OFFCURVE",
"139 133 CURVE SMOOTH",
"141 170.333 OFFCURVE",
"142 210 OFFCURVE",
"142 252 CURVE SMOOTH",
"142 270.667 OFFCURVE",
"142 290 OFFCURVE",
"142 310 CURVE SMOOTH",
"142 358.133 OFFCURVE",
"139.704 439.622 OFFCURVE",
"138 472 CURVE",
"138 502.64 OFFCURVE",
"95 511.961 OFFCURVE",
"95 534 CURVE SMOOTH",
"95 544.338 OFFCURVE",
"124.765 578 OFFCURVE",
"150 578 CURVE SMOOTH",
"172.221 578 OFFCURVE",
"226 554.91 OFFCURVE",
"226 542 CURVE SMOOTH",
"226 536 OFFCURVE",
"223.5 527.333 OFFCURVE",
"218.5 516 CURVE SMOOTH",
"213.5 504.667 OFFCURVE",
"210.667 491 OFFCURVE",
"210 475 CURVE",
"210 427 OFFCURVE",
"209.667 373.333 OFFCURVE",
"207 324 CURVE",
"473 324 LINE",
"474.333 350.667 OFFCURVE",
"475 385.333 OFFCURVE",
"475 420 CURVE SMOOTH",
"475 443.333 OFFCURVE",
"474 464.667 OFFCURVE",
"472 484 CURVE SMOOTH",
"470 503.333 OFFCURVE",
"469 517.667 OFFCURVE",
"469 527 CURVE SMOOTH",
"469 545.592 OFFCURVE",
"530.196 560 OFFCURVE",
"553 560 CURVE SMOOTH",
"566.333 560 OFFCURVE",
"573 555.333 OFFCURVE",
"573 546 CURVE SMOOTH",
"573 542.02 OFFCURVE",
"554.562 502.997 OFFCURVE",
"551 484 CURVE SMOOTH",
"544.388 444.327 OFFCURVE",
"541 361.928 OFFCURVE",
"541 325 CURVE",
"551.667 326.333 OFFCURVE",
"563.333 327 OFFCURVE",
"574 327 CURVE SMOOTH",
"584.667 327 OFFCURVE",
"591 325.333 OFFCURVE",
"591 312 CURVE SMOOTH",
"591 300 OFFCURVE",
"583 272 OFFCURVE",
"567 272 CURVE SMOOTH",
"565 272 OFFCURVE",
"562.667 272.333 OFFCURVE",
"560 273 CURVE SMOOTH",
"557.333 273.667 OFFCURVE",
"554.333 274 OFFCURVE",
"551 274 CURVE SMOOTH",
"544.333 274 OFFCURVE",
"541 270 OFFCURVE",
"541 262 CURVE SMOOTH",
"539 65 LINE SMOOTH",
"539 48.785 OFFCURVE",
"524.863 13 OFFCURVE",
"508 13 CURVE SMOOTH",
"489.333 13 OFFCURVE",
"483.333 17.667 OFFCURVE",
"482 39 CURVE SMOOTH",
"472 272 LINE",
"406.624 272 OFFCURVE",
"247.369 266.105 OFFCURVE",
"205 254 CURVE",
"201 243.333 OFFCURVE",
"200 227.667 OFFCURVE",
"200 217 CURVE SMOOTH",
"200 47 LINE SMOOTH"
);
}
);
userData = {
assembly = "PUSHW[ ]\011/* 3 values pushed */
1 78 3 
CALL[ ]\011/* CallFunction */
PUSHW[ ]\011/* 1 value pushed */
1 
SRP0[ ]\011/* SetRefPoint0 */
PUSHW[ ]\011/* 3 values pushed */
33 53 3 
CALL[ ]\011/* CallFunction */
PUSHW[ ]\011/* 1 value pushed */
33 
SRP0[ ]\011/* SetRefPoint0 */
NPUSHW[ ]\011/* 5 values pushed */
218 53 234 53 2 
DELTAP1[ ]\011/* DeltaExceptionP1 */
NPUSHW[ ]\011/* 27 values pushed */
9 53 25 53 41 53 57 53 73 53 89 53 105 53 121 53 137 53 153 53 169 53 185 53 201 53 13 
DELTAP1[ ]\011/* DeltaExceptionP1 */
PUSHW[ ]\011/* 1 value pushed */
53 
SRP0[ ]\011/* SetRefPoint0 */
PUSHW[ ]\011/* 1 value pushed */
9 
MDRP[10000]\011/* MoveDirectRelPt */
PUSHW[ ]\011/* 1 value pushed */
9 
MDAP[1]\011/* MoveDirectAbsPt */
PUSHW[ ]\011/* 1 value pushed */
53 
SRP0[ ]\011/* SetRefPoint0 */
PUSHW[ ]\011/* 1 value pushed */
10 
MDRP[10000]\011/* MoveDirectRelPt */
PUSHW[ ]\011/* 1 value pushed */
10 
MDAP[1]\011/* MoveDirectAbsPt */
PUSHW[ ]\011/* 1 value pushed */
33 
SRP0[ ]\011/* SetRefPoint0 */
PUSHW[ ]\011/* 1 value pushed */
18 
MDRP[10000]\011/* MoveDirectRelPt */
PUSHW[ ]\011/* 1 value pushed */
18 
MDAP[1]\011/* MoveDirectAbsPt */
PUSHW[ ]\011/* 1 value pushed */
53 
SRP0[ ]\011/* SetRefPoint0 */
PUSHW[ ]\011/* 1 value pushed */
50 
MDRP[10000]\011/* MoveDirectRelPt */
PUSHW[ ]\011/* 1 value pushed */
50 
MDAP[1]\011/* MoveDirectAbsPt */
PUSHW[ ]\011/* 1 value pushed */
53 
SRP0[ ]\011/* SetRefPoint0 */
PUSHW[ ]\011/* 1 value pushed */
56 
MDRP[10000]\011/* MoveDirectRelPt */
PUSHW[ ]\011/* 1 value pushed */
56 
MDAP[1]\011/* MoveDirectAbsPt */
PUSHW[ ]\011/* 1 value pushed */
1 
SRP0[ ]\011/* SetRefPoint0 */
PUSHW[ ]\011/* 1 value pushed */
57 
MDRP[10000]\011/* MoveDirectRelPt */
PUSHW[ ]\011/* 1 value pushed */
57 
MDAP[1]\011/* MoveDirectAbsPt */
PUSHW[ ]\011/* 1 value pushed */
78 
SRP0[ ]\011/* SetRefPoint0 */
PUSHW[ ]\011/* 1 value pushed */
82 
MDRP[10000]\011/* MoveDirectRelPt */
PUSHW[ ]\011/* 1 value pushed */
82 
MDAP[1]\011/* MoveDirectAbsPt */
PUSHW[ ]\011/* 1 value pushed */
78 
SRP0[ ]\011/* SetRefPoint0 */
PUSHW[ ]\011/* 1 value pushed */
84 
MDRP[10000]\011/* MoveDirectRelPt */
PUSHW[ ]\011/* 1 value pushed */
84 
MDAP[1]\011/* MoveDirectAbsPt */
PUSHW[ ]\011/* 1 value pushed */
78 
SRP0[ ]\011/* SetRefPoint0 */
PUSHW[ ]\011/* 1 value pushed */
87 
MDRP[10000]\011/* MoveDirectRelPt */
PUSHW[ ]\011/* 1 value pushed */
87 
MDAP[1]\011/* MoveDirectAbsPt */
PUSHW[ ]\011/* 1 value pushed */
33 
SRP0[ ]\011/* SetRefPoint0 */
PUSHW[ ]\011/* 1 value pushed */
93 
MDRP[11100]\011/* MoveDirectRelPt */
SVTCA[0]\011/* SetFreedomAndProjectionVectorToAxis */
PUSHW[ ]\011/* 1 value pushed */
68 
MDAP[1]\011/* MoveDirectAbsPt */
PUSHW[ ]\011/* 1 value pushed */
90 
MDAP[1]\011/* MoveDirectAbsPt */
PUSHW[ ]\011/* 3 values pushed */
56 9 3 
CALL[ ]\011/* CallFunction */
PUSHW[ ]\011/* 1 value pushed */
56 
SRP0[ ]\011/* SetRefPoint0 */
PUSHW[ ]\011/* 1 value pushed */
9 
SRP0[ ]\011/* SetRefPoint0 */
PUSHW[ ]\011/* 1 value pushed */
21 
MDRP[10000]\011/* MoveDirectRelPt */
PUSHW[ ]\011/* 1 value pushed */
21 
MDAP[1]\011/* MoveDirectAbsPt */
PUSHW[ ]\011/* 1 value pushed */
9 
SRP0[ ]\011/* SetRefPoint0 */
PUSHW[ ]\011/* 1 value pushed */
24 
MDRP[10000]\011/* MoveDirectRelPt */
PUSHW[ ]\011/* 1 value pushed */
56 
SRP0[ ]\011/* SetRefPoint0 */
PUSHW[ ]\011/* 1 value pushed */
30 
MDRP[10000]\011/* MoveDirectRelPt */
PUSHW[ ]\011/* 1 value pushed */
30 
MDAP[1]\011/* MoveDirectAbsPt */
PUSHW[ ]\011/* 1 value pushed */
56 
SRP0[ ]\011/* SetRefPoint0 */
PUSHW[ ]\011/* 1 value pushed */
33 
MDRP[10000]\011/* MoveDirectRelPt */
PUSHW[ ]\011/* 1 value pushed */
33 
MDAP[1]\011/* MoveDirectAbsPt */
IUP[0]\011/* InterpolateUntPts */
IUP[1]\011/* InterpolateUntPts */";
};
width = 704;
}
);
note = H;
unicode = 0048;
},
{
glyphname = I;
lastChange = "2018-11-25 04:46:33 +0000";
layers = (
{
layerId = "0D8C0684-5C80-438C-A1B9-8A29192E7ABE";
paths = (
{
closed = 1;
nodes = (
"134 344.333 OFFCURVE",
"133.5 372 OFFCURVE",
"132.5 392 CURVE SMOOTH",
"131.5 412 OFFCURVE",
"131 430.667 OFFCURVE",
"131 448 CURVE SMOOTH",
"131 466.667 OFFCURVE",
"131 478.667 OFFCURVE",
"123 488 CURVE SMOOTH",
"109.667 502.667 OFFCURVE",
"106 513.333 OFFCURVE",
"106 524 CURVE SMOOTH",
"106 540.945 OFFCURVE",
"161.475 587 OFFCURVE",
"180 587 CURVE SMOOTH",
"194.667 587 OFFCURVE",
"219 572 OFFCURVE",
"219 564 CURVE SMOOTH",
"219 556 OFFCURVE",
"217.5 547.833 OFFCURVE",
"214.5 539.5 CURVE SMOOTH",
"211.5 531.167 OFFCURVE",
"209.667 521.333 OFFCURVE",
"209 510 CURVE SMOOTH",
"206.333 480.667 OFFCURVE",
"204.167 431.5 OFFCURVE",
"202.5 362.5 CURVE SMOOTH",
"200.833 293.5 OFFCURVE",
"200 199 OFFCURVE",
"200 79 CURVE SMOOTH",
"200 39 OFFCURVE",
"197.5 12.5 OFFCURVE",
"192.5 -0.5 CURVE SMOOTH",
"187.5 -13.5 OFFCURVE",
"179.333 -20 OFFCURVE",
"168 -20 CURVE SMOOTH",
"148.507 -20 OFFCURVE",
"143.422 -6.659 OFFCURVE",
"139.5 25.5 CURVE SMOOTH",
"134.342 67.798 OFFCURVE",
"134 196.593 OFFCURVE",
"134 309 CURVE SMOOTH"
);
}
);
userData = {
assembly = "PUSHW[ ]\011/* 3 values pushed */
10 0 3 
CALL[ ]\011/* CallFunction */
PUSHW[ ]\011/* 1 value pushed */
10 
SRP0[ ]\011/* SetRefPoint0 */
NPUSHW[ ]\011/* 5 values pushed */
218 0 234 0 2 
DELTAP1[ ]\011/* DeltaExceptionP1 */
NPUSHW[ ]\011/* 27 values pushed */
9 0 25 0 41 0 57 0 73 0 89 0 105 0 121 0 137 0 153 0 169 0 185 0 201 0 13 
DELTAP1[ ]\011/* DeltaExceptionP1 */
PUSHW[ ]\011/* 1 value pushed */
0 
SRP0[ ]\011/* SetRefPoint0 */
PUSHW[ ]\011/* 1 value pushed */
13 
MDRP[11100]\011/* MoveDirectRelPt */
PUSHW[ ]\011/* 1 value pushed */
0 
SRP0[ ]\011/* SetRefPoint0 */
PUSHW[ ]\011/* 1 value pushed */
30 
MDRP[10000]\011/* MoveDirectRelPt */
PUSHW[ ]\011/* 1 value pushed */
30 
MDAP[1]\011/* MoveDirectAbsPt */
SVTCA[0]\011/* SetFreedomAndProjectionVectorToAxis */
PUSHW[ ]\011/* 1 value pushed */
19 
MDAP[1]\011/* MoveDirectAbsPt */
PUSHW[ ]\011/* 1 value pushed */
7 
MDAP[1]\011/* MoveDirectAbsPt */
IUP[0]\011/* InterpolateUntPts */
IUP[1]\011/* InterpolateUntPts */";
};
width = 333;
}
);
note = I;
unicode = 0049;
},
{
glyphname = J;
lastChange = "2018-11-25 04:46:33 +0000";
layers = (
{
layerId = "0D8C0684-5C80-438C-A1B9-8A29192E7ABE";
paths = (
{
closed = 1;
nodes = (
"214 123.333 OFFCURVE",
"192.167 47.333 OFFCURVE",
"163.5 -6 CURVE SMOOTH",
"149.167 -32.667 OFFCURVE",
"133.5 -54 OFFCURVE",
"116.5 -70 CURVE SMOOTH",
"77.854 -106.372 OFFCURVE",
"34.941 -126 OFFCURVE",
"11 -126 CURVE SMOOTH",
"-4.887 -126 OFFCURVE",
"-34 -88.078 OFFCURVE",
"-34 -69 CURVE SMOOTH",
"-34 -59 OFFCURVE",
"-28.333 -54 OFFCURVE",
"-17 -54 CURVE SMOOTH",
"-11 -54 OFFCURVE",
"-4.667 -54.333 OFFCURVE",
"2 -55 CURVE SMOOTH",
"8.667 -55.667 OFFCURVE",
"19 -56 OFFCURVE",
"33 -56 CURVE SMOOTH",
"95.572 -56 OFFCURVE",
"148 30.849 OFFCURVE",
"148 145 CURVE SMOOTH",
"148 281 OFFCURVE",
"147.833 364.833 OFFCURVE",
"144.5 421.5 CURVE SMOOTH",
"141.167 478.167 OFFCURVE",
"137 506 OFFCURVE",
"129 530 CURVE",
"120.966 551.423 OFFCURVE",
"98 540.178 OFFCURVE",
"98 564 CURVE SMOOTH",
"98 580.607 OFFCURVE",
"167.436 630 OFFCURVE",
"188 630 CURVE SMOOTH",
"198.667 630 OFFCURVE",
"212 618 OFFCURVE",
"212 602 CURVE SMOOTH",
"212 580.667 OFFCURVE",
"212.333 551.5 OFFCURVE",
"213 514.5 CURVE SMOOTH",
"213.667 477.5 OFFCURVE",
"214 437.667 OFFCURVE",
"214 395 CURVE SMOOTH",
"214 234 LINE SMOOTH"
);
}
);
userData = {
assembly = "PUSHW[ ]\011/* 3 values pushed */
0 22 3 
CALL[ ]\011/* CallFunction */
PUSHW[ ]\011/* 1 value pushed */
4 
MDRP[10000]\011/* MoveDirectRelPt */
PUSHW[ ]\011/* 1 value pushed */
4 
MDAP[1]\011/* MoveDirectAbsPt */
SVTCA[0]\011/* SetFreedomAndProjectionVectorToAxis */
PUSHW[ ]\011/* 1 value pushed */
37 
MDAP[1]\011/* MoveDirectAbsPt */
PUSHW[ ]\011/* 1 value pushed */
7 
MDAP[1]\011/* MoveDirectAbsPt */
IUP[0]\011/* InterpolateUntPts */
IUP[1]\011/* InterpolateUntPts */";
};
width = 333;
}
);
note = J;
unicode = 004A;
},
{
glyphname = K;
lastChange = "2018-11-25 04:46:33 +0000";
layers = (
{
layerId = "0D8C0684-5C80-438C-A1B9-8A29192E7ABE";
paths = (
{
closed = 1;
nodes = (
"429 525 LINE SMOOTH",
"469.167 555.603 OFFCURVE",
"487.639 588 OFFCURVE",
"502 588 CURVE SMOOTH",
"505.333 588 OFFCURVE",
"509.5 586.667 OFFCURVE",
"514.5 584 CURVE SMOOTH",
"519.5 581.333 OFFCURVE",
"527 577.667 OFFCURVE",
"537 573 CURVE SMOOTH",
"546.333 569 OFFCURVE",
"557 544.667 OFFCURVE",
"557 534 CURVE SMOOTH",
"557 526 OFFCURVE",
"552.667 521.667 OFFCURVE",
"538 519 CURVE",
"519.87 516.41 OFFCURVE",
"447.375 467.707 OFFCURVE",
"413 444 CURVE SMOOTH",
"369.07 413.704 OFFCURVE",
"296.71 360.737 OFFCURVE",
"275 341 CURVE",
"302.416 324.246 OFFCURVE",
"381.187 272.599 OFFCURVE",
"450 230 CURVE SMOOTH",
"534 178 OFFCURVE",
"632.667 118.667 OFFCURVE",
"718 76 CURVE SMOOTH",
"740.683 64.658 OFFCURVE",
"792 65.148 OFFCURVE",
"792 50 CURVE SMOOTH",
"792 34.398 OFFCURVE",
"742.205 -14 OFFCURVE",
"724 -14 CURVE SMOOTH",
"717.333 -14 OFFCURVE",
"711 -12 OFFCURVE",
"705 -8 CURVE SMOOTH",
"699 -4 OFFCURVE",
"689.333 2.333 OFFCURVE",
"676 11 CURVE SMOOTH",
"508 127 OFFCURVE",
"393 201.667 OFFCURVE",
"317 247 CURVE SMOOTH",
"261.453 280.133 OFFCURVE",
"204.398 309 OFFCURVE",
"191 309 CURVE",
"191 272.023 OFFCURVE",
"194 78.146 OFFCURVE",
"194 52 CURVE SMOOTH",
"194 35.183 OFFCURVE",
"154.241 0 OFFCURVE",
"140 0 CURVE SMOOTH",
"135.333 0 OFFCURVE",
"132 2.5 OFFCURVE",
"130 7.5 CURVE SMOOTH",
"128 12.5 OFFCURVE",
"127 24.667 OFFCURVE",
"127 44 CURVE SMOOTH",
"127 57.782 OFFCURVE",
"128.971 99.138 OFFCURVE",
"129.5 133.5 CURVE SMOOTH",
"130.053 169.44 OFFCURVE",
"132 239.129 OFFCURVE",
"132 284 CURVE SMOOTH",
"132 364 OFFCURVE",
"127.667 445 OFFCURVE",
"121 525 CURVE SMOOTH",
"119.449 540.509 OFFCURVE",
"95 557.378 OFFCURVE",
"95 563 CURVE SMOOTH",
"95 569.667 OFFCURVE",
"97.333 571.333 OFFCURVE",
"100 574 CURVE",
"120.906 590.505 OFFCURVE",
"153.64 617 OFFCURVE",
"162 617 CURVE SMOOTH",
"170.591 617 OFFCURVE",
"206 591.91 OFFCURVE",
"206 577 CURVE SMOOTH",
"206 541.647 OFFCURVE",
"191 412.927 OFFCURVE",
"191 367 CURVE",
"216 358 LINE"
);
}
);
userData = {
assembly = "PUSHW[ ]\011/* 3 values pushed */
1 24 3 
CALL[ ]\011/* CallFunction */
PUSHW[ ]\011/* 1 value pushed */
1 
SRP0[ ]\011/* SetRefPoint0 */
PUSHW[ ]\011/* 1 value pushed */
27 
MDRP[11100]\011/* MoveDirectRelPt */
PUSHW[ ]\011/* 1 value pushed */
24 
SRP0[ ]\011/* SetRefPoint0 */
PUSHW[ ]\011/* 1 value pushed */
32 
MDRP[10000]\011/* MoveDirectRelPt */
PUSHW[ ]\011/* 1 value pushed */
32 
MDAP[1]\011/* MoveDirectAbsPt */
PUSHW[ ]\011/* 1 value pushed */
1 
SRP0[ ]\011/* SetRefPoint0 */
PUSHW[ ]\011/* 1 value pushed */
40 
MDRP[10000]\011/* MoveDirectRelPt */
PUSHW[ ]\011/* 1 value pushed */
40 
MDAP[1]\011/* MoveDirectAbsPt */
PUSHW[ ]\011/* 1 value pushed */
1 
SRP0[ ]\011/* SetRefPoint0 */
PUSHW[ ]\011/* 1 value pushed */
45 
MDRP[10000]\011/* MoveDirectRelPt */
SVTCA[0]\011/* SetFreedomAndProjectionVectorToAxis */
PUSHW[ ]\011/* 1 value pushed */
11 
MDAP[1]\011/* MoveDirectAbsPt */
PUSHW[ ]\011/* 1 value pushed */
53 
MDAP[1]\011/* MoveDirectAbsPt */
PUSHW[ ]\011/* 3 values pushed */
68 53 11 
SRP1[ ]\011/* SetRefPoint1 */
SRP2[ ]\011/* SetRefPoint2 */
IP[ ]\011/* InterpolatePts */
IUP[0]\011/* InterpolateUntPts */
IUP[1]\011/* InterpolateUntPts */";
};
width = 796;
}
);
note = K;
unicode = 004B;
},
{
glyphname = L;
lastChange = "2018-11-25 04:46:33 +0000";
layers = (
{
layerId = "0D8C0684-5C80-438C-A1B9-8A29192E7ABE";
paths = (
{
closed = 1;
nodes = (
"425.333 67.667 OFFCURVE",
"434.667 70.833 OFFCURVE",
"444 76.5 CURVE SMOOTH",
"453.333 82.167 OFFCURVE",
"461.667 85 OFFCURVE",
"469 85 CURVE SMOOTH",
"480.333 85 OFFCURVE",
"486 80.667 OFFCURVE",
"486 72 CURVE SMOOTH",
"486 62.09 OFFCURVE",
"470.08 0 OFFCURVE",
"455 0 CURVE SMOOTH",
"443 0 OFFCURVE",
"436 3.333 OFFCURVE",
"416 10 CURVE",
"409.971 13.015 OFFCURVE",
"353.95 14 OFFCURVE",
"307 14 CURVE SMOOTH",
"252.612 14 OFFCURVE",
"207.424 14.212 OFFCURVE",
"193 7 CURVE SMOOTH",
"184.333 2.333 OFFCURVE",
"174 0 OFFCURVE",
"162 0 CURVE SMOOTH",
"147.27 0 OFFCURVE",
"124 40.944 OFFCURVE",
"124 51 CURVE SMOOTH",
"124 56.333 OFFCURVE",
"127.333 62.5 OFFCURVE",
"134 69.5 CURVE SMOOTH",
"140.667 76.5 OFFCURVE",
"144 86.333 OFFCURVE",
"144 99 CURVE",
"145.333 120.333 OFFCURVE",
"146 150.667 OFFCURVE",
"146 192 CURVE SMOOTH",
"146 333 LINE SMOOTH",
"146 430.333 OFFCURVE",
"137.833 484.833 OFFCURVE",
"130.5 517.5 CURVE SMOOTH",
"125.519 539.69 OFFCURVE",
"115 561.803 OFFCURVE",
"115 567 CURVE SMOOTH",
"115 581.211 OFFCURVE",
"174.133 625 OFFCURVE",
"189 625 CURVE SMOOTH",
"201 625 OFFCURVE",
"224 615.667 OFFCURVE",
"224 601 CURVE SMOOTH",
"224 595 OFFCURVE",
"222.667 587.667 OFFCURVE",
"220 579 CURVE SMOOTH",
"217.333 570.333 OFFCURVE",
"216 561.333 OFFCURVE",
"216 552 CURVE SMOOTH",
"216 522 OFFCURVE",
"215 492.333 OFFCURVE",
"213 463 CURVE SMOOTH",
"211 433.667 OFFCURVE",
"210 405 OFFCURVE",
"210 377 CURVE SMOOTH",
"210 358.333 OFFCURVE",
"210.333 340.833 OFFCURVE",
"211 324.5 CURVE SMOOTH",
"211.667 308.167 OFFCURVE",
"212 289 OFFCURVE",
"212 267 CURVE SMOOTH",
"212 220.712 OFFCURVE",
"200 87.298 OFFCURVE",
"200 64 CURVE SMOOTH",
"200 58.667 OFFCURVE",
"204 56 OFFCURVE",
"212 56 CURVE SMOOTH",
"215.333 56 OFFCURVE",
"218.833 56.667 OFFCURVE",
"222.5 58 CURVE SMOOTH",
"226.167 59.333 OFFCURVE",
"230.333 60 OFFCURVE",
"235 60 CURVE",
"416 67 LINE SMOOTH"
);
}
);
userData = {
assembly = "PUSHW[ ]\011/* 3 values pushed */
11 33 3 
CALL[ ]\011/* CallFunction */
PUSHW[ ]\011/* 1 value pushed */
11 
SRP0[ ]\011/* SetRefPoint0 */
PUSHW[ ]\011/* 1 value pushed */
14 
MDRP[10000]\011/* MoveDirectRelPt */
PUSHW[ ]\011/* 1 value pushed */
14 
MDAP[1]\011/* MoveDirectAbsPt */
PUSHW[ ]\011/* 1 value pushed */
11 
SRP0[ ]\011/* SetRefPoint0 */
PUSHW[ ]\011/* 1 value pushed */
17 
MDRP[10000]\011/* MoveDirectRelPt */
PUSHW[ ]\011/* 1 value pushed */
17 
MDAP[1]\011/* MoveDirectAbsPt */
PUSHW[ ]\011/* 1 value pushed */
33 
SRP0[ ]\011/* SetRefPoint0 */
PUSHW[ ]\011/* 1 value pushed */
37 
MDRP[10000]\011/* MoveDirectRelPt */
PUSHW[ ]\011/* 1 value pushed */
37 
MDAP[1]\011/* MoveDirectAbsPt */
SVTCA[0]\011/* SetFreedomAndProjectionVectorToAxis */
PUSHW[ ]\011/* 1 value pushed */
23 
MDAP[1]\011/* MoveDirectAbsPt */
PUSHW[ ]\011/* 1 value pushed */
45 
MDAP[1]\011/* MoveDirectAbsPt */
PUSHW[ ]\011/* 1 value pushed */
47 
MDAP[1]\011/* MoveDirectAbsPt */
PUSHW[ ]\011/* 1 value pushed */
60 
MDAP[1]\011/* MoveDirectAbsPt */
PUSHW[ ]\011/* 3 values pushed */
6 52 3 
CALL[ ]\011/* CallFunction */
PUSHW[ ]\011/* 1 value pushed */
6 
SRP0[ ]\011/* SetRefPoint0 */
PUSHW[ ]\011/* 1 value pushed */
0 
MDRP[10000]\011/* MoveDirectRelPt */
PUSHW[ ]\011/* 1 value pushed */
0 
MDAP[1]\011/* MoveDirectAbsPt */
IUP[0]\011/* InterpolateUntPts */
IUP[1]\011/* InterpolateUntPts */";
};
width = 519;
}
);
note = L;
unicode = 004C;
},
{
glyphname = M;
lastChange = "2018-11-25 04:46:33 +0000";
layers = (
{
layerId = "0D8C0684-5C80-438C-A1B9-8A29192E7ABE";
paths = (
{
closed = 1;
nodes = (
"242 256 OFFCURVE",
"221.833 190 OFFCURVE",
"203.5 134 CURVE SMOOTH",
"185.167 78 OFFCURVE",
"173.333 37 OFFCURVE",
"168 11 CURVE",
"162.171 -12.315 OFFCURVE",
"156.565 -14 OFFCURVE",
"121 -14 CURVE SMOOTH",
"103.889 -14 OFFCURVE",
"75 9.559 OFFCURVE",
"75 21 CURVE SMOOTH",
"75 25 OFFCURVE",
"76.333 29.667 OFFCURVE",
"79 35 CURVE SMOOTH",
"81.667 40.333 OFFCURVE",
"87.667 48.333 OFFCURVE",
"97 59 CURVE SMOOTH",
"140.316 107.731 OFFCURVE",
"198 270.778 OFFCURVE",
"198 336 CURVE SMOOTH",
"198 404 OFFCURVE",
"171.833 453.833 OFFCURVE",
"144.5 490.5 CURVE SMOOTH",
"121.99 520.697 OFFCURVE",
"91 552.989 OFFCURVE",
"91 570 CURVE SMOOTH",
"91 582.773 OFFCURVE",
"132.196 587 OFFCURVE",
"148 587 CURVE SMOOTH",
"158.584 587 OFFCURVE",
"172.509 575.586 OFFCURVE",
"188.5 556.5 CURVE SMOOTH",
"209.167 531.833 OFFCURVE",
"242 487 OFFCURVE",
"294 411 CURVE SMOOTH",
"324.859 367.435 OFFCURVE",
"403.823 275.54 OFFCURVE",
"448 233.5 CURVE SMOOTH",
"493.093 190.589 OFFCURVE",
"575.346 129 OFFCURVE",
"617 129 CURVE SMOOTH",
"671.667 129 OFFCURVE",
"751 165.833 OFFCURVE",
"823 226.5 CURVE SMOOTH",
"895 287.167 OFFCURVE",
"960 373.333 OFFCURVE",
"984 472 CURVE SMOOTH",
"988 488.667 OFFCURVE",
"991.833 500.333 OFFCURVE",
"995.5 507 CURVE SMOOTH",
"999.167 513.667 OFFCURVE",
"1003 517 OFFCURVE",
"1007 517 CURVE SMOOTH",
"1019.157 517 OFFCURVE",
"1052 506.99 OFFCURVE",
"1052 492 CURVE SMOOTH",
"1052 481.172 OFFCURVE",
"1044.253 442.516 OFFCURVE",
"1038.5 408 CURVE SMOOTH",
"1031.167 364 OFFCURVE",
"1025 303.333 OFFCURVE",
"1025 230 CURVE SMOOTH",
"1025 173.257 OFFCURVE",
"1080 72.781 OFFCURVE",
"1080 44 CURVE SMOOTH",
"1080 33.361 OFFCURVE",
"1037.135 12 OFFCURVE",
"1021 12 CURVE SMOOTH",
"1013 12 OFFCURVE",
"1006.833 17.333 OFFCURVE",
"1002.5 28 CURVE SMOOTH",
"998.167 38.667 OFFCURVE",
"995 53.333 OFFCURVE",
"993 72 CURVE SMOOTH",
"988.152 110.786 OFFCURVE",
"968.972 245.155 OFFCURVE",
"963 278 CURVE",
"901 222 LINE SMOOTH",
"807.667 138 OFFCURVE",
"700.333 83 OFFCURVE",
"607 83 CURVE SMOOTH",
"525.852 83 OFFCURVE",
"458.577 124.404 OFFCURVE",
"365 225 CURVE SMOOTH",
"264 332 LINE"
);
}
);
userData = {
assembly = "SVTCA[0]\011/* SetFreedomAndProjectionVectorToAxis */
PUSHW[ ]\011/* 1 value pushed */
58 
MDAP[1]\011/* MoveDirectAbsPt */
PUSHW[ ]\011/* 1 value pushed */
81 
MDAP[1]\011/* MoveDirectAbsPt */
PUSHW[ ]\011/* 3 values pushed */
46 6 3 
CALL[ ]\011/* CallFunction */
PUSHW[ ]\011/* 1 value pushed */
46 
SRP0[ ]\011/* SetRefPoint0 */
PUSHW[ ]\011/* 3 values pushed */
0 81 58 
SRP1[ ]\011/* SetRefPoint1 */
SRP2[ ]\011/* SetRefPoint2 */
IP[ ]\011/* InterpolatePts */
PUSHW[ ]\011/* 3 values pushed */
10 81 58 
SRP1[ ]\011/* SetRefPoint1 */
SRP2[ ]\011/* SetRefPoint2 */
IP[ ]\011/* InterpolatePts */
IUP[0]\011/* InterpolateUntPts */
IUP[1]\011/* InterpolateUntPts */";
};
width = 1167;
}
);
note = M;
unicode = 004D;
},
{
glyphname = N;
lastChange = "2018-11-25 04:46:33 +0000";
layers = (
{
layerId = "0D8C0684-5C80-438C-A1B9-8A29192E7ABE";
paths = (
{
closed = 1;
nodes = (
"182 371 OFFCURVE",
"166.667 409.667 OFFCURVE",
"128 451 CURVE SMOOTH",
"87.351 494.901 OFFCURVE",
"52 530.901 OFFCURVE",
"52 548 CURVE SMOOTH",
"52 560 OFFCURVE",
"71.667 579 OFFCURVE",
"97 579 CURVE SMOOTH",
"110.896 579 OFFCURVE",
"159.704 530.286 OFFCURVE",
"189 502 CURVE SMOOTH",
"294.333 399.333 OFFCURVE",
"379.667 324.667 OFFCURVE",
"465 262 CURVE SMOOTH",
"550.333 199.333 OFFCURVE",
"634.333 149.333 OFFCURVE",
"737 96 CURVE",
"740.868 138.55 OFFCURVE",
"745 194.393 OFFCURVE",
"745 231 CURVE SMOOTH",
"745 275 OFFCURVE",
"744.333 315.333 OFFCURVE",
"743 352 CURVE SMOOTH",
"741.667 388.667 OFFCURVE",
"740.333 426 OFFCURVE",
"739 464 CURVE SMOOTH",
"737.491 494.182 OFFCURVE",
"708 529.341 OFFCURVE",
"708 544 CURVE SMOOTH",
"708 566.355 OFFCURVE",
"755.427 576 OFFCURVE",
"781 576 CURVE SMOOTH",
"795.667 576 OFFCURVE",
"814 573.333 OFFCURVE",
"814 556 CURVE SMOOTH",
"814 549.283 OFFCURVE",
"808.56 515.54 OFFCURVE",
"805.5 484.5 CURVE SMOOTH",
"801.513 444.064 OFFCURVE",
"797 314.979 OFFCURVE",
"797 206 CURVE SMOOTH",
"797 129.052 OFFCURVE",
"808 77.385 OFFCURVE",
"808 38 CURVE SMOOTH",
"808 5.205 OFFCURVE",
"764.258 -14 OFFCURVE",
"742 -14 CURVE SMOOTH",
"729.924 -14 OFFCURVE",
"711.854 43.688 OFFCURVE",
"683 61 CURVE SMOOTH",
"576.333 122.333 OFFCURVE",
"499.333 167.167 OFFCURVE",
"442 202.5 CURVE SMOOTH",
"413.333 220.167 OFFCURVE",
"389 235.667 OFFCURVE",
"369 249 CURVE SMOOTH",
"319.482 282.012 OFFCURVE",
"271.267 321.47 OFFCURVE",
"240 351 CURVE",
"236.021 321.82 OFFCURVE",
"232.332 257.923 OFFCURVE",
"229 208.5 CURVE SMOOTH",
"225 149.167 OFFCURVE",
"219.333 86 OFFCURVE",
"210 38 CURVE SMOOTH",
"203.333 7.333 OFFCURVE",
"187 -7 OFFCURVE",
"171 -7 CURVE SMOOTH",
"156.278 -7 OFFCURVE",
"129 5.456 OFFCURVE",
"129 21 CURVE SMOOTH",
"129 32.906 OFFCURVE",
"145.841 71.421 OFFCURVE",
"155.5 106.5 CURVE SMOOTH",
"168.167 152.5 OFFCURVE",
"182 217.667 OFFCURVE",
"182 307 CURVE SMOOTH"
);
}
);
userData = {
assembly = "PUSHW[ ]\011/* 3 values pushed */
40 58 3 
CALL[ ]\011/* CallFunction */
PUSHW[ ]\011/* 1 value pushed */
40 
SRP0[ ]\011/* SetRefPoint0 */
NPUSHW[ ]\011/* 5 values pushed */
218 58 234 58 2 
DELTAP1[ ]\011/* DeltaExceptionP1 */
NPUSHW[ ]\011/* 27 values pushed */
9 58 25 58 41 58 57 58 73 58 89 58 105 58 121 58 137 58 153 58 169 58 185 58 201 58 13 
DELTAP1[ ]\011/* DeltaExceptionP1 */
PUSHW[ ]\011/* 1 value pushed */
58 
SRP0[ ]\011/* SetRefPoint0 */
PUSHW[ ]\011/* 1 value pushed */
61 
MDRP[10000]\011/* MoveDirectRelPt */
PUSHW[ ]\011/* 1 value pushed */
61 
MDAP[1]\011/* MoveDirectAbsPt */
PUSHW[ ]\011/* 1 value pushed */
58 
SRP0[ ]\011/* SetRefPoint0 */
PUSHW[ ]\011/* 1 value pushed */
66 
MDRP[10000]\011/* MoveDirectRelPt */
PUSHW[ ]\011/* 1 value pushed */
66 
MDAP[1]\011/* MoveDirectAbsPt */
PUSHW[ ]\011/* 1 value pushed */
40 
SRP0[ ]\011/* SetRefPoint0 */
PUSHW[ ]\011/* 1 value pushed */
88 
MDRP[11100]\011/* MoveDirectRelPt */
SVTCA[0]\011/* SetFreedomAndProjectionVectorToAxis */
PUSHW[ ]\011/* 1 value pushed */
48 
MDAP[1]\011/* MoveDirectAbsPt */
PUSHW[ ]\011/* 1 value pushed */
76 
MDAP[1]\011/* MoveDirectAbsPt */
PUSHW[ ]\011/* 1 value pushed */
10 
MDAP[1]\011/* MoveDirectAbsPt */
PUSHW[ ]\011/* 1 value pushed */
30 
MDAP[1]\011/* MoveDirectAbsPt */
PUSHW[ ]\011/* 3 values pushed */
18 30 76 
SRP1[ ]\011/* SetRefPoint1 */
SRP2[ ]\011/* SetRefPoint2 */
IP[ ]\011/* InterpolatePts */
PUSHW[ ]\011/* 3 values pushed */
66 30 76 
SRP1[ ]\011/* SetRefPoint1 */
SRP2[ ]\011/* SetRefPoint2 */
IP[ ]\011/* InterpolatePts */
IUP[0]\011/* InterpolateUntPts */
IUP[1]\011/* InterpolateUntPts */";
};
width = 926;
}
);
note = N;
unicode = 004E;
},
{
glyphname = O;
lastChange = "2018-11-25 04:46:33 +0000";
layers = (
{
layerId = "0D8C0684-5C80-438C-A1B9-8A29192E7ABE";
paths = (
{
closed = 1;
nodes = (
"160 218.008 OFFCURVE",
"205.019 86 OFFCURVE",
"325 86 CURVE SMOOTH",
"402 86 OFFCURVE",
"476 143.234 OFFCURVE",
"476 283 CURVE SMOOTH",
"476 428.101 OFFCURVE",
"415.32 503 OFFCURVE",
"325 503 CURVE SMOOTH",
"219.402 503 OFFCURVE",
"160 402.896 OFFCURVE",
"160 289 CURVE SMOOTH"
);
},
{
closed = 1;
nodes = (
"88 417.342 OFFCURVE",
"170.628 561 OFFCURVE",
"344 561 CURVE SMOOTH",
"463.133 561 OFFCURVE",
"542 464.019 OFFCURVE",
"542 295 CURVE SMOOTH",
"542 129.386 OFFCURVE",
"432.721 22 OFFCURVE",
"299 22 CURVE SMOOTH",
"187.448 22 OFFCURVE",
"88 120.288 OFFCURVE",
"88 273 CURVE SMOOTH"
);
}
);
userData = {
assembly = "PUSHW[ ]\011/* 1 value pushed */
40 
MDAP[1]\011/* MoveDirectAbsPt */
PUSHW[ ]\011/* 1 value pushed */
41 
MDAP[1]\011/* MoveDirectAbsPt */
PUSHW[ ]\011/* 1 value pushed */
40 
SRP0[ ]\011/* SetRefPoint0 */
PUSHW[ ]\011/* 1 value pushed */
20 
MDRP[10000]\011/* MoveDirectRelPt */
PUSHW[ ]\011/* 1 value pushed */
20 
MDAP[1]\011/* MoveDirectAbsPt */
PUSHW[ ]\011/* 1 value pushed */
0 
MDRP[11100]\011/* MoveDirectRelPt */
NPUSHW[ ]\011/* 27 values pushed */
6 0 22 0 38 0 54 0 70 0 86 0 102 0 118 0 134 0 150 0 166 0 182 0 198 0 13 
DELTAP1[ ]\011/* DeltaExceptionP1 */
NPUSHW[ ]\011/* 5 values pushed */
213 0 229 0 2 
DELTAP1[ ]\011/* DeltaExceptionP1 */
PUSHW[ ]\011/* 1 value pushed */
41 
SRP0[ ]\011/* SetRefPoint0 */
PUSHW[ ]\011/* 1 value pushed */
30 
MDRP[11100]\011/* MoveDirectRelPt */
PUSHW[ ]\011/* 1 value pushed */
10 
MDRP[11100]\011/* MoveDirectRelPt */
NPUSHW[ ]\011/* 5 values pushed */
218 10 234 10 2 
DELTAP1[ ]\011/* DeltaExceptionP1 */
NPUSHW[ ]\011/* 27 values pushed */
9 10 25 10 41 10 57 10 73 10 89 10 105 10 121 10 137 10 153 10 169 10 185 10 201 10 13 
DELTAP1[ ]\011/* DeltaExceptionP1 */
SVTCA[0]\011/* SetFreedomAndProjectionVectorToAxis */
PUSHW[ ]\011/* 3 values pushed */
15 25 3 
CALL[ ]\011/* CallFunction */
PUSHW[ ]\011/* 1 value pushed */
15 
SRP0[ ]\011/* SetRefPoint0 */
PUSHW[ ]\011/* 3 values pushed */
35 5 3 
CALL[ ]\011/* CallFunction */
PUSHW[ ]\011/* 1 value pushed */
35 
SRP0[ ]\011/* SetRefPoint0 */
IUP[0]\011/* InterpolateUntPts */
IUP[1]\011/* InterpolateUntPts */";
};
width = 630;
}
);
note = O;
unicode = 004F;
},
{
glyphname = P;
lastChange = "2018-11-25 04:46:33 +0000";
layers = (
{
layerId = "0D8C0684-5C80-438C-A1B9-8A29192E7ABE";
paths = (
{
closed = 1;
nodes = (
"137 347.333 OFFCURVE",
"133.667 448.667 OFFCURVE",
"127 494 CURVE SMOOTH",
"125.667 502 OFFCURVE",
"124 509 OFFCURVE",
"116 513 CURVE SMOOTH",
"106 518.333 OFFCURVE",
"101 524.333 OFFCURVE",
"101 531 CURVE SMOOTH",
"101 566.21 OFFCURVE",
"206.83 602 OFFCURVE",
"244 602 CURVE SMOOTH",
"278.667 602 OFFCURVE",
"328.333 593 OFFCURVE",
"367 577 CURVE",
"401.234 561.2 OFFCURVE",
"440 502.828 OFFCURVE",
"440 467 CURVE SMOOTH",
"440 420.333 OFFCURVE",
"434.333 388.333 OFFCURVE",
"423 371 CURVE SMOOTH",
"400.404 334.846 OFFCURVE",
"331.176 263 OFFCURVE",
"307 263 CURVE SMOOTH",
"292.234 263 OFFCURVE",
"240 284.159 OFFCURVE",
"240 296 CURVE SMOOTH",
"240 299.333 OFFCURVE",
"241.667 302.167 OFFCURVE",
"245 304.5 CURVE SMOOTH",
"248.333 306.833 OFFCURVE",
"254.667 309 OFFCURVE",
"264 311 CURVE SMOOTH",
"328 324.333 OFFCURVE",
"368 372 OFFCURVE",
"368 424 CURVE SMOOTH",
"368 472.423 OFFCURVE",
"347.49 550 OFFCURVE",
"289 550 CURVE SMOOTH",
"259.667 550 OFFCURVE",
"236.667 542 OFFCURVE",
"210 526 CURVE",
"205.131 484.615 OFFCURVE",
"199 387.846 OFFCURVE",
"199 341 CURVE SMOOTH",
"199 77 LINE SMOOTH",
"199 3.667 OFFCURVE",
"184.333 -30 OFFCURVE",
"143 -30 CURVE SMOOTH",
"131.667 -30 OFFCURVE",
"126 -25 OFFCURVE",
"126 -15 CURVE SMOOTH",
"126 -7.405 OFFCURVE",
"137 34.748 OFFCURVE",
"137 69 CURVE SMOOTH",
"137 218 LINE SMOOTH"
);
}
);
userData = {
assembly = "PUSHW[ ]\011/* 1 value pushed */
65 
MDAP[1]\011/* MoveDirectAbsPt */
PUSHW[ ]\011/* 3 values pushed */
12 0 3 
CALL[ ]\011/* CallFunction */
PUSHW[ ]\011/* 1 value pushed */
12 
SRP0[ ]\011/* SetRefPoint0 */
PUSHW[ ]\011/* 1 value pushed */
0 
SRP0[ ]\011/* SetRefPoint0 */
PUSHW[ ]\011/* 1 value pushed */
8 
MDRP[10000]\011/* MoveDirectRelPt */
PUSHW[ ]\011/* 1 value pushed */
8 
MDAP[1]\011/* MoveDirectAbsPt */
PUSHW[ ]\011/* 1 value pushed */
65 
SRP0[ ]\011/* SetRefPoint0 */
PUSHW[ ]\011/* 1 value pushed */
43 
MDRP[11100]\011/* MoveDirectRelPt */
PUSHW[ ]\011/* 1 value pushed */
25 
MDRP[11100]\011/* MoveDirectRelPt */
NPUSHW[ ]\011/* 5 values pushed */
218 25 234 25 2 
DELTAP1[ ]\011/* DeltaExceptionP1 */
NPUSHW[ ]\011/* 27 values pushed */
9 25 25 25 41 25 57 25 73 25 89 25 105 25 121 25 137 25 153 25 169 25 185 25 201 25 13 
DELTAP1[ ]\011/* DeltaExceptionP1 */
PUSHW[ ]\011/* 1 value pushed */
48 
MDRP[10000]\011/* MoveDirectRelPt */
PUSHW[ ]\011/* 1 value pushed */
48 
MDAP[1]\011/* MoveDirectAbsPt */
SVTCA[0]\011/* SetFreedomAndProjectionVectorToAxis */
PUSHW[ ]\011/* 1 value pushed */
8 
MDAP[1]\011/* MoveDirectAbsPt */
PUSHW[ ]\011/* 3 values pushed */
51 20 3 
CALL[ ]\011/* CallFunction */
PUSHW[ ]\011/* 1 value pushed */
51 
SRP0[ ]\011/* SetRefPoint0 */
IUP[0]\011/* InterpolateUntPts */
IUP[1]\011/* InterpolateUntPts */";
};
width = 519;
}
);
note = P;
unicode = 0050;
},
{
glyphname = Q;
lastChange = "2018-11-25 04:46:33 +0000";
layers = (
{
layerId = "0D8C0684-5C80-438C-A1B9-8A29192E7ABE";
paths = (
{
closed = 1;
nodes = (
"581 332.05 OFFCURVE",
"536.2 232.967 OFFCURVE",
"499.5 192 CURVE SMOOTH",
"473.967 163.498 OFFCURVE",
"424.008 119 OFFCURVE",
"411 119 CURVE SMOOTH",
"401.874 119 OFFCURVE",
"365 122.178 OFFCURVE",
"365 137 CURVE SMOOTH",
"365 139 OFFCURVE",
"366.167 141 OFFCURVE",
"368.5 143 CURVE SMOOTH",
"370.833 145 OFFCURVE",
"376.667 149 OFFCURVE",
"386 155 CURVE SMOOTH",
"476.431 213.658 OFFCURVE",
"505 295.923 OFFCURVE",
"505 376 CURVE SMOOTH",
"505 464.754 OFFCURVE",
"454.617 538 OFFCURVE",
"366 538 CURVE SMOOTH",
"280.45 538 OFFCURVE",
"154 455.667 OFFCURVE",
"154 324 CURVE SMOOTH",
"154 290.667 OFFCURVE",
"171.167 226.833 OFFCURVE",
"234.5 155.5 CURVE SMOOTH",
"297.833 84.167 OFFCURVE",
"406.667 7.333 OFFCURVE",
"592 -54 CURVE SMOOTH",
"669.832 -79.944 OFFCURVE",
"699.859 -86 OFFCURVE",
"760 -86 CURVE SMOOTH",
"785.333 -86 OFFCURVE",
"805.333 -85 OFFCURVE",
"820 -83 CURVE SMOOTH",
"834.667 -81 OFFCURVE",
"845.667 -78.667 OFFCURVE",
"853 -76 CURVE SMOOTH",
"859 -74 OFFCURVE",
"863.667 -73 OFFCURVE",
"867 -73 CURVE SMOOTH",
"877.667 -73 OFFCURVE",
"882 -81.667 OFFCURVE",
"882 -87 CURVE SMOOTH",
"882 -91 OFFCURVE",
"874.667 -104.333 OFFCURVE",
"864 -111 CURVE SMOOTH",
"816 -141 LINE SMOOTH",
"805.333 -147.667 OFFCURVE",
"799.667 -150 OFFCURVE",
"789 -150 CURVE SMOOTH",
"744.297 -150 OFFCURVE",
"625.845 -117.807 OFFCURVE",
"556 -95 CURVE SMOOTH",
"490.667 -73.667 OFFCURVE",
"426.833 -49 OFFCURVE",
"371.5 -25 CURVE SMOOTH",
"343.833 -13 OFFCURVE",
"320.333 -1.667 OFFCURVE",
"301 9 CURVE SMOOTH",
"175.114 84.048 OFFCURVE",
"88 207.171 OFFCURVE",
"88 301 CURVE SMOOTH",
"88 439.871 OFFCURVE",
"213.684 596 OFFCURVE",
"356 596 CURVE SMOOTH",
"517.838 596 OFFCURVE",
"581 478.386 OFFCURVE",
"581 396 CURVE SMOOTH"
);
}
);
userData = {
assembly = "PUSHW[ ]\011/* 1 value pushed */
77 
MDAP[1]\011/* MoveDirectAbsPt */
PUSHW[ ]\011/* 1 value pushed */
78 
MDAP[1]\011/* MoveDirectAbsPt */
PUSHW[ ]\011/* 1 value pushed */
0 
MDRP[11100]\011/* MoveDirectRelPt */
PUSHW[ ]\011/* 1 value pushed */
77 
SRP0[ ]\011/* SetRefPoint0 */
PUSHW[ ]\011/* 1 value pushed */
10 
MDRP[10000]\011/* MoveDirectRelPt */
PUSHW[ ]\011/* 1 value pushed */
10 
MDAP[1]\011/* MoveDirectAbsPt */
PUSHW[ ]\011/* 1 value pushed */
47 
MDRP[11100]\011/* MoveDirectRelPt */
NPUSHW[ ]\011/* 27 values pushed */
6 47 22 47 38 47 54 47 70 47 86 47 102 47 118 47 134 47 150 47 166 47 182 47 198 47 13 
DELTAP1[ ]\011/* DeltaExceptionP1 */
NPUSHW[ ]\011/* 5 values pushed */
213 47 229 47 2 
DELTAP1[ ]\011/* DeltaExceptionP1 */
PUSHW[ ]\011/* 1 value pushed */
0 
SRP0[ ]\011/* SetRefPoint0 */
PUSHW[ ]\011/* 1 value pushed */
57 
MDRP[11100]\011/* MoveDirectRelPt */
NPUSHW[ ]\011/* 5 values pushed */
218 57 234 57 2 
DELTAP1[ ]\011/* DeltaExceptionP1 */
NPUSHW[ ]\011/* 27 values pushed */
9 57 25 57 41 57 57 57 73 57 89 57 105 57 121 57 137 57 153 57 169 57 185 57 201 57 13 
DELTAP1[ ]\011/* DeltaExceptionP1 */
SVTCA[0]\011/* SetFreedomAndProjectionVectorToAxis */
PUSHW[ ]\011/* 3 values pushed */
37 22 3 
CALL[ ]\011/* CallFunction */
PUSHW[ ]\011/* 1 value pushed */
37 
SRP0[ ]\011/* SetRefPoint0 */
PUSHW[ ]\011/* 3 values pushed */
5 52 3 
CALL[ ]\011/* CallFunction */
PUSHW[ ]\011/* 1 value pushed */
5 
SRP0[ ]\011/* SetRefPoint0 */
IUP[0]\011/* InterpolateUntPts */
IUP[1]\011/* InterpolateUntPts */";
};
width = 685;
}
);
note = Q;
unicode = 0051;
},
{
glyphname = R;
lastChange = "2018-11-25 04:46:33 +0000";
layers = (
{
layerId = "0D8C0684-5C80-438C-A1B9-8A29192E7ABE";
paths = (
{
closed = 1;
nodes = (
"210 323.667 OFFCURVE",
"216 321 OFFCURVE",
"226 321 CURVE SMOOTH",
"262.275 321 OFFCURVE",
"354 399.761 OFFCURVE",
"354 468 CURVE SMOOTH",
"354 534.667 OFFCURVE",
"323.333 559 OFFCURVE",
"286 559 CURVE SMOOTH",
"263.333 559 OFFCURVE",
"234.667 548.333 OFFCURVE",
"220 527 CURVE",
"211.802 502.406 OFFCURVE",
"208 419.992 OFFCURVE",
"208 372 CURVE SMOOTH",
"208 329 LINE"
);
},
{
closed = 1;
nodes = (
"385.667 617 OFFCURVE",
"426 558 OFFCURVE",
"426 482 CURVE SMOOTH",
"426 405.226 OFFCURVE",
"388.333 351.538 OFFCURVE",
"346 332 CURVE SMOOTH",
"275 300 LINE",
"275 298 LINE",
"289.667 295.333 OFFCURVE",
"300 292.667 OFFCURVE",
"308 282 CURVE",
"364 212.667 OFFCURVE",
"418.667 158.667 OFFCURVE",
"460 120 CURVE SMOOTH",
"491.347 90.675 OFFCURVE",
"529 59.896 OFFCURVE",
"529 53 CURVE SMOOTH",
"529 43.667 OFFCURVE",
"526.667 37.667 OFFCURVE",
"516 27 CURVE SMOOTH",
"510 21 OFFCURVE",
"505.5 16.667 OFFCURVE",
"502.5 14 CURVE SMOOTH",
"499.5 11.333 OFFCURVE",
"496.333 10 OFFCURVE",
"493 10 CURVE SMOOTH",
"477 10 LINE SMOOTH",
"466.333 10 OFFCURVE",
"458.667 11.667 OFFCURVE",
"448 25 CURVE SMOOTH",
"438.667 36.333 OFFCURVE",
"427.5 50 OFFCURVE",
"414.5 66 CURVE SMOOTH",
"401.5 82 OFFCURVE",
"383.333 102.667 OFFCURVE",
"360 128 CURVE SMOOTH",
"252 245 LINE SMOOTH",
"238.667 259.667 OFFCURVE",
"225.333 263 OFFCURVE",
"208 263 CURVE",
"206.667 241.667 OFFCURVE",
"206 217.333 OFFCURVE",
"206 184 CURVE SMOOTH",
"206 21 LINE SMOOTH",
"206 10.333 OFFCURVE",
"201.667 0 OFFCURVE",
"187 0 CURVE SMOOTH",
"168.807 0 OFFCURVE",
"114 17.683 OFFCURVE",
"114 36 CURVE SMOOTH",
"114 42.667 OFFCURVE",
"122.333 53.333 OFFCURVE",
"133 68 CURVE",
"143.215 85.025 OFFCURVE",
"146 272.35 OFFCURVE",
"146 290 CURVE SMOOTH",
"146 343 LINE SMOOTH",
"146 399 OFFCURVE",
"144 453 OFFCURVE",
"140 489 CURVE SMOOTH",
"137.518 508.857 OFFCURVE",
"113 499.053 OFFCURVE",
"113 525 CURVE SMOOTH",
"113 536.333 OFFCURVE",
"117.333 545 OFFCURVE",
"126 551 CURVE SMOOTH",
"183.882 592.675 OFFCURVE",
"267.892 617 OFFCURVE",
"303 617 CURVE SMOOTH"
);
}
);
userData = {
assembly = "PUSHW[ ]\011/* 3 values pushed */
52 26 3 
CALL[ ]\011/* CallFunction */
PUSHW[ ]\011/* 1 value pushed */
52 
SRP0[ ]\011/* SetRefPoint0 */
PUSHW[ ]\011/* 3 values pushed */
87 12 3 
CALL[ ]\011/* CallFunction */
PUSHW[ ]\011/* 1 value pushed */
87 
SRP0[ ]\011/* SetRefPoint0 */
PUSHW[ ]\011/* 1 value pushed */
52 
SRP0[ ]\011/* SetRefPoint0 */
PUSHW[ ]\011/* 1 value pushed */
0 
MDRP[10000]\011/* MoveDirectRelPt */
PUSHW[ ]\011/* 1 value pushed */
0 
MDAP[1]\011/* MoveDirectAbsPt */
NPUSHW[ ]\011/* 5 values pushed */
218 12 234 12 2 
DELTAP1[ ]\011/* DeltaExceptionP1 */
NPUSHW[ ]\011/* 27 values pushed */
9 12 25 12 41 12 57 12 73 12 89 12 105 12 121 12 137 12 153 12 169 12 185 12 201 12 13 
DELTAP1[ ]\011/* DeltaExceptionP1 */
PUSHW[ ]\011/* 1 value pushed */
52 
SRP0[ ]\011/* SetRefPoint0 */
PUSHW[ ]\011/* 1 value pushed */
35 
MDRP[11100]\011/* MoveDirectRelPt */
PUSHW[ ]\011/* 1 value pushed */
31 
MDRP[10000]\011/* MoveDirectRelPt */
PUSHW[ ]\011/* 1 value pushed */
31 
MDAP[1]\011/* MoveDirectAbsPt */
PUSHW[ ]\011/* 1 value pushed */
26 
SRP0[ ]\011/* SetRefPoint0 */
PUSHW[ ]\011/* 1 value pushed */
43 
MDRP[10000]\011/* MoveDirectRelPt */
PUSHW[ ]\011/* 1 value pushed */
43 
MDAP[1]\011/* MoveDirectAbsPt */
PUSHW[ ]\011/* 1 value pushed */
52 
SRP0[ ]\011/* SetRefPoint0 */
PUSHW[ ]\011/* 1 value pushed */
55 
MDRP[10000]\011/* MoveDirectRelPt */
PUSHW[ ]\011/* 1 value pushed */
55 
MDAP[1]\011/* MoveDirectAbsPt */
PUSHW[ ]\011/* 3 values pushed */
81 26 87 
SRP1[ ]\011/* SetRefPoint1 */
SRP2[ ]\011/* SetRefPoint2 */
IP[ ]\011/* InterpolatePts */
PUSHW[ ]\011/* 1 value pushed */
87 
SRP0[ ]\011/* SetRefPoint0 */
PUSHW[ ]\011/* 1 value pushed */
91 
MDRP[11100]\011/* MoveDirectRelPt */
SVTCA[0]\011/* SetFreedomAndProjectionVectorToAxis */
PUSHW[ ]\011/* 1 value pushed */
48 
MDAP[1]\011/* MoveDirectAbsPt */
PUSHW[ ]\011/* 3 values pushed */
19 9 3 
CALL[ ]\011/* CallFunction */
PUSHW[ ]\011/* 1 value pushed */
19 
SRP0[ ]\011/* SetRefPoint0 */
IUP[0]\011/* InterpolateUntPts */
IUP[1]\011/* InterpolateUntPts */";
};
width = 556;
}
);
note = R;
unicode = 0052;
},
{
glyphname = S;
lastChange = "2018-11-25 04:46:33 +0000";
layers = (
{
layerId = "0D8C0684-5C80-438C-A1B9-8A29192E7ABE";
paths = (
{
closed = 1;
nodes = (
"81 55.667 OFFCURVE",
"88.333 61 OFFCURVE",
"95 61 CURVE SMOOTH",
"104.333 61 OFFCURVE",
"115.333 57.833 OFFCURVE",
"128 51.5 CURVE SMOOTH",
"140.667 45.167 OFFCURVE",
"156.333 42 OFFCURVE",
"175 42 CURVE SMOOTH",
"211 42 OFFCURVE",
"235 71.667 OFFCURVE",
"235 101 CURVE SMOOTH",
"235 138.736 OFFCURVE",
"197.73 216.835 OFFCURVE",
"171.5 268.5 CURVE SMOOTH",
"145.693 319.332 OFFCURVE",
"108 398.886 OFFCURVE",
"108 435 CURVE SMOOTH",
"108 488.839 OFFCURVE",
"192.663 626 OFFCURVE",
"271 626 CURVE SMOOTH",
"291.588 626 OFFCURVE",
"351 617.378 OFFCURVE",
"351 597 CURVE SMOOTH",
"351 570.333 OFFCURVE",
"345.333 565.333 OFFCURVE",
"308 564 CURVE SMOOTH",
"220 561.333 OFFCURVE",
"184 519 OFFCURVE",
"184 463 CURVE SMOOTH",
"184 389.823 OFFCURVE",
"293 232.145 OFFCURVE",
"293 126 CURVE SMOOTH",
"293 85.061 OFFCURVE",
"259.798 -27 OFFCURVE",
"175 -27 CURVE SMOOTH",
"153.066 -27 OFFCURVE",
"93.663 -9.157 OFFCURVE",
"88 5 CURVE",
"84 17 OFFCURVE",
"81 27.667 OFFCURVE",
"81 41 CURVE SMOOTH"
);
}
);
userData = {
assembly = "PUSHW[ ]\011/* 1 value pushed */
50 
MDAP[1]\011/* MoveDirectAbsPt */
PUSHW[ ]\011/* 1 value pushed */
51 
MDAP[1]\011/* MoveDirectAbsPt */
PUSHW[ ]\011/* 1 value pushed */
13 
MDRP[11100]\011/* MoveDirectRelPt */
PUSHW[ ]\011/* 1 value pushed */
50 
SRP0[ ]\011/* SetRefPoint0 */
PUSHW[ ]\011/* 1 value pushed */
34 
MDRP[10000]\011/* MoveDirectRelPt */
PUSHW[ ]\011/* 1 value pushed */
34 
MDAP[1]\011/* MoveDirectAbsPt */
PUSHW[ ]\011/* 1 value pushed */
18 
MDRP[11100]\011/* MoveDirectRelPt */
NPUSHW[ ]\011/* 27 values pushed */
6 18 22 18 38 18 54 18 70 18 86 18 102 18 118 18 134 18 150 18 166 18 182 18 198 18 13 
DELTAP1[ ]\011/* DeltaExceptionP1 */
NPUSHW[ ]\011/* 5 values pushed */
213 18 229 18 2 
DELTAP1[ ]\011/* DeltaExceptionP1 */
PUSHW[ ]\011/* 1 value pushed */
13 
SRP0[ ]\011/* SetRefPoint0 */
PUSHW[ ]\011/* 1 value pushed */
41 
MDRP[11100]\011/* MoveDirectRelPt */
NPUSHW[ ]\011/* 5 values pushed */
218 41 234 41 2 
DELTAP1[ ]\011/* DeltaExceptionP1 */
NPUSHW[ ]\011/* 27 values pushed */
9 41 25 41 41 41 57 41 73 41 89 41 105 41 121 41 137 41 153 41 169 41 185 41 201 41 13 
DELTAP1[ ]\011/* DeltaExceptionP1 */
SVTCA[0]\011/* SetFreedomAndProjectionVectorToAxis */
PUSHW[ ]\011/* 3 values pushed */
44 8 3 
CALL[ ]\011/* CallFunction */
PUSHW[ ]\011/* 1 value pushed */
44 
SRP0[ ]\011/* SetRefPoint0 */
PUSHW[ ]\011/* 3 values pushed */
29 21 3 
CALL[ ]\011/* CallFunction */
PUSHW[ ]\011/* 1 value pushed */
29 
SRP0[ ]\011/* SetRefPoint0 */
IUP[0]\011/* InterpolateUntPts */
IUP[1]\011/* InterpolateUntPts */";
};
width = 389;
}
);
note = S;
unicode = 0053;
},
{
glyphname = T;
lastChange = "2018-11-25 04:46:33 +0000";
layers = (
{
layerId = "0D8C0684-5C80-438C-A1B9-8A29192E7ABE";
paths = (
{
closed = 1;
nodes = (
"73 501 OFFCURVE",
"66.833 500.667 OFFCURVE",
"60.5 500 CURVE SMOOTH",
"54.167 499.333 OFFCURVE",
"47.667 499 OFFCURVE",
"41 499 CURVE SMOOTH",
"25 499 OFFCURVE",
"17 519.667 OFFCURVE",
"17 537 CURVE SMOOTH",
"17 547.667 OFFCURVE",
"35 567 OFFCURVE",
"47 567 CURVE SMOOTH",
"72.573 567 OFFCURVE",
"151.747 559 OFFCURVE",
"233 559 CURVE SMOOTH",
"269.667 559 OFFCURVE",
"306.333 560.333 OFFCURVE",
"343 563 CURVE SMOOTH",
"379.667 565.667 OFFCURVE",
"416.333 567 OFFCURVE",
"453 567 CURVE SMOOTH",
"463 567 OFFCURVE",
"468 562.333 OFFCURVE",
"468 553 CURVE SMOOTH",
"468 541.589 OFFCURVE",
"440.23 513.461 OFFCURVE",
"423 511 CURVE SMOOTH",
"398.436 507.725 OFFCURVE",
"338.46 505 OFFCURVE",
"310 505 CURVE SMOOTH",
"298 505 OFFCURVE",
"287.333 505 OFFCURVE",
"278 505 CURVE",
"271.333 466.333 OFFCURVE",
"266.833 421.667 OFFCURVE",
"263.5 363 CURVE SMOOTH",
"260.167 304.333 OFFCURVE",
"258 231.667 OFFCURVE",
"258 137 CURVE SMOOTH",
"258 88.647 OFFCURVE",
"281.611 49 OFFCURVE",
"345 49 CURVE SMOOTH",
"349.667 49 OFFCURVE",
"355.5 49.5 OFFCURVE",
"362.5 50.5 CURVE SMOOTH",
"369.5 51.5 OFFCURVE",
"374.667 52 OFFCURVE",
"378 52 CURVE SMOOTH",
"387.333 52 OFFCURVE",
"388 39 OFFCURVE",
"388 31 CURVE SMOOTH",
"388 21 OFFCURVE",
"385 13.333 OFFCURVE",
"379 8 CURVE",
"364.333 -2.667 OFFCURVE",
"334 -14 OFFCURVE",
"314 -14 CURVE SMOOTH",
"240.36 -14 OFFCURVE",
"185 47.359 OFFCURVE",
"185 102 CURVE SMOOTH",
"185 112.798 OFFCURVE",
"190.146 145.521 OFFCURVE",
"192.5 170 CURVE SMOOTH",
"195.833 204.667 OFFCURVE",
"200 254.333 OFFCURVE",
"200 325 CURVE SMOOTH",
"200 385 OFFCURVE",
"199.667 441 OFFCURVE",
"193 501 CURVE",
"79 501 LINE SMOOTH"
);
}
);
userData = {
assembly = "PUSHW[ ]\011/* 3 values pushed */
30 9 3 
CALL[ ]\011/* CallFunction */
PUSHW[ ]\011/* 1 value pushed */
30 
SRP0[ ]\011/* SetRefPoint0 */
NPUSHW[ ]\011/* 27 values pushed */
6 30 22 30 38 30 54 30 70 30 86 30 102 30 118 30 134 30 150 30 166 30 182 30 198 30 13 
DELTAP1[ ]\011/* DeltaExceptionP1 */
NPUSHW[ ]\011/* 5 values pushed */
213 30 229 30 2 
DELTAP1[ ]\011/* DeltaExceptionP1 */
PUSHW[ ]\011/* 1 value pushed */
4 
MDRP[11100]\011/* MoveDirectRelPt */
PUSHW[ ]\011/* 1 value pushed */
1 
MDRP[10000]\011/* MoveDirectRelPt */
PUSHW[ ]\011/* 1 value pushed */
1 
MDAP[1]\011/* MoveDirectAbsPt */
SVTCA[0]\011/* SetFreedomAndProjectionVectorToAxis */
PUSHW[ ]\011/* 3 values pushed */
25 14 3 
CALL[ ]\011/* CallFunction */
PUSHW[ ]\011/* 1 value pushed */
25 
SRP0[ ]\011/* SetRefPoint0 */
PUSHW[ ]\011/* 3 values pushed */
56 0 3 
CALL[ ]\011/* CallFunction */
PUSHW[ ]\011/* 1 value pushed */
56 
SRP0[ ]\011/* SetRefPoint0 */
PUSHW[ ]\011/* 1 value pushed */
25 
SRP0[ ]\011/* SetRefPoint0 */
PUSHW[ ]\011/* 1 value pushed */
22 
MDRP[10000]\011/* MoveDirectRelPt */
PUSHW[ ]\011/* 1 value pushed */
22 
MDAP[1]\011/* MoveDirectAbsPt */
PUSHW[ ]\011/* 1 value pushed */
0 
SRP0[ ]\011/* SetRefPoint0 */
PUSHW[ ]\011/* 1 value pushed */
35 
MDRP[10000]\011/* MoveDirectRelPt */
PUSHW[ ]\011/* 1 value pushed */
35 
MDAP[1]\011/* MoveDirectAbsPt */
PUSHW[ ]\011/* 1 value pushed */
0 
SRP0[ ]\011/* SetRefPoint0 */
PUSHW[ ]\011/* 1 value pushed */
37 
MDRP[10000]\011/* MoveDirectRelPt */
PUSHW[ ]\011/* 1 value pushed */
37 
MDAP[1]\011/* MoveDirectAbsPt */
PUSHW[ ]\011/* 1 value pushed */
56 
SRP0[ ]\011/* SetRefPoint0 */
PUSHW[ ]\011/* 1 value pushed */
48 
MDRP[10000]\011/* MoveDirectRelPt */
PUSHW[ ]\011/* 1 value pushed */
0 
SRP0[ ]\011/* SetRefPoint0 */
PUSHW[ ]\011/* 1 value pushed */
51 
MDRP[11100]\011/* MoveDirectRelPt */
PUSHW[ ]\011/* 1 value pushed */
0 
SRP0[ ]\011/* SetRefPoint0 */
PUSHW[ ]\011/* 1 value pushed */
62 
MDRP[10000]\011/* MoveDirectRelPt */
PUSHW[ ]\011/* 1 value pushed */
62 
MDAP[1]\011/* MoveDirectAbsPt */
IUP[0]\011/* InterpolateUntPts */
IUP[1]\011/* InterpolateUntPts */";
};
width = 500;
}
);
note = T;
unicode = 0054;
},
{
glyphname = U;
lastChange = "2018-11-25 04:46:33 +0000";
layers = (
{
layerId = "0D8C0684-5C80-438C-A1B9-8A29192E7ABE";
paths = (
{
closed = 1;
nodes = (
"21 537 OFFCURVE",
"28.667 546.667 OFFCURVE",
"44 554 CURVE",
"56.697 559.079 OFFCURVE",
"96.323 569 OFFCURVE",
"111 569 CURVE SMOOTH",
"123.667 569 OFFCURVE",
"130 560.667 OFFCURVE",
"130 544 CURVE SMOOTH",
"130 534.667 OFFCURVE",
"129.167 522.833 OFFCURVE",
"127.5 508.5 CURVE SMOOTH",
"125.833 494.167 OFFCURVE",
"125 479 OFFCURVE",
"125 463 CURVE SMOOTH",
"125 415.65 OFFCURVE",
"199.792 303.852 OFFCURVE",
"252 246 CURVE SMOOTH",
"301.333 191.333 OFFCURVE",
"356.333 145.833 OFFCURVE",
"411 118.5 CURVE SMOOTH",
"438.333 104.833 OFFCURVE",
"464.333 98 OFFCURVE",
"489 98 CURVE SMOOTH",
"557 98 OFFCURVE",
"611.333 132 OFFCURVE",
"654 180 CURVE SMOOTH",
"675.333 204 OFFCURVE",
"693.667 230.667 OFFCURVE",
"709 260 CURVE SMOOTH",
"741.524 322.221 OFFCURVE",
"775 438.958 OFFCURVE",
"775 480 CURVE SMOOTH",
"775 502 OFFCURVE",
"776 519.167 OFFCURVE",
"778 531.5 CURVE SMOOTH",
"780 543.833 OFFCURVE",
"787 550 OFFCURVE",
"799 550 CURVE SMOOTH",
"805.667 550 OFFCURVE",
"823.333 543.333 OFFCURVE",
"852 530 CURVE",
"864 523.333 OFFCURVE",
"869 518.667 OFFCURVE",
"869 504 CURVE SMOOTH",
"869 466.904 OFFCURVE",
"798.937 315.89 OFFCURVE",
"764.5 256 CURVE SMOOTH",
"718.5 176 OFFCURVE",
"657 106.167 OFFCURVE",
"581 61.5 CURVE SMOOTH",
"543 39.167 OFFCURVE",
"501 28 OFFCURVE",
"455 28 CURVE SMOOTH",
"401.667 28 OFFCURVE",
"336 70 OFFCURVE",
"272 130 CURVE SMOOTH",
"240 160 OFFCURVE",
"208.833 193.667 OFFCURVE",
"178.5 231 CURVE SMOOTH",
"117.833 305.667 OFFCURVE",
"70 381.833 OFFCURVE",
"42 446.5 CURVE SMOOTH",
"28 478.833 OFFCURVE",
"21 505 OFFCURVE",
"21 525 CURVE SMOOTH"
);
}
);
userData = {
assembly = "PUSHW[ ]\011/* 3 values pushed */
36 0 3 
CALL[ ]\011/* CallFunction */
PUSHW[ ]\011/* 1 value pushed */
36 
SRP0[ ]\011/* SetRefPoint0 */
NPUSHW[ ]\011/* 27 values pushed */
6 36 22 36 38 36 54 36 70 36 86 36 102 36 118 36 134 36 150 36 166 36 182 36 198 36 13 
DELTAP1[ ]\011/* DeltaExceptionP1 */
NPUSHW[ ]\011/* 5 values pushed */
213 36 229 36 2 
DELTAP1[ ]\011/* DeltaExceptionP1 */
PUSHW[ ]\011/* 1 value pushed */
39 
MDRP[10000]\011/* MoveDirectRelPt */
PUSHW[ ]\011/* 1 value pushed */
39 
MDAP[1]\011/* MoveDirectAbsPt */
SVTCA[0]\011/* SetFreedomAndProjectionVectorToAxis */
PUSHW[ ]\011/* 1 value pushed */
41 
MDAP[1]\011/* MoveDirectAbsPt */
PUSHW[ ]\011/* 3 values pushed */
29 7 3 
CALL[ ]\011/* CallFunction */
PUSHW[ ]\011/* 1 value pushed */
29 
SRP0[ ]\011/* SetRefPoint0 */
IUP[0]\011/* InterpolateUntPts */
IUP[1]\011/* InterpolateUntPts */";
};
width = 907;
}
);
note = U;
unicode = 0055;
},
{
glyphname = V;
lastChange = "2018-11-25 04:46:33 +0000";
layers = (
{
layerId = "0D8C0684-5C80-438C-A1B9-8A29192E7ABE";
paths = (
{
closed = 1;
nodes = (
"2 563.68 OFFCURVE",
"68.843 602 OFFCURVE",
"85 602 CURVE SMOOTH",
"96.333 602 OFFCURVE",
"102 595 OFFCURVE",
"102 581 CURVE SMOOTH",
"102 534.358 OFFCURVE",
"236.229 393.108 OFFCURVE",
"277 348 CURVE SMOOTH",
"327.636 291.977 OFFCURVE",
"407.422 204.275 OFFCURVE",
"449 157.5 CURVE SMOOTH",
"473 130.5 OFFCURVE",
"490.667 109 OFFCURVE",
"502 93 CURVE",
"535.124 117.843 OFFCURVE",
"607.038 210.626 OFFCURVE",
"644.5 270 CURVE SMOOTH",
"679.833 326 OFFCURVE",
"709.833 384.833 OFFCURVE",
"730.5 441.5 CURVE SMOOTH",
"740.833 469.833 OFFCURVE",
"747.333 496.333 OFFCURVE",
"750 521 CURVE SMOOTH",
"752.667 543.667 OFFCURVE",
"758.333 547 OFFCURVE",
"769 547 CURVE SMOOTH",
"788.03 547 OFFCURVE",
"847 519.954 OFFCURVE",
"847 504 CURVE SMOOTH",
"847 490.619 OFFCURVE",
"820.983 445.582 OFFCURVE",
"797 407 CURVE SMOOTH",
"766.333 357.667 OFFCURVE",
"725.5 296.167 OFFCURVE",
"683.5 235.5 CURVE SMOOTH",
"641.5 174.833 OFFCURVE",
"598.833 115.833 OFFCURVE",
"563.5 72.5 CURVE SMOOTH",
"535.806 38.536 OFFCURVE",
"503.988 0 OFFCURVE",
"492 0 CURVE SMOOTH",
"481.077 0 OFFCURVE",
"456 14.508 OFFCURVE",
"456 25 CURVE SMOOTH",
"456 39.211 OFFCURVE",
"431.844 66.798 OFFCURVE",
"408 97 CURVE SMOOTH",
"304 225 OFFCURVE",
"224 313.5 OFFCURVE",
"164 375.5 CURVE SMOOTH",
"134 406.5 OFFCURVE",
"108.667 431.667 OFFCURVE",
"88 451 CURVE SMOOTH",
"53.565 483.213 OFFCURVE",
"2 525.059 OFFCURVE",
"2 543 CURVE SMOOTH"
);
}
);
userData = {
assembly = "PUSHW[ ]\011/* 3 values pushed */
48 0 3 
CALL[ ]\011/* CallFunction */
PUSHW[ ]\011/* 1 value pushed */
48 
SRP0[ ]\011/* SetRefPoint0 */
NPUSHW[ ]\011/* 27 values pushed */
6 48 22 48 38 48 54 48 70 48 86 48 102 48 118 48 134 48 150 48 166 48 182 48 198 48 13 
DELTAP1[ ]\011/* DeltaExceptionP1 */
NPUSHW[ ]\011/* 5 values pushed */
213 48 229 48 2 
DELTAP1[ ]\011/* DeltaExceptionP1 */
SVTCA[0]\011/* SetFreedomAndProjectionVectorToAxis */
PUSHW[ ]\011/* 1 value pushed */
50 
MDAP[1]\011/* MoveDirectAbsPt */
PUSHW[ ]\011/* 1 value pushed */
17 
MDAP[1]\011/* MoveDirectAbsPt */
IUP[0]\011/* InterpolateUntPts */
IUP[1]\011/* InterpolateUntPts */";
};
width = 852;
}
);
note = V;
unicode = 0056;
},
{
glyphname = W;
lastChange = "2018-11-25 04:46:33 +0000";
layers = (
{
layerId = "0D8C0684-5C80-438C-A1B9-8A29192E7ABE";
paths = (
{
closed = 1;
nodes = (
"15 564.85 OFFCURVE",
"74.766 602 OFFCURVE",
"91 602 CURVE SMOOTH",
"103 602 OFFCURVE",
"109 596.333 OFFCURVE",
"109 585 CURVE SMOOTH",
"109 547.28 OFFCURVE",
"154.891 426.556 OFFCURVE",
"185 352 CURVE SMOOTH",
"213 282.667 OFFCURVE",
"241 216.167 OFFCURVE",
"265 163.5 CURVE SMOOTH",
"277 137.167 OFFCURVE",
"286.667 117.333 OFFCURVE",
"294 104 CURVE",
"303.636 120.518 OFFCURVE",
"363.85 209.774 OFFCURVE",
"386 243 CURVE SMOOTH",
"416.22 288.33 OFFCURVE",
"463.846 365.256 OFFCURVE",
"475 395 CURVE",
"480.333 407.667 OFFCURVE",
"484.667 415.667 OFFCURVE",
"488 419 CURVE SMOOTH",
"491.333 422.333 OFFCURVE",
"495.333 424 OFFCURVE",
"500 424 CURVE SMOOTH",
"510.593 424 OFFCURVE",
"537 415.245 OFFCURVE",
"537 407 CURVE SMOOTH",
"537 395.667 OFFCURVE",
"546 365.167 OFFCURVE",
"564 315.5 CURVE SMOOTH",
"582 265.833 OFFCURVE",
"613 198.667 OFFCURVE",
"657 114 CURVE",
"675.364 158.89 OFFCURVE",
"737.118 276.077 OFFCURVE",
"770.5 340 CURVE SMOOTH",
"791.612 380.428 OFFCURVE",
"857 497.724 OFFCURVE",
"857 529 CURVE SMOOTH",
"857 553 OFFCURVE",
"864 559 OFFCURVE",
"876 559 CURVE SMOOTH",
"888.938 559 OFFCURVE",
"939 527.901 OFFCURVE",
"939 517 CURVE SMOOTH",
"939 508.831 OFFCURVE",
"928.982 491.974 OFFCURVE",
"917.5 475.5 CURVE SMOOTH",
"902.167 453.5 OFFCURVE",
"879.333 418.667 OFFCURVE",
"846 360 CURVE SMOOTH",
"803.333 288 OFFCURVE",
"762.5 212.667 OFFCURVE",
"732.5 150 CURVE SMOOTH",
"708.791 100.475 OFFCURVE",
"682.131 41.787 OFFCURVE",
"679 23 CURVE",
"677 7.667 OFFCURVE",
"671.667 0 OFFCURVE",
"663 0 CURVE SMOOTH",
"646.324 0 OFFCURVE",
"613.223 3.11 OFFCURVE",
"608 24 CURVE SMOOTH",
"592.003 85.323 OFFCURVE",
"536.153 245.503 OFFCURVE",
"491 288 CURVE",
"465.484 257.38 OFFCURVE",
"409.127 183.78 OFFCURVE",
"380.5 142 CURVE SMOOTH",
"352.481 101.108 OFFCURVE",
"313.989 39.876 OFFCURVE",
"312 18 CURVE",
"309.407 5.034 OFFCURVE",
"268.654 -7 OFFCURVE",
"252 -7 CURVE SMOOTH",
"238.667 -7 OFFCURVE",
"233 -3.667 OFFCURVE",
"233 19 CURVE SMOOTH",
"233 36.169 OFFCURVE",
"221.045 83.877 OFFCURVE",
"202.5 135 CURVE SMOOTH",
"177.833 203 OFFCURVE",
"134 308 OFFCURVE",
"58 468 CURVE SMOOTH",
"46.667 492 OFFCURVE",
"36.667 509.5 OFFCURVE",
"28 520.5 CURVE SMOOTH",
"19.333 531.5 OFFCURVE",
"15 541.333 OFFCURVE",
"15 550 CURVE SMOOTH"
);
}
);
userData = {
assembly = "SVTCA[0]\011/* SetFreedomAndProjectionVectorToAxis */
PUSHW[ ]\011/* 1 value pushed */
87 
MDAP[1]\011/* MoveDirectAbsPt */
PUSHW[ ]\011/* 1 value pushed */
11 
MDAP[1]\011/* MoveDirectAbsPt */
PUSHW[ ]\011/* 1 value pushed */
33 
MDAP[1]\011/* MoveDirectAbsPt */
PUSHW[ ]\011/* 3 values pushed */
60 11 87 
SRP1[ ]\011/* SetRefPoint1 */
SRP2[ ]\011/* SetRefPoint2 */
IP[ ]\011/* InterpolatePts */
PUSHW[ ]\011/* 3 values pushed */
78 11 87 
SRP1[ ]\011/* SetRefPoint1 */
SRP2[ ]\011/* SetRefPoint2 */
IP[ ]\011/* InterpolatePts */
IUP[0]\011/* InterpolateUntPts */
IUP[1]\011/* InterpolateUntPts */";
};
width = 944;
}
);
note = W;
unicode = 0057;
},
{
glyphname = X;
lastChange = "2018-11-25 04:46:33 +0000";
layers = (
{
layerId = "0D8C0684-5C80-438C-A1B9-8A29192E7ABE";
paths = (
{
closed = 1;
nodes = (
"91 24.667 OFFCURVE",
"97 31.333 OFFCURVE",
"109 38 CURVE SMOOTH",
"155.667 63.333 OFFCURVE",
"220.667 129 OFFCURVE",
"298 217 CURVE",
"174 310.333 OFFCURVE",
"89.5 377.667 OFFCURVE",
"31.5 427 CURVE SMOOTH",
"2.5 451.667 OFFCURVE",
"-20.5 472.333 OFFCURVE",
"-37.5 489 CURVE SMOOTH",
"-68.175 519.074 OFFCURVE",
"-95 549.137 OFFCURVE",
"-95 569 CURVE SMOOTH",
"-95 587.754 OFFCURVE",
"-37.788 602 OFFCURVE",
"-10 602 CURVE SMOOTH",
"20.667 602 OFFCURVE",
"26 594.667 OFFCURVE",
"26 568 CURVE SMOOTH",
"26 541.313 OFFCURVE",
"40.985 519.015 OFFCURVE",
"77 483 CURVE SMOOTH",
"105 455 OFFCURVE",
"151 414.667 OFFCURVE",
"219 360 CURVE SMOOTH",
"253 332.667 OFFCURVE",
"293.333 300.333 OFFCURVE",
"340 263 CURVE",
"399.251 328.835 OFFCURVE",
"523 480.529 OFFCURVE",
"523 519 CURVE SMOOTH",
"523 539.576 OFFCURVE",
"604.825 542 OFFCURVE",
"628 542 CURVE SMOOTH",
"638.667 542 OFFCURVE",
"650 540.333 OFFCURVE",
"650 527 CURVE SMOOTH",
"650 523.667 OFFCURVE",
"647.333 518.667 OFFCURVE",
"642 512 CURVE SMOOTH",
"636.667 505.333 OFFCURVE",
"629.333 498.667 OFFCURVE",
"620 492 CURVE",
"607.203 485.602 OFFCURVE",
"541.604 415.804 OFFCURVE",
"511 383.5 CURVE SMOOTH",
"472.491 342.852 OFFCURVE",
"401.079 265.091 OFFCURVE",
"375 235 CURVE",
"443 183 LINE SMOOTH",
"496.333 141.667 OFFCURVE",
"541.5 110.5 OFFCURVE",
"578.5 89.5 CURVE SMOOTH",
"615.5 68.5 OFFCURVE",
"637.667 57.667 OFFCURVE",
"645 57 CURVE",
"655 55.667 OFFCURVE",
"661.667 54.5 OFFCURVE",
"665 53.5 CURVE SMOOTH",
"668.333 52.5 OFFCURVE",
"670 50.333 OFFCURVE",
"670 47 CURVE SMOOTH",
"670 26.867 OFFCURVE",
"624.03 -7 OFFCURVE",
"607 -7 CURVE SMOOTH",
"601 -7 OFFCURVE",
"588 -0.333 OFFCURVE",
"568 13 CURVE SMOOTH",
"548 26.333 OFFCURVE",
"524 43.667 OFFCURVE",
"496 65 CURVE SMOOTH",
"334 189 LINE",
"268.667 115.667 OFFCURVE",
"231 64 OFFCURVE",
"207 32 CURVE SMOOTH",
"187.91 6.546 OFFCURVE",
"171.429 -14 OFFCURVE",
"158 -14 CURVE SMOOTH",
"144.785 -14 OFFCURVE",
"91 2.806 OFFCURVE",
"91 18 CURVE SMOOTH"
);
}
);
userData = {
assembly = "SVTCA[0]\011/* SetFreedomAndProjectionVectorToAxis */
PUSHW[ ]\011/* 1 value pushed */
59 
MDAP[1]\011/* MoveDirectAbsPt */
PUSHW[ ]\011/* 1 value pushed */
5 
MDAP[1]\011/* MoveDirectAbsPt */
PUSHW[ ]\011/* 1 value pushed */
14 
MDAP[1]\011/* MoveDirectAbsPt */
IUP[0]\011/* InterpolateUntPts */
IUP[1]\011/* InterpolateUntPts */";
};
width = 630;
}
);
note = X;
unicode = 0058;
},
{
glyphname = Y;
lastChange = "2018-11-25 04:46:33 +0000";
layers = (
{
layerId = "0D8C0684-5C80-438C-A1B9-8A29192E7ABE";
paths = (
{
closed = 1;
nodes = (
"765 539.333 OFFCURVE",
"764.667 542.167 OFFCURVE",
"764 544.5 CURVE SMOOTH",
"763.333 546.833 OFFCURVE",
"763 549.667 OFFCURVE",
"763 553 CURVE SMOOTH",
"763 561 OFFCURVE",
"767.333 565 OFFCURVE",
"776 565 CURVE SMOOTH",
"793.273 565 OFFCURVE",
"847 547.393 OFFCURVE",
"847 533 CURVE SMOOTH",
"847 505.481 OFFCURVE",
"776.163 404.28 OFFCURVE",
"753.5 370.5 CURVE SMOOTH",
"724.37 327.081 OFFCURVE",
"676.763 256.26 OFFCURVE",
"650 215 CURVE SMOOTH",
"634 190.333 OFFCURVE",
"620.333 168.667 OFFCURVE",
"609 150 CURVE",
"589.097 121.567 OFFCURVE",
"581 70.826 OFFCURVE",
"581 -1 CURVE SMOOTH",
"581 -9 OFFCURVE",
"581.333 -17.5 OFFCURVE",
"582 -26.5 CURVE SMOOTH",
"582.667 -35.5 OFFCURVE",
"583 -44.667 OFFCURVE",
"583 -54 CURVE SMOOTH",
"583 -71.821 OFFCURVE",
"521.789 -83 OFFCURVE",
"503 -83 CURVE SMOOTH",
"497.667 -83 OFFCURVE",
"495 -79.333 OFFCURVE",
"495 -72 CURVE SMOOTH",
"495 -50.086 OFFCURVE",
"519 -1.955 OFFCURVE",
"519 37 CURVE SMOOTH",
"519 84.519 OFFCURVE",
"502.265 115.512 OFFCURVE",
"444.5 171.5 CURVE SMOOTH",
"401.167 213.5 OFFCURVE",
"328.667 274.333 OFFCURVE",
"218 361 CURVE SMOOTH",
"162.667 404.333 OFFCURVE",
"96 456.333 OFFCURVE",
"18 517 CURVE SMOOTH",
"4.667 527.667 OFFCURVE",
"1 539.333 OFFCURVE",
"1 554 CURVE SMOOTH",
"1 567.268 OFFCURVE",
"43.243 602 OFFCURVE",
"71 602 CURVE SMOOTH",
"84.295 602 OFFCURVE",
"84.509 570.179 OFFCURVE",
"103 554 CURVE",
"216.333 446 OFFCURVE",
"318.167 361.5 OFFCURVE",
"397.5 295.5 CURVE SMOOTH",
"476.833 229.5 OFFCURVE",
"532 182 OFFCURVE",
"552 146 CURVE",
"583.169 215.53 OFFCURVE",
"692.048 380.334 OFFCURVE",
"745 473 CURVE SMOOTH",
"759.667 498.333 OFFCURVE",
"765 521.333 OFFCURVE",
"765 536 CURVE SMOOTH"
);
}
);
userData = {
assembly = "PUSHW[ ]\011/* 3 values pushed */
48 33 3 
CALL[ ]\011/* CallFunction */
PUSHW[ ]\011/* 1 value pushed */
48 
SRP0[ ]\011/* SetRefPoint0 */
NPUSHW[ ]\011/* 5 values pushed */
218 33 234 33 2 
DELTAP1[ ]\011/* DeltaExceptionP1 */
NPUSHW[ ]\011/* 27 values pushed */
9 33 25 33 41 33 57 33 73 33 89 33 105 33 121 33 137 33 153 33 169 33 185 33 201 33 13 
DELTAP1[ ]\011/* DeltaExceptionP1 */
PUSHW[ ]\011/* 3 values pushed */
8 33 48 
SRP1[ ]\011/* SetRefPoint1 */
SRP2[ ]\011/* SetRefPoint2 */
IP[ ]\011/* InterpolatePts */
PUSHW[ ]\011/* 1 value pushed */
45 
MDRP[10000]\011/* MoveDirectRelPt */
PUSHW[ ]\011/* 1 value pushed */
45 
MDAP[1]\011/* MoveDirectAbsPt */
SVTCA[0]\011/* SetFreedomAndProjectionVectorToAxis */
PUSHW[ ]\011/* 1 value pushed */
18 
MDAP[1]\011/* MoveDirectAbsPt */
PUSHW[ ]\011/* 1 value pushed */
40 
MDAP[1]\011/* MoveDirectAbsPt */
PUSHW[ ]\011/* 3 values pushed */
8 40 18 
SRP1[ ]\011/* SetRefPoint1 */
SRP2[ ]\011/* SetRefPoint2 */
IP[ ]\011/* InterpolatePts */
IUP[0]\011/* InterpolateUntPts */
IUP[1]\011/* InterpolateUntPts */";
};
width = 852;
}
);
note = Y;
unicode = 0059;
},
{
glyphname = Z;
lastChange = "2018-11-25 04:46:33 +0000";
layers = (
{
layerId = "0D8C0684-5C80-438C-A1B9-8A29192E7ABE";
paths = (
{
closed = 1;
nodes = (
"29 133.333 OFFCURVE",
"38.667 148 OFFCURVE",
"72 176 CURVE SMOOTH",
"104.119 201.695 OFFCURVE",
"189.605 284.822 OFFCURVE",
"240.5 335 CURVE SMOOTH",
"290.852 384.643 OFFCURVE",
"375.502 471.271 OFFCURVE",
"403 503 CURVE",
"359 504.333 OFFCURVE",
"307.667 508.167 OFFCURVE",
"261 511.5 CURVE SMOOTH",
"223.7 514.164 OFFCURVE",
"168.976 518.774 OFFCURVE",
"142 520 CURVE SMOOTH",
"124.667 521.333 OFFCURVE",
"118 535.667 OFFCURVE",
"118 549 CURVE SMOOTH",
"118 569.76 OFFCURVE",
"135.527 602 OFFCURVE",
"156 602 CURVE SMOOTH",
"174.681 602 OFFCURVE",
"211.398 576.146 OFFCURVE",
"235 574 CURVE SMOOTH",
"307.299 567.621 OFFCURVE",
"421.989 561 OFFCURVE",
"449 561 CURVE SMOOTH",
"454.333 561 OFFCURVE",
"459.833 562.5 OFFCURVE",
"465.5 565.5 CURVE SMOOTH",
"471.167 568.5 OFFCURVE",
"477 570 OFFCURVE",
"483 570 CURVE SMOOTH",
"489.667 570 OFFCURVE",
"502 545.667 OFFCURVE",
"502 527 CURVE SMOOTH",
"502 518.237 OFFCURVE",
"466.607 481.607 OFFCURVE",
"432 447 CURVE SMOOTH",
"143 153 LINE SMOOTH",
"131.667 141.667 OFFCURVE",
"124.167 133.833 OFFCURVE",
"120.5 129.5 CURVE SMOOTH",
"116.833 125.167 OFFCURVE",
"115 121 OFFCURVE",
"115 117 CURVE SMOOTH",
"115 88.111 OFFCURVE",
"245.918 47.86 OFFCURVE",
"287.5 35 CURVE SMOOTH",
"352.167 15 OFFCURVE",
"419.667 -1.5 OFFCURVE",
"481 -11.5 CURVE SMOOTH",
"511.667 -16.5 OFFCURVE",
"538.333 -19 OFFCURVE",
"561 -19 CURVE SMOOTH",
"589 -19 OFFCURVE",
"610.333 -14 OFFCURVE",
"625 -4 CURVE",
"635.667 1.333 OFFCURVE",
"649 9 OFFCURVE",
"657 9 CURVE SMOOTH",
"663.667 9 OFFCURVE",
"678 2.667 OFFCURVE",
"678 -4 CURVE SMOOTH",
"678 -20.387 OFFCURVE",
"618.612 -83 OFFCURVE",
"606 -83 CURVE SMOOTH",
"595.629 -83 OFFCURVE",
"548.486 -76.251 OFFCURVE",
"505.5 -69 CURVE SMOOTH",
"450.167 -59.667 OFFCURVE",
"378.667 -47 OFFCURVE",
"308 -31 CURVE SMOOTH",
"190.145 -4.316 OFFCURVE",
"29 45.16 OFFCURVE",
"29 100 CURVE SMOOTH"
);
}
);
userData = {
assembly = "SVTCA[0]\011/* SetFreedomAndProjectionVectorToAxis */
PUSHW[ ]\011/* 1 value pushed */
54 
MDAP[1]\011/* MoveDirectAbsPt */
PUSHW[ ]\011/* 1 value pushed */
9 
MDAP[1]\011/* MoveDirectAbsPt */
PUSHW[ ]\011/* 3 values pushed */
49 67 3 
CALL[ ]\011/* CallFunction */
PUSHW[ ]\011/* 1 value pushed */
49 
SRP0[ ]\011/* SetRefPoint0 */
PUSHW[ ]\011/* 1 value pushed */
41 
MDRP[10000]\011/* MoveDirectRelPt */
PUSHW[ ]\011/* 1 value pushed */
41 
MDAP[1]\011/* MoveDirectAbsPt */
IUP[0]\011/* InterpolateUntPts */
IUP[1]\011/* InterpolateUntPts */";
};
width = 685;
}
);
note = Z;
unicode = 005A;
},
{
glyphname = bracketleft;
lastChange = "2018-11-25 04:46:33 +0000";
layers = (
{
layerId = "0D8C0684-5C80-438C-A1B9-8A29192E7ABE";
paths = (
{
closed = 1;
nodes = (
"128 384 OFFCURVE",
"128.333 398.333 OFFCURVE",
"129 413 CURVE SMOOTH",
"129.667 427.667 OFFCURVE",
"130 444.667 OFFCURVE",
"130 464 CURVE SMOOTH",
"130 494 OFFCURVE",
"129.167 522.167 OFFCURVE",
"127.5 548.5 CURVE SMOOTH",
"125.833 574.833 OFFCURVE",
"125 596.667 OFFCURVE",
"125 614 CURVE SMOOTH",
"125 630.667 OFFCURVE",
"130.333 639 OFFCURVE",
"141 639 CURVE SMOOTH",
"163.159 639 OFFCURVE",
"266.566 651 OFFCURVE",
"283 651 CURVE SMOOTH",
"288.333 651 OFFCURVE",
"293 637.667 OFFCURVE",
"293 631 CURVE SMOOTH",
"293 626.333 OFFCURVE",
"290.667 623.667 OFFCURVE",
"286 623 CURVE",
"263.333 617.667 OFFCURVE",
"235.333 607.667 OFFCURVE",
"210 597 CURVE SMOOTH",
"203.333 594.333 OFFCURVE",
"201.333 590.333 OFFCURVE",
"200 577 CURVE SMOOTH",
"193.333 479.667 OFFCURVE",
"186 382.333 OFFCURVE",
"186 285 CURVE SMOOTH",
"186 249 OFFCURVE",
"187 212 OFFCURVE",
"189 174 CURVE SMOOTH",
"191 136 OFFCURVE",
"192 101 OFFCURVE",
"192 69 CURVE SMOOTH",
"192 50.333 OFFCURVE",
"191.667 34.167 OFFCURVE",
"191 20.5 CURVE SMOOTH",
"190.333 6.833 OFFCURVE",
"190 -4.333 OFFCURVE",
"190 -13 CURVE SMOOTH",
"190 -16.333 OFFCURVE",
"188.667 -18.833 OFFCURVE",
"186 -20.5 CURVE SMOOTH",
"183.333 -22.167 OFFCURVE",
"182 -24.333 OFFCURVE",
"182 -27 CURVE SMOOTH",
"182 -31 OFFCURVE",
"184.333 -33.333 OFFCURVE",
"189 -34 CURVE",
"250 -40 LINE SMOOTH",
"266 -41.333 OFFCURVE",
"276 -43.5 OFFCURVE",
"280 -46.5 CURVE SMOOTH",
"284 -49.5 OFFCURVE",
"286 -54.667 OFFCURVE",
"286 -62 CURVE SMOOTH",
"286 -80.667 OFFCURVE",
"281 -83 OFFCURVE",
"269 -83 CURVE SMOOTH",
"260.753 -83 OFFCURVE",
"179.4 -79.253 OFFCURVE",
"155 -76 CURVE",
"131.196 -76 OFFCURVE",
"126.373 -78.059 OFFCURVE",
"117 -64 CURVE",
"117 -60.667 OFFCURVE",
"117.667 -57.667 OFFCURVE",
"119 -55 CURVE SMOOTH",
"120.333 -52.333 OFFCURVE",
"121 -48.333 OFFCURVE",
"121 -43 CURVE SMOOTH",
"121 -8.333 OFFCURVE",
"122.167 27.167 OFFCURVE",
"124.5 63.5 CURVE SMOOTH",
"126.833 99.833 OFFCURVE",
"128 135 OFFCURVE",
"128 169 CURVE SMOOTH",
"128 370 LINE SMOOTH"
);
}
);
userData = {
assembly = "PUSHW[ ]\011/* 3 values pushed */
32 4 3 
CALL[ ]\011/* CallFunction */
PUSHW[ ]\011/* 1 value pushed */
32 
SRP0[ ]\011/* SetRefPoint0 */
PUSHW[ ]\011/* 1 value pushed */
4 
SRP0[ ]\011/* SetRefPoint0 */
PUSHW[ ]\011/* 1 value pushed */
0 
MDRP[10000]\011/* MoveDirectRelPt */
PUSHW[ ]\011/* 1 value pushed */
0 
MDAP[1]\011/* MoveDirectAbsPt */
PUSHW[ ]\011/* 1 value pushed */
4 
SRP0[ ]\011/* SetRefPoint0 */
PUSHW[ ]\011/* 1 value pushed */
7 
MDRP[10000]\011/* MoveDirectRelPt */
PUSHW[ ]\011/* 1 value pushed */
7 
MDAP[1]\011/* MoveDirectAbsPt */
NPUSHW[ ]\011/* 27 values pushed */
6 32 22 32 38 32 54 32 70 32 86 32 102 32 118 32 134 32 150 32 166 32 182 32 198 32 13 
DELTAP1[ ]\011/* DeltaExceptionP1 */
NPUSHW[ ]\011/* 5 values pushed */
213 32 229 32 2 
DELTAP1[ ]\011/* DeltaExceptionP1 */
PUSHW[ ]\011/* 1 value pushed */
32 
SRP0[ ]\011/* SetRefPoint0 */
PUSHW[ ]\011/* 1 value pushed */
29 
MDRP[10000]\011/* MoveDirectRelPt */
PUSHW[ ]\011/* 1 value pushed */
29 
MDAP[1]\011/* MoveDirectAbsPt */
PUSHW[ ]\011/* 1 value pushed */
32 
SRP0[ ]\011/* SetRefPoint0 */
PUSHW[ ]\011/* 1 value pushed */
35 
MDRP[10000]\011/* MoveDirectRelPt */
PUSHW[ ]\011/* 1 value pushed */
35 
MDAP[1]\011/* MoveDirectAbsPt */
PUSHW[ ]\011/* 1 value pushed */
4 
SRP0[ ]\011/* SetRefPoint0 */
PUSHW[ ]\011/* 1 value pushed */
38 
MDRP[11100]\011/* MoveDirectRelPt */
PUSHW[ ]\011/* 1 value pushed */
4 
SRP0[ ]\011/* SetRefPoint0 */
PUSHW[ ]\011/* 1 value pushed */
56 
MDRP[10000]\011/* MoveDirectRelPt */
PUSHW[ ]\011/* 1 value pushed */
56 
MDAP[1]\011/* MoveDirectAbsPt */
PUSHW[ ]\011/* 1 value pushed */
0 
SRP0[ ]\011/* SetRefPoint0 */
PUSHW[ ]\011/* 1 value pushed */
59 
MDRP[10000]\011/* MoveDirectRelPt */
PUSHW[ ]\011/* 1 value pushed */
59 
MDAP[1]\011/* MoveDirectAbsPt */
SVTCA[0]\011/* SetFreedomAndProjectionVectorToAxis */
PUSHW[ ]\011/* 1 value pushed */
49 
MDAP[1]\011/* MoveDirectAbsPt */
PUSHW[ ]\011/* 1 value pushed */
12 
MDAP[1]\011/* MoveDirectAbsPt */
PUSHW[ ]\011/* 1 value pushed */
17 
MDAP[1]\011/* MoveDirectAbsPt */
IUP[0]\011/* InterpolateUntPts */
IUP[1]\011/* InterpolateUntPts */";
};
width = 333;
}
);
note = bracketleft;
unicode = 005B;
},
{
glyphname = backslash;
lastChange = "2018-11-25 04:46:33 +0000";
layers = (
{
layerId = "0D8C0684-5C80-438C-A1B9-8A29192E7ABE";
paths = (
{
closed = 1;
nodes = (
"375 -59 OFFCURVE",
"369.667 -50.667 OFFCURVE",
"363 -40 CURVE",
"348.09 -10.179 OFFCURVE",
"289.058 110.881 OFFCURVE",
"264 162.5 CURVE SMOOTH",
"230.667 231.167 OFFCURVE",
"197.667 303 OFFCURVE",
"167 371 CURVE SMOOTH",
"151.667 405 OFFCURVE",
"138.333 435.667 OFFCURVE",
"127 463 CURVE SMOOTH",
"100.787 525.134 OFFCURVE",
"68.365 599.465 OFFCURVE",
"56.5 621.5 CURVE SMOOTH",
"46.051 640.905 OFFCURVE",
"36.404 652 OFFCURVE",
"27 652 CURVE SMOOTH",
"15 652 OFFCURVE",
"-2 633.667 OFFCURVE",
"-2 623 CURVE SMOOTH",
"-2 619.667 OFFCURVE",
"0 615.5 OFFCURVE",
"4 610.5 CURVE SMOOTH",
"8 605.5 OFFCURVE",
"13.667 595.333 OFFCURVE",
"21 580 CURVE SMOOTH",
"85 450.667 OFFCURVE",
"146.167 323.167 OFFCURVE",
"197.5 210.5 CURVE SMOOTH",
"248.833 97.833 OFFCURVE",
"291.333 1 OFFCURVE",
"318 -67 CURVE",
"319.905 -70.811 OFFCURVE",
"342.265 -83 OFFCURVE",
"346 -83 CURVE SMOOTH",
"352.667 -83 OFFCURVE",
"364 -77.667 OFFCURVE",
"368 -75 CURVE",
"372.667 -72.333 OFFCURVE",
"375 -68.333 OFFCURVE",
"375 -63 CURVE SMOOTH"
);
}
);
userData = {
assembly = "SVTCA[0]\011/* SetFreedomAndProjectionVectorToAxis */
PUSHW[ ]\011/* 1 value pushed */
21 
MDAP[1]\011/* MoveDirectAbsPt */
PUSHW[ ]\011/* 1 value pushed */
5 
MDAP[1]\011/* MoveDirectAbsPt */
IUP[0]\011/* InterpolateUntPts */
IUP[1]\011/* InterpolateUntPts */";
};
width = 370;
}
);
note = backslash;
unicode = 005C;
},
{
glyphname = bracketright;
lastChange = "2018-11-25 04:46:33 +0000";
layers = (
{
layerId = "0D8C0684-5C80-438C-A1B9-8A29192E7ABE";
paths = (
{
closed = 1;
nodes = (
"205 183 OFFCURVE",
"204.667 168.667 OFFCURVE",
"204 154 CURVE SMOOTH",
"203.333 139.333 OFFCURVE",
"203 122.333 OFFCURVE",
"203 103 CURVE SMOOTH",
"203 73 OFFCURVE",
"203.833 45 OFFCURVE",
"205.5 19 CURVE SMOOTH",
"207.167 -7 OFFCURVE",
"208 -28.667 OFFCURVE",
"208 -46 CURVE SMOOTH",
"208 -62.667 OFFCURVE",
"202.667 -71 OFFCURVE",
"192 -71 CURVE SMOOTH",
"154.693 -71 OFFCURVE",
"91.055 -83 OFFCURVE",
"50 -83 CURVE SMOOTH",
"44.667 -83 OFFCURVE",
"40 -69.667 OFFCURVE",
"40 -63 CURVE SMOOTH",
"40 -58.333 OFFCURVE",
"42.333 -55.667 OFFCURVE",
"47 -55 CURVE",
"69.667 -49.667 OFFCURVE",
"97.667 -39.667 OFFCURVE",
"123 -29 CURVE SMOOTH",
"129.667 -26.333 OFFCURVE",
"131.667 -22.333 OFFCURVE",
"133 -9 CURVE SMOOTH",
"139.667 87 OFFCURVE",
"147 184.667 OFFCURVE",
"147 282 CURVE SMOOTH",
"147 318 OFFCURVE",
"146 355 OFFCURVE",
"144 393 CURVE SMOOTH",
"142 431 OFFCURVE",
"141 466 OFFCURVE",
"141 498 CURVE SMOOTH",
"141 516.667 OFFCURVE",
"141.333 533 OFFCURVE",
"142 547 CURVE SMOOTH",
"142.667 561 OFFCURVE",
"143 572.333 OFFCURVE",
"143 581 CURVE SMOOTH",
"143 584.333 OFFCURVE",
"144.333 586.833 OFFCURVE",
"147 588.5 CURVE SMOOTH",
"149.667 590.167 OFFCURVE",
"151 592.333 OFFCURVE",
"151 595 CURVE SMOOTH",
"151 599 OFFCURVE",
"148.667 601.333 OFFCURVE",
"144 602 CURVE",
"83 608 LINE SMOOTH",
"67 609.333 OFFCURVE",
"57 611.5 OFFCURVE",
"53 614.5 CURVE SMOOTH",
"49 617.5 OFFCURVE",
"47 622.667 OFFCURVE",
"47 630 CURVE SMOOTH",
"47 648.667 OFFCURVE",
"52 651 OFFCURVE",
"64 651 CURVE SMOOTH",
"86.513 651 OFFCURVE",
"188.411 644.598 OFFCURVE",
"204 642 CURVE",
"212 641.333 OFFCURVE",
"216 638 OFFCURVE",
"216 632 CURVE SMOOTH",
"216 628.667 OFFCURVE",
"215.333 625.667 OFFCURVE",
"214 623 CURVE SMOOTH",
"212.667 620.333 OFFCURVE",
"212 616.333 OFFCURVE",
"212 611 CURVE SMOOTH",
"212 575 OFFCURVE",
"210.833 539 OFFCURVE",
"208.5 503 CURVE SMOOTH",
"206.167 467 OFFCURVE",
"205 432 OFFCURVE",
"205 398 CURVE SMOOTH",
"205 197 LINE SMOOTH"
);
}
);
userData = {
assembly = "PUSHW[ ]\011/* 3 values pushed */
0 35 3 
CALL[ ]\011/* CallFunction */
PUSHW[ ]\011/* 1 value pushed */
4 
MDRP[10000]\011/* MoveDirectRelPt */
PUSHW[ ]\011/* 1 value pushed */
4 
MDAP[1]\011/* MoveDirectAbsPt */
PUSHW[ ]\011/* 1 value pushed */
0 
SRP0[ ]\011/* SetRefPoint0 */
PUSHW[ ]\011/* 1 value pushed */
29 
MDRP[11100]\011/* MoveDirectRelPt */
PUSHW[ ]\011/* 1 value pushed */
26 
MDRP[10000]\011/* MoveDirectRelPt */
PUSHW[ ]\011/* 1 value pushed */
26 
MDAP[1]\011/* MoveDirectAbsPt */
PUSHW[ ]\011/* 1 value pushed */
29 
SRP0[ ]\011/* SetRefPoint0 */
PUSHW[ ]\011/* 1 value pushed */
32 
MDRP[10000]\011/* MoveDirectRelPt */
PUSHW[ ]\011/* 1 value pushed */
32 
MDAP[1]\011/* MoveDirectAbsPt */
PUSHW[ ]\011/* 1 value pushed */
0 
SRP0[ ]\011/* SetRefPoint0 */
PUSHW[ ]\011/* 1 value pushed */
53 
MDRP[10000]\011/* MoveDirectRelPt */
PUSHW[ ]\011/* 1 value pushed */
53 
MDAP[1]\011/* MoveDirectAbsPt */
PUSHW[ ]\011/* 1 value pushed */
0 
SRP0[ ]\011/* SetRefPoint0 */
PUSHW[ ]\011/* 1 value pushed */
56 
MDRP[10000]\011/* MoveDirectRelPt */
PUSHW[ ]\011/* 1 value pushed */
56 
MDAP[1]\011/* MoveDirectAbsPt */
SVTCA[0]\011/* SetFreedomAndProjectionVectorToAxis */
PUSHW[ ]\011/* 1 value pushed */
46 
MDAP[1]\011/* MoveDirectAbsPt */
PUSHW[ ]\011/* 1 value pushed */
14 
MDAP[1]\011/* MoveDirectAbsPt */
IUP[0]\011/* InterpolateUntPts */
IUP[1]\011/* InterpolateUntPts */";
};
width = 333;
}
);
note = bracketright;
unicode = 005D;
},
{
glyphname = asciicircum;
lastChange = "2018-11-25 04:46:33 +0000";
layers = (
{
layerId = "0D8C0684-5C80-438C-A1B9-8A29192E7ABE";
paths = (
{
closed = 1;
nodes = (
"5 622.667 OFFCURVE",
"10.333 645.333 OFFCURVE",
"17 652 CURVE",
"65.607 694.335 OFFCURVE",
"111.088 738 OFFCURVE",
"137 738 CURVE SMOOTH",
"192.299 738 OFFCURVE",
"273 662.493 OFFCURVE",
"273 632 CURVE SMOOTH",
"273 625.333 OFFCURVE",
"261.667 621 OFFCURVE",
"255 621 CURVE SMOOTH",
"232.856 621 OFFCURVE",
"168.525 680 OFFCURVE",
"144 680 CURVE SMOOTH",
"143.34 680 OFFCURVE",
"11.347 606 OFFCURVE",
"12 606 CURVE",
"7.333 606 OFFCURVE",
"5 609.333 OFFCURVE",
"5 616 CURVE SMOOTH"
);
}
);
userData = {
assembly = "SVTCA[0]\011/* SetFreedomAndProjectionVectorToAxis */
PUSHW[ ]\011/* 1 value pushed */
20 
MDAP[1]\011/* MoveDirectAbsPt */
PUSHW[ ]\011/* 1 value pushed */
2 
MDAP[1]\011/* MoveDirectAbsPt */
IUP[0]\011/* InterpolateUntPts */
IUP[1]\011/* InterpolateUntPts */";
};
width = 278;
}
);
note = asciicircum;
unicode = 005E;
},
{
glyphname = underscore;
lastChange = "2018-11-25 04:46:33 +0000";
layers = (
{
layerId = "0D8C0684-5C80-438C-A1B9-8A29192E7ABE";
paths = (
{
closed = 1;
nodes = (
"0 -74 LINE",
"500 -74 LINE",
"500 -124 LINE",
"0 -124 LINE"
);
}
);
userData = {
assembly = "SVTCA[0]\011/* SetFreedomAndProjectionVectorToAxis */
PUSHW[ ]\011/* 3 values pushed */
3 0 3 
CALL[ ]\011/* CallFunction */
PUSHW[ ]\011/* 1 value pushed */
3 
SRP0[ ]\011/* SetRefPoint0 */
IUP[0]\011/* InterpolateUntPts */
IUP[1]\011/* InterpolateUntPts */";
};
width = 500;
}
);
note = underscore;
unicode = 005F;
},
{
glyphname = grave;
lastChange = "2018-11-25 04:46:33 +0000";
layers = (
{
layerId = "0D8C0684-5C80-438C-A1B9-8A29192E7ABE";
paths = (
{
closed = 1;
nodes = (
"67 724.642 OFFCURVE",
"87.813 748 OFFCURVE",
"99 748 CURVE SMOOTH",
"116.333 748 OFFCURVE",
"127 745 OFFCURVE",
"131 733 CURVE SMOOTH",
"139.667 705.667 OFFCURVE",
"153 682.333 OFFCURVE",
"171 663 CURVE SMOOTH",
"187 645 OFFCURVE",
"197.667 633.167 OFFCURVE",
"203 627.5 CURVE SMOOTH",
"208.333 621.833 OFFCURVE",
"211 618 OFFCURVE",
"211 616 CURVE SMOOTH",
"211 609.333 OFFCURVE",
"188.333 606 OFFCURVE",
"183 606 CURVE SMOOTH",
"156.766 606 OFFCURVE",
"67 685.673 OFFCURVE",
"67 713 CURVE SMOOTH"
);
}
);
userData = {
assembly = "SVTCA[0]\011/* SetFreedomAndProjectionVectorToAxis */
PUSHW[ ]\011/* 1 value pushed */
16 
MDAP[1]\011/* MoveDirectAbsPt */
PUSHW[ ]\011/* 1 value pushed */
5 
MDAP[1]\011/* MoveDirectAbsPt */
IUP[0]\011/* InterpolateUntPts */
IUP[1]\011/* InterpolateUntPts */";
};
width = 278;
}
);
note = grave;
unicode = 0060;
},
{
glyphname = a;
lastChange = "2018-11-25 04:46:33 +0000";
layers = (
{
layerId = "0D8C0684-5C80-438C-A1B9-8A29192E7ABE";
paths = (
{
closed = 1;
nodes = (
"230 260 LINE SMOOTH",
"221.333 244.667 OFFCURVE",
"215.667 234.667 OFFCURVE",
"213 230 CURVE SMOOTH",
"210.333 225.333 OFFCURVE",
"209 221.333 OFFCURVE",
"209 218 CURVE SMOOTH",
"209 201.867 OFFCURVE",
"266.754 206 OFFCURVE",
"310 206 CURVE SMOOTH",
"370.922 206 OFFCURVE",
"439.07 207.035 OFFCURVE",
"453 214 CURVE",
"296 374 LINE"
);
},
{
closed = 1;
nodes = (
"187.333 160 OFFCURVE",
"166.667 149.333 OFFCURVE",
"148 116 CURVE SMOOTH",
"98 29 LINE SMOOTH",
"94.667 23 OFFCURVE",
"92.667 16.667 OFFCURVE",
"92 10 CURVE SMOOTH",
"91.333 3.333 OFFCURVE",
"86.333 0 OFFCURVE",
"77 0 CURVE SMOOTH",
"58.333 0 OFFCURVE",
"43.333 2 OFFCURVE",
"32 6 CURVE SMOOTH",
"20.667 10 OFFCURVE",
"15 15.667 OFFCURVE",
"15 23 CURVE SMOOTH",
"15 29 OFFCURVE",
"18.333 35.333 OFFCURVE",
"25 42 CURVE SMOOTH",
"31.667 48.667 OFFCURVE",
"39.333 57.667 OFFCURVE",
"48 69 CURVE SMOOTH",
"80.574 110.623 OFFCURVE",
"145.466 211.574 OFFCURVE",
"175 261.5 CURVE SMOOTH",
"199.162 302.346 OFFCURVE",
"248 389.028 OFFCURVE",
"248 411 CURVE SMOOTH",
"248 424.333 OFFCURVE",
"236.667 442.333 OFFCURVE",
"214 465 CURVE SMOOTH",
"132 548 LINE SMOOTH",
"122.667 558 OFFCURVE",
"114.667 565 OFFCURVE",
"108 569 CURVE SMOOTH",
"101.333 573 OFFCURVE",
"98 577.667 OFFCURVE",
"98 583 CURVE SMOOTH",
"98 593.604 OFFCURVE",
"145.025 617 OFFCURVE",
"161 617 CURVE SMOOTH",
"197.638 617 OFFCURVE",
"200.806 613.666 OFFCURVE",
"214 582 CURVE",
"216.667 574 OFFCURVE",
"233.333 552.667 OFFCURVE",
"248 534 CURVE SMOOTH",
"356 403.333 OFFCURVE",
"430.833 318.833 OFFCURVE",
"495.5 251.5 CURVE SMOOTH",
"560.167 184.167 OFFCURVE",
"615.333 134.667 OFFCURVE",
"686 72 CURVE SMOOTH",
"709.679 50.689 OFFCURVE",
"735 60.558 OFFCURVE",
"735 37 CURVE SMOOTH",
"735 24.546 OFFCURVE",
"700.257 -7 OFFCURVE",
"686 -7 CURVE SMOOTH",
"656 -7 LINE SMOOTH",
"650.667 -7 OFFCURVE",
"647 -4.667 OFFCURVE",
"645 0 CURVE SMOOTH",
"643 4.667 OFFCURVE",
"640.333 9 OFFCURVE",
"637 13 CURVE",
"615 43 OFFCURVE",
"570.333 92 OFFCURVE",
"503 160 CURVE",
"238 160 LINE SMOOTH"
);
}
);
userData = {
assembly = "SVTCA[0]\011/* SetFreedomAndProjectionVectorToAxis */
PUSHW[ ]\011/* 1 value pushed */
21 
MDAP[1]\011/* MoveDirectAbsPt */
PUSHW[ ]\011/* 1 value pushed */
69 
MDAP[1]\011/* MoveDirectAbsPt */
PUSHW[ ]\011/* 1 value pushed */
45 
MDAP[1]\011/* MoveDirectAbsPt */
PUSHW[ ]\011/* 3 values pushed */
6 15 3 
CALL[ ]\011/* CallFunction */
PUSHW[ ]\011/* 1 value pushed */
6 
SRP0[ ]\011/* SetRefPoint0 */
PUSHW[ ]\011/* 3 values pushed */
0 21 45 
SRP1[ ]\011/* SetRefPoint1 */
SRP2[ ]\011/* SetRefPoint2 */
IP[ ]\011/* InterpolatePts */
IUP[0]\011/* InterpolateUntPts */
IUP[1]\011/* InterpolateUntPts */";
};
width = 741;
}
);
note = a;
unicode = 0061;
},
{
glyphname = b;
lastChange = "2018-11-25 04:46:33 +0000";
layers = (
{
layerId = "0D8C0684-5C80-438C-A1B9-8A29192E7ABE";
paths = (
{
closed = 1;
nodes = (
"197 104.162 OFFCURVE",
"192.641 70 OFFCURVE",
"215 70 CURVE SMOOTH",
"270.757 70 OFFCURVE",
"376 103.158 OFFCURVE",
"376 171 CURVE SMOOTH",
"376 219.222 OFFCURVE",
"293.678 284.932 OFFCURVE",
"241 305 CURVE",
"229 301 OFFCURVE",
"215.667 293.667 OFFCURVE",
"209 287 CURVE",
"204.333 281.667 OFFCURVE",
"201.167 269.5 OFFCURVE",
"199.5 250.5 CURVE SMOOTH",
"197.833 231.5 OFFCURVE",
"197 198.333 OFFCURVE",
"197 151 CURVE SMOOTH"
);
},
{
closed = 1;
nodes = (
"213.667 360.333 OFFCURVE",
"222.667 352 OFFCURVE",
"232 352 CURVE SMOOTH",
"263.731 352 OFFCURVE",
"346 440.452 OFFCURVE",
"346 487 CURVE SMOOTH",
"346 525.476 OFFCURVE",
"305.39 562 OFFCURVE",
"249 562 CURVE SMOOTH",
"226.333 562 OFFCURVE",
"207 553.333 OFFCURVE",
"207 524 CURVE SMOOTH",
"207 367 LINE"
);
},
{
closed = 1;
nodes = (
"145 400.761 OFFCURVE",
"149.942 473.033 OFFCURVE",
"122 489 CURVE SMOOTH",
"103.333 499.667 OFFCURVE",
"93 503 OFFCURVE",
"93 515 CURVE SMOOTH",
"93 533.636 OFFCURVE",
"174.009 570.004 OFFCURVE",
"226 596 CURVE SMOOTH",
"230 598 OFFCURVE",
"234.333 599.5 OFFCURVE",
"239 600.5 CURVE SMOOTH",
"243.667 601.5 OFFCURVE",
"251.667 602 OFFCURVE",
"263 602 CURVE SMOOTH",
"359 602 OFFCURVE",
"418 578 OFFCURVE",
"418 506 CURVE SMOOTH",
"418 429.493 OFFCURVE",
"392.925 404.495 OFFCURVE",
"294 349 CURVE",
"349.386 331.51 OFFCURVE",
"448 252.597 OFFCURVE",
"448 185 CURVE SMOOTH",
"448 125.973 OFFCURVE",
"383.259 75.613 OFFCURVE",
"322.5 47.5 CURVE SMOOTH",
"280.359 28.002 OFFCURVE",
"200.977 0 OFFCURVE",
"180 0 CURVE SMOOTH",
"149.333 0 OFFCURVE",
"129 1.5 OFFCURVE",
"119 4.5 CURVE SMOOTH",
"109 7.5 OFFCURVE",
"104 12.667 OFFCURVE",
"104 20 CURVE SMOOTH",
"104 25.333 OFFCURVE",
"107.5 31.167 OFFCURVE",
"114.5 37.5 CURVE SMOOTH",
"121.5 43.833 OFFCURVE",
"125.667 51.333 OFFCURVE",
"127 60 CURVE",
"135.361 99.019 OFFCURVE",
"145 232.595 OFFCURVE",
"145 313 CURVE SMOOTH"
);
}
);
userData = {
assembly = "PUSHW[ ]\011/* 3 values pushed */
0 38 3 
CALL[ ]\011/* CallFunction */
PUSHW[ ]\011/* 3 values pushed */
66 30 3 
CALL[ ]\011/* CallFunction */
PUSHW[ ]\011/* 1 value pushed */
66 
SRP0[ ]\011/* SetRefPoint0 */
NPUSHW[ ]\011/* 27 values pushed */
6 0 22 0 38 0 54 0 70 0 86 0 102 0 118 0 134 0 150 0 166 0 182 0 198 0 13 
DELTAP1[ ]\011/* DeltaExceptionP1 */
NPUSHW[ ]\011/* 5 values pushed */
213 0 229 0 2 
DELTAP1[ ]\011/* DeltaExceptionP1 */
NPUSHW[ ]\011/* 5 values pushed */
218 30 234 30 2 
DELTAP1[ ]\011/* DeltaExceptionP1 */
NPUSHW[ ]\011/* 27 values pushed */
9 30 25 30 41 30 57 30 73 30 89 30 105 30 121 30 137 30 153 30 169 30 185 30 201 30 13 
DELTAP1[ ]\011/* DeltaExceptionP1 */
PUSHW[ ]\011/* 3 values pushed */
11 30 66 
SRP1[ ]\011/* SetRefPoint1 */
SRP2[ ]\011/* SetRefPoint2 */
IP[ ]\011/* InterpolatePts */
PUSHW[ ]\011/* 1 value pushed */
11 
MDAP[1]\011/* MoveDirectAbsPt */
NPUSHW[ ]\011/* 5 values pushed */
218 11 234 11 2 
DELTAP1[ ]\011/* DeltaExceptionP1 */
NPUSHW[ ]\011/* 27 values pushed */
9 11 25 11 41 11 57 11 73 11 89 11 105 11 121 11 137 11 153 11 169 11 185 11 201 11 13 
DELTAP1[ ]\011/* DeltaExceptionP1 */
PUSHW[ ]\011/* 1 value pushed */
38 
SRP0[ ]\011/* SetRefPoint0 */
PUSHW[ ]\011/* 1 value pushed */
21 
MDRP[11100]\011/* MoveDirectRelPt */
PUSHW[ ]\011/* 1 value pushed */
11 
SRP0[ ]\011/* SetRefPoint0 */
PUSHW[ ]\011/* 1 value pushed */
56 
MDRP[11100]\011/* MoveDirectRelPt */
PUSHW[ ]\011/* 3 values pushed */
61 38 56 
SRP1[ ]\011/* SetRefPoint1 */
SRP2[ ]\011/* SetRefPoint2 */
IP[ ]\011/* InterpolatePts */
PUSHW[ ]\011/* 1 value pushed */
86 
MDRP[11100]\011/* MoveDirectRelPt */
SVTCA[0]\011/* SetFreedomAndProjectionVectorToAxis */
PUSHW[ ]\011/* 3 values pushed */
16 49 3 
CALL[ ]\011/* CallFunction */
PUSHW[ ]\011/* 1 value pushed */
16 
SRP0[ ]\011/* SetRefPoint0 */
PUSHW[ ]\011/* 3 values pushed */
69 25 3 
CALL[ ]\011/* CallFunction */
PUSHW[ ]\011/* 1 value pushed */
69 
SRP0[ ]\011/* SetRefPoint0 */
IUP[0]\011/* InterpolateUntPts */
IUP[1]\011/* InterpolateUntPts */";
};
width = 537;
}
);
note = b;
unicode = 0062;
},
{
glyphname = c;
lastChange = "2018-11-25 04:46:33 +0000";
layers = (
{
layerId = "0D8C0684-5C80-438C-A1B9-8A29192E7ABE";
paths = (
{
closed = 1;
nodes = (
"104 337.333 OFFCURVE",
"128 408.167 OFFCURVE",
"164 459.5 CURVE SMOOTH",
"182 485.167 OFFCURVE",
"202.5 506.167 OFFCURVE",
"225.5 522.5 CURVE SMOOTH",
"275.595 558.075 OFFCURVE",
"382.74 587 OFFCURVE",
"433 587 CURVE SMOOTH",
"461 587 OFFCURVE",
"482.667 581.667 OFFCURVE",
"498 571 CURVE SMOOTH",
"513.333 560.333 OFFCURVE",
"521 550 OFFCURVE",
"521 540 CURVE SMOOTH",
"521 523.825 OFFCURVE",
"483.748 490 OFFCURVE",
"467 490 CURVE SMOOTH",
"451.941 490 OFFCURVE",
"426.36 535 OFFCURVE",
"397 535 CURVE SMOOTH",
"329.016 535 OFFCURVE",
"237.644 472.287 OFFCURVE",
"211 419 CURVE SMOOTH",
"183.074 363.148 OFFCURVE",
"170 295.19 OFFCURVE",
"170 257 CURVE SMOOTH",
"170 171.165 OFFCURVE",
"245.002 48 OFFCURVE",
"345 48 CURVE SMOOTH",
"403.039 48 OFFCURVE",
"499.771 129 OFFCURVE",
"526 129 CURVE SMOOTH",
"539.333 129 OFFCURVE",
"547 120 OFFCURVE",
"547 108 CURVE SMOOTH",
"547 92.595 OFFCURVE",
"493.97 42.337 OFFCURVE",
"465 27 CURVE",
"437.583 10.55 OFFCURVE",
"364.023 -3 OFFCURVE",
"317 -3 CURVE SMOOTH",
"219.032 -3 OFFCURVE",
"104 75.968 OFFCURVE",
"104 240 CURVE SMOOTH"
);
}
);
userData = {
assembly = "PUSHW[ ]\011/* 3 values pushed */
28 0 3 
CALL[ ]\011/* CallFunction */
PUSHW[ ]\011/* 1 value pushed */
28 
SRP0[ ]\011/* SetRefPoint0 */
NPUSHW[ ]\011/* 27 values pushed */
6 28 22 28 38 28 54 28 70 28 86 28 102 28 118 28 134 28 150 28 166 28 182 28 198 28 13 
DELTAP1[ ]\011/* DeltaExceptionP1 */
NPUSHW[ ]\011/* 5 values pushed */
213 28 229 28 2 
DELTAP1[ ]\011/* DeltaExceptionP1 */
SVTCA[0]\011/* SetFreedomAndProjectionVectorToAxis */
PUSHW[ ]\011/* 3 values pushed */
23 5 3 
CALL[ ]\011/* CallFunction */
PUSHW[ ]\011/* 1 value pushed */
23 
SRP0[ ]\011/* SetRefPoint0 */
PUSHW[ ]\011/* 3 values pushed */
48 35 3 
CALL[ ]\011/* CallFunction */
PUSHW[ ]\011/* 1 value pushed */
48 
SRP0[ ]\011/* SetRefPoint0 */
IUP[0]\011/* InterpolateUntPts */
IUP[1]\011/* InterpolateUntPts */";
};
width = 593;
}
);
note = c;
unicode = 0063;
},
{
glyphname = d;
lastChange = "2018-11-25 04:46:33 +0000";
layers = (
{
layerId = "0D8C0684-5C80-438C-A1B9-8A29192E7ABE";
paths = (
{
closed = 1;
nodes = (
"212 220.667 OFFCURVE",
"211.833 195.833 OFFCURVE",
"211.5 171.5 CURVE SMOOTH",
"211.167 147.167 OFFCURVE",
"211 124.667 OFFCURVE",
"211 104 CURVE SMOOTH",
"211 78.667 OFFCURVE",
"213.667 62.667 OFFCURVE",
"219 56 CURVE SMOOTH",
"224.333 49.333 OFFCURVE",
"233 46 OFFCURVE",
"245 46 CURVE SMOOTH",
"307.667 46 OFFCURVE",
"359.667 59.333 OFFCURVE",
"397 102 CURVE SMOOTH",
"434.333 144.667 OFFCURVE",
"456 215.333 OFFCURVE",
"456 330 CURVE SMOOTH",
"456 472.274 OFFCURVE",
"344.013 550 OFFCURVE",
"281 550 CURVE SMOOTH",
"258.333 550 OFFCURVE",
"228 539.667 OFFCURVE",
"212 529 CURVE",
"212 246 LINE SMOOTH"
);
},
{
closed = 1;
nodes = (
"230.333 -11 OFFCURVE",
"223.833 -10.5 OFFCURVE",
"217.5 -9.5 CURVE SMOOTH",
"211.167 -8.5 OFFCURVE",
"205.333 -7.667 OFFCURVE",
"200 -7 CURVE SMOOTH",
"144 0 LINE SMOOTH",
"132.667 1.333 OFFCURVE",
"124.5 3.167 OFFCURVE",
"119.5 5.5 CURVE SMOOTH",
"114.5 7.833 OFFCURVE",
"112 11.667 OFFCURVE",
"112 17 CURVE SMOOTH",
"112 30.794 OFFCURVE",
"141.321 54.413 OFFCURVE",
"143 88 CURVE SMOOTH",
"147 168 OFFCURVE",
"150 256 OFFCURVE",
"150 328 CURVE SMOOTH",
"150 378.906 OFFCURVE",
"140.786 471.667 OFFCURVE",
"133 508 CURVE SMOOTH",
"127.755 531.604 OFFCURVE",
"94 510.036 OFFCURVE",
"94 538 CURVE SMOOTH",
"94 556.667 OFFCURVE",
"100.333 560.333 OFFCURVE",
"135 571 CURVE SMOOTH",
"205 591 LINE SMOOTH",
"219.667 595 OFFCURVE",
"231.5 597.833 OFFCURVE",
"240.5 599.5 CURVE SMOOTH",
"249.5 601.167 OFFCURVE",
"256.333 602 OFFCURVE",
"261 602 CURVE SMOOTH",
"288.632 602 OFFCURVE",
"346.163 590.587 OFFCURVE",
"399 566.5 CURVE SMOOTH",
"444.333 545.833 OFFCURVE",
"483.667 510.5 OFFCURVE",
"509 456.5 CURVE SMOOTH",
"521.667 429.5 OFFCURVE",
"528 397 OFFCURVE",
"528 359 CURVE SMOOTH",
"528 233.542 OFFCURVE",
"516.355 161.327 OFFCURVE",
"465 90 CURVE SMOOTH",
"442.839 59.781 OFFCURVE",
"386.906 32.806 OFFCURVE",
"343 17 CURVE SMOOTH",
"311.482 5.653 OFFCURVE",
"252.32 -11 OFFCURVE",
"237 -11 CURVE SMOOTH"
);
}
);
userData = {
assembly = "PUSHW[ ]\011/* 3 values pushed */
0 59 3 
CALL[ ]\011/* CallFunction */
PUSHW[ ]\011/* 3 values pushed */
32 9 3 
CALL[ ]\011/* CallFunction */
PUSHW[ ]\011/* 1 value pushed */
32 
SRP0[ ]\011/* SetRefPoint0 */
NPUSHW[ ]\011/* 5 values pushed */
218 9 234 9 2 
DELTAP1[ ]\011/* DeltaExceptionP1 */
NPUSHW[ ]\011/* 27 values pushed */
9 9 25 9 41 9 57 9 73 9 89 9 105 9 121 9 137 9 153 9 169 9 185 9 201 9 13 
DELTAP1[ ]\011/* DeltaExceptionP1 */
PUSHW[ ]\011/* 1 value pushed */
0 
SRP0[ ]\011/* SetRefPoint0 */
PUSHW[ ]\011/* 1 value pushed */
17 
MDRP[10000]\011/* MoveDirectRelPt */
PUSHW[ ]\011/* 1 value pushed */
17 
MDAP[1]\011/* MoveDirectAbsPt */
PUSHW[ ]\011/* 1 value pushed */
59 
SRP0[ ]\011/* SetRefPoint0 */
PUSHW[ ]\011/* 1 value pushed */
56 
MDRP[10000]\011/* MoveDirectRelPt */
PUSHW[ ]\011/* 1 value pushed */
56 
MDAP[1]\011/* MoveDirectAbsPt */
PUSHW[ ]\011/* 1 value pushed */
32 
SRP0[ ]\011/* SetRefPoint0 */
PUSHW[ ]\011/* 1 value pushed */
72 
MDRP[11100]\011/* MoveDirectRelPt */
SVTCA[0]\011/* SetFreedomAndProjectionVectorToAxis */
PUSHW[ ]\011/* 1 value pushed */
39 
MDAP[1]\011/* MoveDirectAbsPt */
PUSHW[ ]\011/* 1 value pushed */
20 
MDAP[1]\011/* MoveDirectAbsPt */
PUSHW[ ]\011/* 1 value pushed */
68 
MDAP[1]\011/* MoveDirectAbsPt */
IUP[0]\011/* InterpolateUntPts */
IUP[1]\011/* InterpolateUntPts */";
};
width = 648;
}
);
note = d;
unicode = 0064;
},
{
glyphname = e;
lastChange = "2018-11-25 04:46:33 +0000";
layers = (
{
layerId = "0D8C0684-5C80-438C-A1B9-8A29192E7ABE";
paths = (
{
closed = 1;
nodes = (
"376.667 320 OFFCURVE",
"383 316 OFFCURVE",
"383 308 CURVE SMOOTH",
"383 297.075 OFFCURVE",
"344.914 268 OFFCURVE",
"336 268 CURVE",
"306 265.333 OFFCURVE",
"278.167 263.833 OFFCURVE",
"252.5 263.5 CURVE SMOOTH",
"226.833 263.167 OFFCURVE",
"204 262.667 OFFCURVE",
"184 262 CURVE",
"184 102 OFFCURVE",
"243.667 21 OFFCURVE",
"381 21 CURVE SMOOTH",
"410.333 21 OFFCURVE",
"418 17.333 OFFCURVE",
"418 0 CURVE SMOOTH",
"418 -5.333 OFFCURVE",
"413 -10.667 OFFCURVE",
"403 -16 CURVE SMOOTH",
"393 -21.333 OFFCURVE",
"375.333 -24 OFFCURVE",
"350 -24 CURVE SMOOTH",
"269.576 -24 OFFCURVE",
"169.797 23.845 OFFCURVE",
"143.5 70.5 CURVE SMOOTH",
"112.621 125.285 OFFCURVE",
"108 190.119 OFFCURVE",
"108 249 CURVE SMOOTH",
"108 382.333 OFFCURVE",
"135 470.167 OFFCURVE",
"175 525.5 CURVE SMOOTH",
"215 580.833 OFFCURVE",
"270 602 OFFCURVE",
"326 602 CURVE SMOOTH",
"354 602 OFFCURVE",
"373 599.833 OFFCURVE",
"383 595.5 CURVE SMOOTH",
"393 591.167 OFFCURVE",
"398 583.333 OFFCURVE",
"398 572 CURVE SMOOTH",
"398 557.333 OFFCURVE",
"391.667 550 OFFCURVE",
"379 550 CURVE SMOOTH",
"320 550 LINE SMOOTH",
"288 550 OFFCURVE",
"257.167 539.167 OFFCURVE",
"232.5 502.5 CURVE SMOOTH",
"207.833 465.833 OFFCURVE",
"189.333 404 OFFCURVE",
"184 304 CURVE",
"194.667 313.333 OFFCURVE",
"209 320 OFFCURVE",
"229 320 CURVE SMOOTH",
"364 320 LINE SMOOTH"
);
}
);
userData = {
assembly = "PUSHW[ ]\011/* 3 values pushed */
36 20 3 
CALL[ ]\011/* CallFunction */
PUSHW[ ]\011/* 1 value pushed */
36 
SRP0[ ]\011/* SetRefPoint0 */
NPUSHW[ ]\011/* 27 values pushed */
6 36 22 36 38 36 54 36 70 36 86 36 102 36 118 36 134 36 150 36 166 36 182 36 198 36 13 
DELTAP1[ ]\011/* DeltaExceptionP1 */
NPUSHW[ ]\011/* 5 values pushed */
213 36 229 36 2 
DELTAP1[ ]\011/* DeltaExceptionP1 */
PUSHW[ ]\011/* 1 value pushed */
4 
MDRP[10000]\011/* MoveDirectRelPt */
SVTCA[0]\011/* SetFreedomAndProjectionVectorToAxis */
PUSHW[ ]\011/* 3 values pushed */
33 27 3 
CALL[ ]\011/* CallFunction */
PUSHW[ ]\011/* 1 value pushed */
33 
SRP0[ ]\011/* SetRefPoint0 */
PUSHW[ ]\011/* 3 values pushed */
15 9 3 
CALL[ ]\011/* CallFunction */
PUSHW[ ]\011/* 1 value pushed */
15 
SRP0[ ]\011/* SetRefPoint0 */
PUSHW[ ]\011/* 3 values pushed */
0 39 3 
CALL[ ]\011/* CallFunction */
PUSHW[ ]\011/* 1 value pushed */
0 
SRP0[ ]\011/* SetRefPoint0 */
PUSHW[ ]\011/* 3 values pushed */
4 39 0 
SRP1[ ]\011/* SetRefPoint1 */
SRP2[ ]\011/* SetRefPoint2 */
IP[ ]\011/* InterpolatePts */
PUSHW[ ]\011/* 1 value pushed */
39 
SRP0[ ]\011/* SetRefPoint0 */
PUSHW[ ]\011/* 1 value pushed */
36 
MDRP[10000]\011/* MoveDirectRelPt */
PUSHW[ ]\011/* 1 value pushed */
36 
MDAP[1]\011/* MoveDirectAbsPt */
IUP[0]\011/* InterpolateUntPts */
IUP[1]\011/* InterpolateUntPts */";
};
width = 481;
}
);
note = e;
unicode = 0065;
},
